B612-BoldItalic.ufo
<glyph name="exclam" format="1">
  <advance width="700"/>
  <unicode hex="0021"/>
  <outline>
    <contour>
      <point x="663" y="1500" type="line"/>
      <point x="477" y="444" type="line"/>
      <point x="171" y="409" type="line"/>
      <point x="363" y="1500" type="line"/>
    </contour>
    <contour>
      <point x="136" y="137" type="qcurve"/>
      <point x="138" y="167"/>
      <point x="170" y="224"/>
      <point x="219" y="266"/>
      <point x="279" y="288"/>
      <point x="309" y="285" type="qcurve"/>
      <point x="369" y="278"/>
      <point x="435" y="198"/>
      <point x="431" y="137" type="qcurve"/>
      <point x="429" y="106"/>
      <point x="397" y="49"/>
      <point x="348" y="7"/>
      <point x="288" y="-16"/>
      <point x="258" y="-14" type="qcurve"/>
      <point x="227" y="-12"/>
      <point x="179" y="14"/>
      <point x="148" y="54"/>
      <point x="134" y="107"/>
    </contour>
  </outline>
</glyph>
<glyph name="dollar" format="1">
  <advance width="1100"/>
  <unicode hex="0024"/>
  <outline>
    <contour>
      <point x="786" y="430" type="qcurve"/>
      <point x="786" y="472"/>
      <point x="761" y="539"/>
      <point x="740" y="566" type="qcurve"/>
      <point x="687" y="264" type="line"/>
      <point x="730" y="290"/>
      <point x="786" y="372"/>
    </contour>
    <contour>
      <point x="586" y="1125" type="qcurve"/>
      <point x="586" y="1086"/>
      <point x="611" y="1030"/>
      <point x="634" y="1007" type="qcurve"/>
      <point x="679" y="1264" type="line"/>
      <point x="639" y="1247"/>
      <point x="586" y="1182"/>
    </contour>
    <contour>
      <point x="1059" y="1178" type="line"/>
      <point x="1019" y="1207"/>
      <point x="952" y="1246"/>
      <point x="920" y="1259" type="qcurve"/>
      <point x="851" y="864" type="line"/>
      <point x="902" y="832"/>
      <point x="1002" y="758"/>
      <point x="1078" y="659"/>
      <point x="1118" y="532"/>
      <point x="1110" y="448" type="qcurve"/>
      <point x="1101" y="356"/>
      <point x="1026" y="209"/>
      <point x="911" y="98"/>
      <point x="767" y="23"/>
      <point x="689" y="3" type="qcurve"/>
      <point x="655" y="-190" type="line"/>
      <point x="365" y="-190" type="line"/>
      <point x="397" y="-9" type="line"/>
      <point x="293" y="5"/>
      <point x="116" y="71"/>
      <point x="50" y="121" type="qcurve"/>
      <point x="228" y="348" type="line"/>
      <point x="271" y="313"/>
      <point x="372" y="255"/>
      <point x="440" y="238" type="qcurve"/>
      <point x="525" y="719" type="line"/>
      <point x="465" y="752"/>
      <point x="361" y="822"/>
      <point x="286" y="910"/>
      <point x="246" y="1022"/>
      <point x="250" y="1097" type="qcurve"/>
      <point x="254" y="1178"/>
      <point x="326" y="1314"/>
      <point x="440" y="1418"/>
      <point x="586" y="1488"/>
      <point x="663" y="1505" type="qcurve"/>
      <point x="695" y="1681" type="line"/>
      <point x="1002" y="1719" type="line"/>
      <point x="962" y="1497" type="line"/>
      <point x="1109" y="1463"/>
      <point x="1243" y="1369" type="qcurve"/>
    </contour>
  </outline>
</glyph>
<glyph name="percent" format="1">
  <advance width="1800"/>
  <unicode hex="0025"/>
  <outline>
    <contour>
      <point x="633" y="0" type="line"/>
      <point x="310" y="0" type="line"/>
      <point x="1393" y="1500" type="line"/>
      <point x="1707" y="1500" type="line"/>
    </contour>
    <contour>
      <point x="1348" y="-17" type="qcurve"/>
      <point x="1175" y="-1"/>
      <point x="1021" y="204"/>
      <point x="1036" y="382" type="qcurve"/>
      <point x="1043" y="467"/>
      <point x="1119" y="618"/>
      <point x="1239" y="726"/>
      <point x="1397" y="782"/>
      <point x="1487" y="774" type="qcurve"/>
      <point x="1659" y="758"/>
      <point x="1815" y="553"/>
      <point x="1799" y="382" type="qcurve"/>
      <point x="1791" y="295"/>
      <point x="1719" y="142"/>
      <point x="1601" y="31"/>
      <point x="1442" y="-26"/>
    </contour>
    <contour>
      <point x="1507" y="371" type="qcurve"/>
      <point x="1510" y="407"/>
      <point x="1511" y="474"/>
      <point x="1499" y="526"/>
      <point x="1473" y="561"/>
      <point x="1449" y="566" type="qcurve"/>
      <point x="1426" y="570"/>
      <point x="1388" y="543"/>
      <point x="1358" y="493"/>
      <point x="1337" y="429"/>
      <point x="1333" y="396" type="qcurve"/>
      <point x="1328" y="360"/>
      <point x="1328" y="294"/>
      <point x="1340" y="241"/>
      <point x="1367" y="206"/>
      <point x="1390" y="203" type="qcurve"/>
      <point x="1412" y="200"/>
      <point x="1452" y="228"/>
      <point x="1483" y="277"/>
      <point x="1504" y="339"/>
    </contour>
    <contour>
      <point x="528" y="726" type="qcurve"/>
      <point x="355" y="742"/>
      <point x="201" y="947"/>
      <point x="216" y="1125" type="qcurve"/>
      <point x="223" y="1210"/>
      <point x="299" y="1361"/>
      <point x="419" y="1469"/>
      <point x="577" y="1525"/>
      <point x="667" y="1517" type="qcurve"/>
      <point x="839" y="1501"/>
      <point x="995" y="1296"/>
      <point x="979" y="1125" type="qcurve"/>
      <point x="971" y="1038"/>
      <point x="899" y="885"/>
      <point x="781" y="774"/>
      <point x="622" y="717"/>
    </contour>
    <contour>
      <point x="687" y="1114" type="qcurve"/>
      <point x="690" y="1150"/>
      <point x="691" y="1217"/>
      <point x="679" y="1269"/>
      <point x="653" y="1304"/>
      <point x="629" y="1309" type="qcurve"/>
      <point x="606" y="1313"/>
      <point x="568" y="1286"/>
      <point x="538" y="1236"/>
      <point x="517" y="1172"/>
      <point x="513" y="1139" type="qcurve"/>
      <point x="508" y="1103"/>
      <point x="508" y="1037"/>
      <point x="520" y="984"/>
      <point x="547" y="949"/>
      <point x="570" y="946" type="qcurve"/>
      <point x="592" y="943"/>
      <point x="632" y="971"/>
      <point x="663" y="1020"/>
      <point x="684" y="1082"/>
    </contour>
  </outline>
</glyph>
<glyph name="ampersand" format="1">
  <advance width="1400"/>
  <unicode hex="0026"/>
  <outline>
    <contour>
      <point x="1459" y="760" type="line"/>
      <point x="1451" y="685"/>
      <point x="1411" y="535"/>
      <point x="1348" y="397"/>
      <point x="1263" y="276"/>
      <point x="1209" y="229" type="qcurve"/>
      <point x="1351" y="-19" type="line"/>
      <point x="993" y="-19" type="line"/>
      <point x="960" y="42" type="line"/>
      <point x="888" y="10"/>
      <point x="737" y="-24"/>
      <point x="652" y="-19" type="qcurve"/>
      <point x="545" y="-12"/>
      <point x="356" y="62"/>
      <point x="217" y="191"/>
      <point x="143" y="372"/>
      <point x="152" y="488" type="qcurve"/>
      <point x="158" y="564"/>
      <point x="225" y="696"/>
      <point x="320" y="803"/>
      <point x="429" y="883"/>
      <point x="478" y="907" type="qcurve"/>
      <point x="453" y="965"/>
      <point x="440" y="1090"/>
      <point x="444" y="1154" type="qcurve"/>
      <point x="449" y="1242"/>
      <point x="526" y="1384"/>
      <point x="654" y="1482"/>
      <point x="826" y="1528"/>
      <point x="927" y="1519" type="qcurve"/>
      <point x="1010" y="1512"/>
      <point x="1136" y="1466"/>
      <point x="1229" y="1404"/>
      <point x="1292" y="1336"/>
      <point x="1312" y="1308" type="qcurve"/>
      <point x="1133" y="1098" type="line"/>
      <point x="1113" y="1125"/>
      <point x="1053" y="1191"/>
      <point x="986" y="1250"/>
      <point x="917" y="1290"/>
      <point x="887" y="1290" type="qcurve"/>
      <point x="847" y="1290"/>
      <point x="787" y="1259"/>
      <point x="751" y="1207"/>
      <point x="740" y="1140"/>
      <point x="750" y="1104" type="qcurve"/>
      <point x="754" y="1090"/>
      <point x="763" y="1059"/>
      <point x="784" y="1009"/>
      <point x="823" y="931"/>
      <point x="890" y="807"/>
      <point x="989" y="630"/>
      <point x="1061" y="507" type="qcurve"/>
      <point x="1090" y="551"/>
      <point x="1124" y="665"/>
      <point x="1126" y="725" type="qcurve"/>
    </contour>
    <contour>
      <point x="697" y="217" type="qcurve"/>
      <point x="732" y="217"/>
      <point x="800" y="231"/>
      <point x="839" y="251" type="qcurve"/>
      <point x="589" y="691" type="line"/>
      <point x="522" y="653"/>
      <point x="457" y="543"/>
      <point x="455" y="489" type="qcurve"/>
      <point x="453" y="426"/>
      <point x="486" y="332"/>
      <point x="550" y="265"/>
      <point x="641" y="225"/>
    </contour>
  </outline>
</glyph>
<glyph name="quotesingle" format="1">
  <advance width="400"/>
  <unicode hex="0027"/>
  <outline>
    <contour>
      <point x="364" y="1500" type="line"/>
      <point x="634" y="1500" type="line"/>
      <point x="611" y="1367" type="line"/>
      <point x="589" y="1267"/>
      <point x="496" y="1124"/>
      <point x="417" y="1068" type="qcurve"/>
      <point x="278" y="1068" type="line"/>
      <point x="295" y="1148"/>
      <point x="329" y="1301"/>
      <point x="341" y="1367" type="qcurve"/>
    </contour>
  </outline>
</glyph>
<glyph name="parenright" format="1">
  <advance width="900"/>
  <unicode hex="0029"/>
  <outline>
    <contour>
      <point x="736" y="38" type="line"/>
      <point x="723" y="-37"/>
      <point x="697" y="-164"/>
      <point x="660" y="-266"/>
      <point x="606" y="-344"/>
      <point x="525" y="-396"/>
      <point x="409" y="-422"/>
      <point x="328" y="-420" type="qcurve"/>
      <point x="303" y="-420"/>
      <point x="248" y="-412"/>
      <point x="194" y="-398"/>
      <point x="144" y="-378"/>
      <point x="126" y="-365" type="qcurve"/>
      <point x="245" y="-245" type="line"/>
      <point x="266" y="-244"/>
      <point x="313" y="-243"/>
      <point x="358" y="-211"/>
      <point x="398" y="-129"/>
      <point x="413" y="-46" type="qcurve"/>
      <point x="638" y="1227" type="line"/>
      <point x="650" y="1292"/>
      <point x="633" y="1370"/>
      <point x="596" y="1413"/>
      <point x="550" y="1428"/>
      <point x="533" y="1431" type="qcurve"/>
      <point x="463" y="1545" type="line"/>
      <point x="486" y="1558"/>
      <point x="542" y="1579"/>
      <point x="602" y="1593"/>
      <point x="660" y="1600"/>
      <point x="685" y="1600" type="qcurve"/>
      <point x="760" y="1600"/>
      <point x="859" y="1561"/>
      <point x="920" y="1494"/>
      <point x="948" y="1406"/>
      <point x="953" y="1307"/>
      <point x="942" y="1205"/>
      <point x="934" y="1158" type="qcurve"/>
    </contour>
  </outline>
</glyph>
<glyph name="asterisk" format="1">
  <advance width="1100"/>
  <unicode hex="002A"/>
  <outline>
    <contour>
      <point x="904" y="926" type="line"/>
      <point x="974" y="805" type="line"/>
      <point x="780" y="654" type="line"/>
      <point x="694" y="800" type="line"/>
      <point x="672" y="990" type="line"/>
      <point x="589" y="800" type="line"/>
      <point x="462" y="656" type="line"/>
      <point x="285" y="781" type="line"/>
      <point x="437" y="950" type="line"/>
      <point x="614" y="1041" type="line"/>
      <point x="404" y="1041" type="line"/>
      <point x="262" y="1090" type="line"/>
      <point x="344" y="1309" type="line"/>
      <point x="520" y="1259" type="line"/>
      <point x="655" y="1120" type="line"/>
      <point x="622" y="1315" type="line"/>
      <point x="645" y="1446" type="line"/>
      <point x="879" y="1470" type="line"/>
      <point x="850" y="1309" type="line"/>
      <point x="739" y="1117" type="line"/>
      <point x="909" y="1247" type="line"/>
      <point x="1062" y="1294" type="line"/>
      <point x="1118" y="1083" type="line"/>
      <point x="972" y="1037" type="line"/>
      <point x="749" y="1037" type="line"/>
    </contour>
  </outline>
</glyph>
<glyph name="hyphen" format="1">
  <advance width="900"/>
  <unicode hex="002D"/>
  <outline>
    <contour>
      <point x="234" y="624" type="line"/>
      <point x="861" y="624" type="line"/>
      <point x="821" y="400" type="line"/>
      <point x="194" y="400" type="line"/>
    </contour>
  </outline>
</glyph>
<glyph name="slash" format="1">
  <advance width="1100"/>
  <unicode hex="002F"/>
  <outline>
    <contour>
      <point x="342" y="-100" type="line"/>
      <point x="-10" y="-100" type="line"/>
      <point x="699" y="1600" type="line"/>
      <point x="1042" y="1600" type="line"/>
    </contour>
  </outline>
</glyph>
<glyph name="zero" format="1">
  <advance width="1300"/>
  <unicode hex="0030"/>
  <outline>
    <contour>
      <point x="594" y="-16" type="qcurve"/>
      <point x="502" y="-9"/>
      <point x="364" y="61"/>
      <point x="265" y="173"/>
      <point x="203" y="319"/>
      <point x="173" y="485"/>
      <point x="171" y="663"/>
      <point x="182" y="750" type="qcurve"/>
      <point x="193" y="841"/>
      <point x="249" y="1030"/>
      <point x="335" y="1206"/>
      <point x="451" y="1360"/>
      <point x="595" y="1469"/>
      <point x="766" y="1525"/>
      <point x="864" y="1516" type="qcurve"/>
      <point x="957" y="1507"/>
      <point x="1097" y="1436"/>
      <point x="1198" y="1324"/>
      <point x="1260" y="1179"/>
      <point x="1290" y="1014"/>
      <point x="1289" y="837"/>
      <point x="1276" y="750" type="qcurve"/>
      <point x="1262" y="659"/>
      <point x="1207" y="471"/>
      <point x="1123" y="296"/>
      <point x="1010" y="143"/>
      <point x="867" y="33"/>
      <point x="695" y="-24"/>
    </contour>
    <contour>
      <point x="524" y="791" type="qcurve"/>
      <point x="517" y="738"/>
      <point x="503" y="616"/>
      <point x="498" y="494"/>
      <point x="506" y="379"/>
      <point x="536" y="289"/>
      <point x="595" y="231"/>
      <point x="643" y="226" type="qcurve"/>
      <point x="685" y="221"/>
      <point x="757" y="258"/>
      <point x="817" y="328"/>
      <point x="865" y="424"/>
      <point x="902" y="534"/>
      <point x="927" y="653"/>
      <point x="934" y="709" type="qcurve"/>
      <point x="941" y="764"/>
      <point x="954" y="888"/>
      <point x="958" y="1011"/>
      <point x="949" y="1124"/>
      <point x="917" y="1212"/>
      <point x="859" y="1268"/>
      <point x="813" y="1273" type="qcurve"/>
      <point x="771" y="1277"/>
      <point x="699" y="1239"/>
      <point x="640" y="1169"/>
      <point x="592" y="1072"/>
      <point x="555" y="962"/>
      <point x="531" y="846"/>
    </contour>
  </outline>
</glyph>
<glyph name="semicolon" format="1">
  <advance width="500"/>
  <unicode hex="003B"/>
  <outline>
    <contour>
      <point x="190" y="714" type="qcurve"/>
      <point x="193" y="752"/>
      <point x="233" y="823"/>
      <point x="294" y="875"/>
      <point x="369" y="903"/>
      <point x="406" y="899" type="qcurve"/>
      <point x="482" y="891"/>
      <point x="564" y="791"/>
      <point x="559" y="714" type="qcurve"/>
      <point x="557" y="675"/>
      <point x="517" y="605"/>
      <point x="456" y="552"/>
      <point x="380" y="523"/>
      <point x="343" y="526" type="qcurve"/>
      <point x="304" y="529"/>
      <point x="244" y="560"/>
      <point x="205" y="611"/>
      <point x="187" y="677"/>
    </contour>
    <contour>
      <point x="84" y="169" type="qcurve"/>
      <point x="85" y="208"/>
      <point x="122" y="281"/>
      <point x="184" y="334"/>
      <point x="265" y="362"/>
      <point x="311" y="356" type="qcurve"/>
      <point x="355" y="351"/>
      <point x="416" y="314"/>
      <point x="454" y="258"/>
      <point x="470" y="187"/>
      <point x="469" y="148" type="qcurve"/>
      <point x="467" y="98"/>
      <point x="417" y="-29"/>
      <point x="335" y="-156"/>
      <point x="228" y="-269"/>
      <point x="168" y="-303" type="qcurve"/>
      <point x="26" y="-238" type="line"/>
      <point x="92" y="-180"/>
      <point x="152" y="-67"/>
      <point x="164" y="0" type="qcurve"/>
      <point x="128" y="26"/>
      <point x="82" y="103"/>
    </contour>
  </outline>
</glyph>
<glyph name="less" format="1">
  <advance width="1300"/>
  <unicode hex="003C"/>
  <outline>
    <contour>
      <point x="1362" y="1277" type="line"/>
      <point x="1314" y="1009" type="line"/>
      <point x="585" y="654" type="line"/>
      <point x="1190" y="302" type="line"/>
      <point x="1142" y="34" type="line"/>
      <point x="226" y="545" type="line"/>
      <point x="265" y="770" type="line"/>
    </contour>
  </outline>
</glyph>
<glyph name="at" format="1">
  <advance width="2000"/>
  <unicode hex="0040"/>
  <outline>
    <contour>
      <point x="1251" y="885" type="line"/>
      <point x="1231" y="888"/>
      <point x="1197" y="892"/>
      <point x="1190" y="893" type="qcurve"/>
      <point x="1113" y="896"/>
      <point x="1002" y="838"/>
      <point x="927" y="735"/>
      <point x="884" y="597"/>
      <point x="874" y="519" type="qcurve"/>
      <point x="866" y="458"/>
      <point x="869" y="351"/>
      <point x="889" y="268"/>
      <point x="925" y="215"/>
      <point x="952" y="209" type="qcurve"/>
      <point x="985" y="201"/>
      <point x="1047" y="217"/>
      <point x="1100" y="252"/>
      <point x="1142" y="302"/>
      <point x="1156" y="329" type="qcurve"/>
    </contour>
    <contour>
      <point x="1463" y="301" type="line"/>
      <point x="1459" y="274"/>
      <point x="1449" y="227"/>
      <point x="1447" y="189"/>
      <point x="1461" y="164"/>
      <point x="1481" y="159" type="qcurve"/>
      <point x="1495" y="156"/>
      <point x="1539" y="207"/>
      <point x="1586" y="304"/>
      <point x="1631" y="441"/>
      <point x="1664" y="606"/>
      <point x="1679" y="791"/>
      <point x="1672" y="888" type="qcurve"/>
      <point x="1663" y="1012"/>
      <point x="1586" y="1168"/>
      <point x="1469" y="1258"/>
      <point x="1323" y="1295"/>
      <point x="1246" y="1300" type="qcurve"/>
      <point x="1137" y="1307"/>
      <point x="950" y="1257"/>
      <point x="794" y="1158"/>
      <point x="670" y="1014"/>
      <point x="580" y="841"/>
      <point x="525" y="643"/>
      <point x="516" y="539" type="qcurve"/>
      <point x="502" y="377"/>
      <point x="527" y="123"/>
      <point x="626" y="-61"/>
      <point x="811" y="-171"/>
      <point x="957" y="-189" type="qcurve"/>
      <point x="1007" y="-195"/>
      <point x="1100" y="-185"/>
      <point x="1181" y="-163"/>
      <point x="1246" y="-134"/>
      <point x="1268" y="-120" type="qcurve"/>
      <point x="1337" y="-321" type="line"/>
      <point x="1289" y="-344"/>
      <point x="1192" y="-383"/>
      <point x="1092" y="-409"/>
      <point x="986" y="-422"/>
      <point x="930" y="-420" type="qcurve"/>
      <point x="545" y="-405"/>
      <point x="186" y="69"/>
      <point x="221" y="527" type="qcurve"/>
      <point x="231" y="661"/>
      <point x="311" y="917"/>
      <point x="444" y="1144"/>
      <point x="626" y="1331"/>
      <point x="852" y="1462"/>
      <point x="1117" y="1527"/>
      <point x="1266" y="1517" type="qcurve"/>
      <point x="1416" y="1507"/>
      <point x="1650" y="1404"/>
      <point x="1817" y="1237"/>
      <point x="1916" y="1012"/>
      <point x="1948" y="748"/>
      <point x="1911" y="453"/>
      <point x="1858" y="299" type="qcurve"/>
      <point x="1831" y="219"/>
      <point x="1742" y="101"/>
      <point x="1633" y="22"/>
      <point x="1510" y="-17"/>
      <point x="1447" y="-17" type="qcurve"/>
      <point x="1406" y="-17"/>
      <point x="1321" y="-1"/>
      <point x="1243" y="39"/>
      <point x="1180" y="109"/>
      <point x="1162" y="162" type="qcurve"/>
      <point x="1020" y="-19" type="line"/>
      <point x="1009" y="-21"/>
      <point x="973" y="-30"/>
      <point x="936" y="-25" type="qcurve"/>
      <point x="823" y="-10"/>
      <point x="694" y="92"/>
      <point x="632" y="243"/>
      <point x="621" y="430"/>
      <point x="626" y="530" type="qcurve"/>
      <point x="630" y="603"/>
      <point x="663" y="746"/>
      <point x="727" y="877"/>
      <point x="822" y="989"/>
      <point x="952" y="1070"/>
      <point x="1120" y="1117"/>
      <point x="1224" y="1117" type="qcurve"/>
      <point x="1285" y="1116"/>
      <point x="1347" y="1108" type="qcurve"/>
      <point x="1401" y="1101"/>
      <point x="1527" y="1071"/>
      <point x="1585" y="1043" type="qcurve"/>
    </contour>
  </outline>
</glyph>
<glyph name="B" format="1">
  <advance width="1300"/>
  <unicode hex="0042"/>
  <outline>
    <contour>
      <point x="671" y="1130" type="line"/>
      <point x="630" y="900" type="line"/>
      <point x="659" y="900" type="line"/>
      <point x="715" y="900"/>
      <point x="820" y="921"/>
      <point x="904" y="974"/>
      <point x="959" y="1062"/>
      <point x="965" y="1128" type="qcurve"/>
      <point x="970" y="1178"/>
      <point x="935" y="1246"/>
      <point x="873" y="1287"/>
      <point x="792" y="1305"/>
      <point x="751" y="1305" type="qcurve"/>
      <point x="737" y="1305"/>
      <point x="700" y="1303"/>
      <point x="685" y="1301" type="qcurve"/>
    </contour>
    <contour>
      <point x="136" y="0" type="line"/>
      <point x="358" y="1262" type="line"/>
      <point x="365" y="1481" type="line"/>
      <point x="408" y="1487"/>
      <point x="507" y="1497"/>
      <point x="605" y="1504"/>
      <point x="693" y="1508"/>
      <point x="726" y="1509" type="qcurve"/>
      <point x="838" y="1512"/>
      <point x="1044" y="1478"/>
      <point x="1199" y="1393"/>
      <point x="1283" y="1252"/>
      <point x="1273" y="1148" type="qcurve"/>
      <point x="1267" y="1084"/>
      <point x="1218" y="981"/>
      <point x="1146" y="902"/>
      <point x="1056" y="844"/>
      <point x="1008" y="826" type="qcurve"/>
      <point x="1061" y="806"/>
      <point x="1156" y="741"/>
      <point x="1224" y="653"/>
      <point x="1257" y="542"/>
      <point x="1248" y="475" type="qcurve"/>
      <point x="1231" y="342"/>
      <point x="1108" y="161"/>
      <point x="927" y="49"/>
      <point x="704" y="0"/>
      <point x="586" y="0" type="qcurve"/>
    </contour>
    <contour>
      <point x="512" y="228" type="line"/>
      <point x="569" y="228" type="line"/>
      <point x="656" y="228"/>
      <point x="783" y="252"/>
      <point x="869" y="307"/>
      <point x="918" y="398"/>
      <point x="926" y="465" type="qcurve"/>
      <point x="933" y="527"/>
      <point x="902" y="614"/>
      <point x="836" y="668"/>
      <point x="743" y="693"/>
      <point x="689" y="693" type="qcurve"/>
      <point x="594" y="693" type="line"/>
    </contour>
  </outline>
</glyph>
<glyph name="C" format="1">
  <advance width="1200"/>
  <unicode hex="0043"/>
  <outline>
    <contour>
      <point x="1167" y="133" type="line"/>
      <point x="1057" y="42"/>
      <point x="819" y="-29"/>
      <point x="685" y="-17" type="qcurve"/>
      <point x="534" y="-4"/>
      <point x="325" y="120"/>
      <point x="200" y="324"/>
      <point x="158" y="602"/>
      <point x="174" y="769" type="qcurve"/>
      <point x="184" y="871"/>
      <point x="244" y="1064"/>
      <point x="343" y="1233"/>
      <point x="479" y="1374"/>
      <point x="651" y="1472"/>
      <point x="857" y="1522"/>
      <point x="976" y="1517" type="qcurve"/>
      <point x="1040" y="1514"/>
      <point x="1161" y="1490"/>
      <point x="1269" y="1448"/>
      <point x="1361" y="1386"/>
      <point x="1397" y="1344" type="qcurve"/>
      <point x="1219" y="1170" type="line"/>
      <point x="1180" y="1201"/>
      <point x="1112" y="1243"/>
      <point x="1049" y="1268"/>
      <point x="985" y="1279"/>
      <point x="950" y="1280" type="qcurve"/>
      <point x="856" y="1282"/>
      <point x="702" y="1203"/>
      <point x="589" y="1064"/>
      <point x="519" y="878"/>
      <point x="510" y="772" type="qcurve"/>
      <point x="504" y="710"/>
      <point x="503" y="584"/>
      <point x="518" y="465"/>
      <point x="551" y="359"/>
      <point x="608" y="278"/>
      <point x="692" y="226"/>
      <point x="750" y="221" type="qcurve"/>
      <point x="819" y="215"/>
      <point x="985" y="263"/>
      <point x="1082" y="328" type="qcurve"/>
    </contour>
  </outline>
</glyph>
<glyph name="F" format="1">
  <advance width="1100"/>
  <unicode hex="0046"/>
  <outline>
    <contour>
      <point x="470" y="0" type="line"/>
      <point x="134" y="0" type="line"/>
      <point x="356" y="1263" type="line"/>
      <point x="363" y="1500" type="line"/>
      <point x="1350" y="1500" type="line"/>
      <point x="1283" y="1272" type="line"/>
      <point x="679" y="1272" type="line"/>
      <point x="669" y="1134" type="line"/>
      <point x="631" y="916" type="line"/>
      <point x="1144" y="916" type="line"/>
      <point x="1106" y="703" type="line"/>
      <point x="593" y="703" type="line"/>
    </contour>
  </outline>
</glyph>
<glyph name="G" format="1">
  <advance width="1300"/>
  <unicode hex="0047"/>
  <outline>
    <contour>
      <point x="1255" y="221" type="line"/>
      <point x="1207" y="168"/>
      <point x="1090" y="74"/>
      <point x="948" y="8"/>
      <point x="782" y="-25"/>
      <point x="685" y="-17" type="qcurve"/>
      <point x="531" y="-5"/>
      <point x="320" y="122"/>
      <point x="196" y="329"/>
      <point x="156" y="606"/>
      <point x="174" y="769" type="qcurve"/>
      <point x="185" y="869"/>
      <point x="250" y="1061"/>
      <point x="355" y="1231"/>
      <point x="495" y="1372"/>
      <point x="666" y="1471"/>
      <point x="866" y="1522"/>
      <point x="977" y="1517" type="qcurve"/>
      <point x="1041" y="1514"/>
      <point x="1161" y="1490"/>
      <point x="1269" y="1448"/>
      <point x="1362" y="1386"/>
      <point x="1398" y="1344" type="qcurve"/>
      <point x="1220" y="1170" type="line"/>
      <point x="1148" y="1231"/>
      <point x="1019" y="1281"/>
      <point x="950" y="1280" type="qcurve"/>
      <point x="856" y="1279"/>
      <point x="702" y="1200"/>
      <point x="589" y="1063"/>
      <point x="520" y="878"/>
      <point x="511" y="772" type="qcurve"/>
      <point x="506" y="709"/>
      <point x="504" y="581"/>
      <point x="518" y="462"/>
      <point x="550" y="357"/>
      <point x="607" y="277"/>
      <point x="692" y="226"/>
      <point x="751" y="221" type="qcurve"/>
      <point x="776" y="219"/>
      <point x="831" y="230"/>
      <point x="883" y="250"/>
      <point x="931" y="276"/>
      <point x="949" y="289" type="qcurve"/>
      <point x="1007" y="616" type="line"/>
      <point x="716" y="635" type="line"/>
      <point x="753" y="840" type="line"/>
      <point x="1365" y="840" type="line"/>
    </contour>
  </outline>
</glyph>
<glyph name="L" format="1">
  <advance width="1100"/>
  <unicode hex="004C"/>
  <outline>
    <contour>
      <point x="503" y="228" type="line"/>
      <point x="1122" y="228" type="line"/>
      <point x="1055" y="0" type="line"/>
      <point x="112" y="0" type="line"/>
      <point x="175" y="232" type="line"/>
      <point x="357" y="1263" type="line"/>
      <point x="364" y="1494" type="line"/>
      <point x="739" y="1525" type="line"/>
      <point x="534" y="360" type="line"/>
    </contour>
  </outline>
</glyph>
<glyph name="P" format="1">
  <advance width="1200"/>
  <unicode hex="0050"/>
  <outline>
    <contour>
      <point x="470" y="0" type="line"/>
      <point x="134" y="0" type="line"/>
      <point x="356" y="1262" type="line"/>
      <point x="356" y="1478" type="line"/>
      <point x="402" y="1485"/>
      <point x="512" y="1498"/>
      <point x="622" y="1506"/>
      <point x="723" y="1511"/>
      <point x="762" y="1511" type="qcurve"/>
      <point x="835" y="1511"/>
      <point x="978" y="1493"/>
      <point x="1106" y="1453"/>
      <point x="1213" y="1387"/>
      <point x="1288" y="1293"/>
      <point x="1324" y="1167"/>
      <point x="1317" y="1086" type="qcurve"/>
      <point x="1305" y="948"/>
      <point x="1185" y="762"/>
      <point x="989" y="647"/>
      <point x="727" y="596"/>
      <point x="574" y="593" type="qcurve"/>
    </contour>
    <contour>
      <point x="669" y="1130" type="line"/>
      <point x="611" y="804" type="line"/>
      <point x="693" y="806"/>
      <point x="826" y="838"/>
      <point x="922" y="903"/>
      <point x="978" y="1006"/>
      <point x="983" y="1078" type="qcurve"/>
      <point x="987" y="1139"/>
      <point x="948" y="1226"/>
      <point x="883" y="1280"/>
      <point x="805" y="1305"/>
      <point x="769" y="1305" type="qcurve"/>
      <point x="752" y="1305"/>
      <point x="706" y="1303"/>
      <point x="683" y="1300" type="qcurve"/>
    </contour>
  </outline>
</glyph>
<glyph name="Q" format="1">
  <advance width="1600"/>
  <unicode hex="0051"/>
  <outline>
    <contour>
      <point x="957" y="2" type="line"/>
      <point x="914" y="-7"/>
      <point x="824" y="-21"/>
      <point x="777" y="-17" type="qcurve"/>
      <point x="611" y="-4"/>
      <point x="380" y="113"/>
      <point x="241" y="309"/>
      <point x="192" y="581"/>
      <point x="209" y="750" type="qcurve"/>
      <point x="220" y="861"/>
      <point x="291" y="1066"/>
      <point x="402" y="1242"/>
      <point x="551" y="1384"/>
      <point x="730" y="1480"/>
      <point x="935" y="1525"/>
      <point x="1047" y="1517" type="qcurve"/>
      <point x="1214" y="1504"/>
      <point x="1445" y="1388"/>
      <point x="1583" y="1191"/>
      <point x="1631" y="919"/>
      <point x="1614" y="750" type="qcurve"/>
      <point x="1605" y="655"/>
      <point x="1550" y="477"/>
      <point x="1465" y="321"/>
      <point x="1352" y="194"/>
      <point x="1285" y="152" type="qcurve"/>
      <point x="1298" y="132"/>
      <point x="1327" y="103"/>
      <point x="1375" y="83"/>
      <point x="1451" y="74"/>
      <point x="1511" y="75" type="qcurve"/>
      <point x="1384" y="-145" type="line"/>
      <point x="1352" y="-145" type="line"/>
      <point x="1289" y="-142"/>
      <point x="1195" y="-114"/>
      <point x="1125" y="-71"/>
      <point x="1076" y="-15"/>
      <point x="1037" y="45"/>
      <point x="1006" y="107"/>
      <point x="990" y="135" type="qcurve"/>
    </contour>
    <contour>
      <point x="1208" y="506" type="line"/>
      <point x="1232" y="557"/>
      <point x="1267" y="664"/>
      <point x="1275" y="721" type="qcurve"/>
      <point x="1288" y="826"/>
      <point x="1281" y="1017"/>
      <point x="1221" y="1167"/>
      <point x="1099" y="1261"/>
      <point x="997" y="1269" type="qcurve"/>
      <point x="932" y="1274"/>
      <point x="820" y="1241"/>
      <point x="725" y="1175"/>
      <point x="648" y="1082"/>
      <point x="592" y="971"/>
      <point x="556" y="846"/>
      <point x="549" y="783" type="qcurve"/>
      <point x="537" y="668"/>
      <point x="545" y="472"/>
      <point x="604" y="326"/>
      <point x="724" y="238"/>
      <point x="825" y="231" type="qcurve"/>
      <point x="934" y="231" type="line"/>
      <point x="921" y="249"/>
      <point x="887" y="279"/>
      <point x="841" y="298"/>
      <point x="779" y="305"/>
      <point x="739" y="300" type="qcurve"/>
      <point x="849" y="500" type="line"/>
      <point x="923" y="505"/>
      <point x="1027" y="482"/>
      <point x="1101" y="432"/>
      <point x="1152" y="357"/>
      <point x="1173" y="311" type="qcurve"/>
    </contour>
  </outline>
</glyph>
<glyph name="R" format="1">
  <advance width="1300"/>
  <unicode hex="0052"/>
  <outline>
    <contour>
      <point x="672" y="1130" type="line"/>
      <point x="614" y="802" type="line"/>
      <point x="678" y="802" type="line"/>
      <point x="746" y="802"/>
      <point x="857" y="838"/>
      <point x="937" y="906"/>
      <point x="983" y="1004"/>
      <point x="987" y="1066" type="qcurve"/>
      <point x="991" y="1137"/>
      <point x="952" y="1230"/>
      <point x="887" y="1284"/>
      <point x="807" y="1305"/>
      <point x="771" y="1305" type="qcurve"/>
      <point x="751" y="1305"/>
      <point x="727" y="1305"/>
      <point x="709" y="1305"/>
      <point x="695" y="1304"/>
      <point x="685" y="1303" type="qcurve"/>
    </contour>
    <contour>
      <point x="619" y="564" type="line"/>
      <point x="610" y="578"/>
      <point x="583" y="583"/>
      <point x="575" y="583" type="qcurve"/>
      <point x="473" y="0" type="line"/>
      <point x="136" y="0" type="line"/>
      <point x="358" y="1262" type="line"/>
      <point x="359" y="1482" type="line"/>
      <point x="404" y="1487"/>
      <point x="516" y="1498"/>
      <point x="630" y="1506"/>
      <point x="739" y="1511"/>
      <point x="783" y="1511" type="qcurve"/>
      <point x="908" y="1511"/>
      <point x="1112" y="1457"/>
      <point x="1254" y="1349"/>
      <point x="1326" y="1188"/>
      <point x="1319" y="1081" type="qcurve"/>
      <point x="1314" y="1007"/>
      <point x="1269" y="886"/>
      <point x="1197" y="791"/>
      <point x="1103" y="718"/>
      <point x="997" y="664"/>
      <point x="883" y="628"/>
      <point x="826" y="617" type="qcurve"/>
      <point x="960" y="584" type="line"/>
      <point x="1294" y="0" type="line"/>
      <point x="926" y="0" type="line"/>
    </contour>
  </outline>
</glyph>
<glyph name="U" format="1">
  <advance width="1400"/>
  <unicode hex="0055"/>
  <outline>
    <contour>
      <point x="1499" y="1500" type="line"/>
      <point x="1329" y="534" type="line"/>
      <point x="1307" y="390"/>
      <point x="1188" y="174"/>
      <point x="1012" y="33"/>
      <point x="790" y="-29"/>
      <point x="664" y="-17" type="qcurve"/>
      <point x="531" y="-5"/>
      <point x="344" y="91"/>
      <point x="235" y="247"/>
      <point x="204" y="456"/>
      <point x="228" y="582" type="qcurve"/>
      <point x="348" y="1263" type="line"/>
      <point x="356" y="1494" type="line"/>
      <point x="727" y="1526" type="line"/>
      <point x="557" y="564" type="line"/>
      <point x="540" y="492"/>
      <point x="549" y="373"/>
      <point x="591" y="283"/>
      <point x="665" y="228"/>
      <point x="714" y="221" type="qcurve"/>
      <point x="768" y="213"/>
      <point x="862" y="248"/>
      <point x="935" y="325"/>
      <point x="984" y="442"/>
      <point x="994" y="516" type="qcurve"/>
      <point x="1168" y="1500" type="line"/>
    </contour>
  </outline>
</glyph>
<glyph name="W" format="1">
  <advance width="1900"/>
  <unicode hex="0057"/>
  <outline>
    <contour>
      <point x="1066" y="500" type="line"/>
      <point x="1104" y="970" type="line"/>
      <point x="940" y="500" type="line"/>
      <point x="730" y="0" type="line"/>
      <point x="398" y="0" type="line"/>
      <point x="290" y="1492" type="line"/>
      <point x="613" y="1526" type="line"/>
      <point x="661" y="860" type="line"/>
      <point x="657" y="379" type="line"/>
      <point x="661" y="379" type="line"/>
      <point x="788" y="865" type="line"/>
      <point x="1058" y="1500" type="line"/>
      <point x="1322" y="1500" type="line"/>
      <point x="1368" y="864" type="line"/>
      <point x="1363" y="369" type="line"/>
      <point x="1367" y="369" type="line"/>
      <point x="1494" y="862" type="line"/>
      <point x="1766" y="1500" type="line"/>
      <point x="2075" y="1500" type="line"/>
      <point x="1438" y="0" type="line"/>
      <point x="1103" y="0" type="line"/>
    </contour>
  </outline>
</glyph>
<glyph name="asciicircum" format="1">
  <advance width="1500"/>
  <unicode hex="005E"/>
  <outline>
    <contour>
      <point x="1610" y="866" type="line"/>
      <point x="1267" y="866" type="line"/>
      <point x="958" y="1180" type="line"/>
      <point x="554" y="868" type="line"/>
      <point x="192" y="868" type="line"/>
      <point x="897" y="1495" type="line"/>
      <point x="1111" y="1522" type="line"/>
    </contour>
  </outline>
</glyph>
<glyph name="grave" format="1">
  <advance width="1100"/>
  <unicode hex="0060"/>
  <outline>
    <contour>
      <point x="915" y="1200" type="line"/>
      <point x="657" y="1200" type="line"/>
      <point x="444" y="1491" type="line"/>
      <point x="797" y="1525" type="line"/>
    </contour>
  </outline>
</glyph>
<glyph name="a" format="1">
  <advance width="1100"/>
  <unicode hex="0061"/>
  <outline>
    <contour>
      <point x="839" y="885" type="line"/>
      <point x="819" y="888"/>
      <point x="785" y="892"/>
      <point x="778" y="893" type="qcurve"/>
      <point x="703" y="893"/>
      <point x="588" y="831"/>
      <point x="506" y="727"/>
      <point x="457" y="588"/>
      <point x="449" y="510" type="qcurve"/>
      <point x="443" y="449"/>
      <point x="448" y="340"/>
      <point x="470" y="257"/>
      <point x="511" y="209"/>
      <point x="540" y="209" type="qcurve"/>
      <point x="574" y="209"/>
      <point x="635" y="232"/>
      <point x="688" y="268"/>
      <point x="729" y="310"/>
      <point x="744" y="329" type="qcurve"/>
    </contour>
    <contour>
      <point x="483" y="-16" type="qcurve"/>
      <point x="406" y="-15"/>
      <point x="292" y="32"/>
      <point x="211" y="112"/>
      <point x="162" y="219"/>
      <point x="139" y="342"/>
      <point x="138" y="476"/>
      <point x="147" y="542" type="qcurve"/>
      <point x="156" y="614"/>
      <point x="204" y="756"/>
      <point x="283" y="884"/>
      <point x="392" y="993"/>
      <point x="533" y="1072"/>
      <point x="708" y="1117"/>
      <point x="812" y="1117" type="qcurve"/>
      <point x="873" y="1116"/>
      <point x="935" y="1108" type="qcurve"/>
      <point x="989" y="1101"/>
      <point x="1115" y="1071"/>
      <point x="1173" y="1043" type="qcurve"/>
      <point x="1030" y="209" type="line"/>
      <point x="1016" y="0" type="line"/>
      <point x="694" y="0" type="line"/>
      <point x="722" y="162" type="line"/>
      <point x="567" y="-10" type="line"/>
      <point x="556" y="-12"/>
      <point x="520" y="-17"/>
    </contour>
  </outline>
</glyph>
<glyph name="c" format="1">
  <advance width="1000"/>
  <unicode hex="0063"/>
  <outline>
    <contour>
      <point x="930" y="814" type="line"/>
      <point x="907" y="841"/>
      <point x="859" y="873"/>
      <point x="811" y="891"/>
      <point x="761" y="898"/>
      <point x="737" y="900" type="qcurve"/>
      <point x="680" y="904"/>
      <point x="583" y="849"/>
      <point x="512" y="755"/>
      <point x="469" y="630"/>
      <point x="465" y="563" type="qcurve"/>
      <point x="461" y="496"/>
      <point x="463" y="372"/>
      <point x="493" y="274"/>
      <point x="562" y="209"/>
      <point x="624" y="200" type="qcurve"/>
      <point x="650" y="196"/>
      <point x="718" y="210"/>
      <point x="786" y="236"/>
      <point x="849" y="271"/>
      <point x="871" y="288" type="qcurve"/>
      <point x="949" y="93" type="line"/>
      <point x="913" y="67"/>
      <point x="826" y="23"/>
      <point x="729" y="-7"/>
      <point x="625" y="-22"/>
      <point x="573" y="-17" type="qcurve"/>
      <point x="440" y="-6"/>
      <point x="268" y="94"/>
      <point x="172" y="252"/>
      <point x="142" y="458"/>
      <point x="151" y="575" type="qcurve"/>
      <point x="159" y="684"/>
      <point x="255" y="887"/>
      <point x="417" y="1041"/>
      <point x="640" y="1126"/>
      <point x="777" y="1117" type="qcurve"/>
      <point x="831" y="1113"/>
      <point x="924" y="1095"/>
      <point x="1005" y="1060"/>
      <point x="1076" y="1003"/>
      <point x="1107" y="961" type="qcurve"/>
    </contour>
  </outline>
</glyph>
<glyph name="e" format="1">
  <advance width="1100"/>
  <unicode hex="0065"/>
  <outline>
    <contour>
      <point x="1000" y="137" type="line"/>
      <point x="962" y="100"/>
      <point x="876" y="41"/>
      <point x="772" y="0"/>
      <point x="648" y="-19"/>
      <point x="573" y="-16" type="qcurve"/>
      <point x="433" y="-10"/>
      <point x="252" y="88"/>
      <point x="151" y="243"/>
      <point x="122" y="441"/>
      <point x="134" y="547" type="qcurve"/>
      <point x="142" y="614"/>
      <point x="185" y="755"/>
      <point x="257" y="885"/>
      <point x="359" y="998"/>
      <point x="490" y="1080"/>
      <point x="652" y="1122"/>
      <point x="749" y="1116" type="qcurve"/>
      <point x="863" y="1109"/>
      <point x="1018" y="1022"/>
      <point x="1105" y="888"/>
      <point x="1128" y="720"/>
      <point x="1110" y="632" type="qcurve"/>
      <point x="1103" y="600"/>
      <point x="1078" y="540"/>
      <point x="1065" y="517" type="qcurve"/>
      <point x="1050" y="490"/>
      <point x="1034" y="466" type="qcurve"/>
      <point x="419" y="466" type="line"/>
      <point x="412" y="404"/>
      <point x="439" y="305"/>
      <point x="498" y="236"/>
      <point x="582" y="200"/>
      <point x="631" y="200" type="qcurve"/>
      <point x="674" y="200"/>
      <point x="744" y="218"/>
      <point x="799" y="245"/>
      <point x="841" y="275"/>
      <point x="857" y="287" type="qcurve"/>
    </contour>
    <contour>
      <point x="853" y="672" type="line"/>
      <point x="871" y="713"/>
      <point x="868" y="793"/>
      <point x="834" y="856"/>
      <point x="769" y="897"/>
      <point x="725" y="900" type="qcurve"/>
      <point x="678" y="903"/>
      <point x="608" y="880"/>
      <point x="556" y="838"/>
      <point x="520" y="784"/>
      <point x="507" y="756" type="qcurve"/>
      <point x="398" y="653" type="line"/>
      <point x="574" y="671" type="line"/>
    </contour>
  </outline>
</glyph>
<glyph name="g" format="1">
  <advance width="1200"/>
  <unicode hex="0067"/>
  <outline>
    <contour>
      <point x="745" y="16" type="line"/>
      <point x="710" y="2"/>
      <point x="611" y="-21"/>
      <point x="553" y="-17" type="qcurve"/>
      <point x="452" y="-11"/>
      <point x="306" y="79"/>
      <point x="215" y="227"/>
      <point x="180" y="428"/>
      <point x="191" y="545" type="qcurve"/>
      <point x="202" y="663"/>
      <point x="289" y="871"/>
      <point x="441" y="1026"/>
      <point x="656" y="1117"/>
      <point x="795" y="1117" type="qcurve"/>
      <point x="813" y="1117"/>
      <point x="837" y="1116"/>
      <point x="847" y="1114" type="qcurve"/>
      <point x="910" y="958" type="line"/>
      <point x="940" y="1126" type="line"/>
      <point x="1245" y="1093" type="line"/>
      <point x="1045" y="-41" type="line"/>
      <point x="1025" y="-153"/>
      <point x="924" y="-336"/>
      <point x="771" y="-462"/>
      <point x="569" y="-525"/>
      <point x="447" y="-517" type="qcurve"/>
      <point x="381" y="-513"/>
      <point x="275" y="-486"/>
      <point x="189" y="-444"/>
      <point x="122" y="-390"/>
      <point x="96" y="-359" type="qcurve"/>
      <point x="270" y="-192" type="line"/>
      <point x="283" y="-206"/>
      <point x="329" y="-239"/>
      <point x="387" y="-269"/>
      <point x="454" y="-291"/>
      <point x="488" y="-293" type="qcurve"/>
      <point x="530" y="-296"/>
      <point x="613" y="-262"/>
      <point x="682" y="-193"/>
      <point x="731" y="-92"/>
      <point x="738" y="-27" type="qcurve"/>
    </contour>
    <contour>
      <point x="886" y="820" type="line"/>
      <point x="863" y="852"/>
      <point x="797" y="900"/>
      <point x="752" y="900" type="qcurve"/>
      <point x="686" y="900"/>
      <point x="597" y="836"/>
      <point x="539" y="733"/>
      <point x="508" y="601"/>
      <point x="501" y="534" type="qcurve"/>
      <point x="486" y="386"/>
      <point x="535" y="211"/>
      <point x="606" y="200" type="qcurve"/>
      <point x="665" y="191"/>
      <point x="754" y="242"/>
      <point x="792" y="287" type="qcurve"/>
    </contour>
  </outline>
</glyph>
<glyph name="h" format="1">
  <advance width="1200"/>
  <unicode hex="0068"/>
  <outline>
    <contour>
      <point x="445" y="0" type="line"/>
      <point x="134" y="0" type="line"/>
      <point x="377" y="1379" type="line"/>
      <point x="394" y="1600" type="line"/>
      <point x="732" y="1631" type="line"/>
      <point x="612" y="952" type="line"/>
      <point x="760" y="1107" type="line"/>
      <point x="788" y="1112"/>
      <point x="843" y="1117"/>
      <point x="868" y="1117" type="qcurve"/>
      <point x="945" y="1117"/>
      <point x="1066" y="1057"/>
      <point x="1144" y="950"/>
      <point x="1172" y="804"/>
      <point x="1156" y="718" type="qcurve"/>
      <point x="1030" y="0" type="line"/>
      <point x="719" y="0" type="line"/>
      <point x="847" y="726" type="line"/>
      <point x="860" y="805"/>
      <point x="815" y="889"/>
      <point x="777" y="900" type="qcurve"/>
      <point x="735" y="912"/>
      <point x="633" y="869"/>
      <point x="589" y="818" type="qcurve"/>
    </contour>
  </outline>
</glyph>
<glyph name="i" format="1">
  <advance width="600"/>
  <unicode hex="0069"/>
  <outline>
    <contour>
      <point x="442" y="0" type="line"/>
      <point x="136" y="0" type="line"/>
      <point x="320" y="1049" type="line"/>
      <point x="632" y="1081" type="line"/>
    </contour>
    <contour>
      <point x="394" y="1500" type="line"/>
      <point x="712" y="1500" type="line"/>
      <point x="671" y="1269" type="line"/>
      <point x="353" y="1269" type="line"/>
    </contour>
  </outline>
</glyph>
<glyph name="j" format="1">
  <advance width="600"/>
  <unicode hex="006A"/>
  <outline>
    <contour>
      <point x="-108" y="-268" type="line"/>
      <point x="-107" y="-268"/>
      <point x="-106" y="-269"/>
      <point x="-105" y="-269" type="qcurve"/>
      <point x="-86" y="-277"/>
      <point x="-39" y="-291"/>
      <point x="-13" y="-291" type="qcurve"/>
      <point x="17" y="-291"/>
      <point x="61" y="-263"/>
      <point x="92" y="-212"/>
      <point x="113" y="-140"/>
      <point x="121" y="-97" type="qcurve"/>
      <point x="323" y="1049" type="line"/>
      <point x="636" y="1081" type="line"/>
      <point x="430" y="-89" type="line"/>
      <point x="410" y="-201"/>
      <point x="354" y="-368"/>
      <point x="259" y="-476"/>
      <point x="112" y="-524"/>
      <point x="0" y="-517" type="qcurve"/>
      <point x="-37" y="-515"/>
      <point x="-101" y="-502"/>
      <point x="-152" y="-487"/>
      <point x="-188" y="-471"/>
      <point x="-198" y="-465" type="qcurve"/>
    </contour>
    <contour>
      <point x="397" y="1500" type="line"/>
      <point x="715" y="1500" type="line"/>
      <point x="674" y="1269" type="line"/>
      <point x="356" y="1269" type="line"/>
    </contour>
  </outline>
</glyph>
<glyph name="q" format="1">
  <advance width="1200"/>
  <unicode hex="0071"/>
  <outline>
    <contour>
      <point x="876" y="891" type="line"/>
      <point x="846" y="895"/>
      <point x="782" y="900"/>
      <point x="752" y="900" type="qcurve"/>
      <point x="682" y="900"/>
      <point x="581" y="832"/>
      <point x="514" y="724"/>
      <point x="477" y="591"/>
      <point x="470" y="526" type="qcurve"/>
      <point x="461" y="442"/>
      <point x="467" y="323"/>
      <point x="493" y="247"/>
      <point x="535" y="206"/>
      <point x="563" y="200" type="qcurve"/>
      <point x="584" y="195"/>
      <point x="634" y="206"/>
      <point x="688" y="231"/>
      <point x="743" y="267"/>
      <point x="769" y="288" type="qcurve"/>
    </contour>
    <contour>
      <point x="742" y="136" type="line"/>
      <point x="600" y="-8" type="line"/>
      <point x="575" y="-13"/>
      <point x="530" y="-19"/>
      <point x="507" y="-17" type="qcurve"/>
      <point x="420" y="-11"/>
      <point x="278" y="66"/>
      <point x="184" y="203"/>
      <point x="146" y="400"/>
      <point x="162" y="526" type="qcurve"/>
      <point x="180" y="664"/>
      <point x="282" y="884"/>
      <point x="443" y="1036"/>
      <point x="661" y="1117"/>
      <point x="794" y="1117" type="qcurve"/>
      <point x="839" y="1117"/>
      <point x="954" y="1101"/>
      <point x="1070" y="1077"/>
      <point x="1176" y="1050"/>
      <point x="1213" y="1038" type="qcurve"/>
      <point x="941" y="-500" type="line"/>
      <point x="630" y="-500" type="line"/>
    </contour>
  </outline>
</glyph>
<glyph name="t" format="1">
  <advance width="800"/>
  <unicode hex="0074"/>
  <outline>
    <contour>
      <point x="533" y="388" type="line"/>
      <point x="525" y="355"/>
      <point x="523" y="295"/>
      <point x="532" y="247"/>
      <point x="551" y="214"/>
      <point x="564" y="208" type="qcurve"/>
      <point x="586" y="198"/>
      <point x="626" y="204"/>
      <point x="642" y="212" type="qcurve"/>
      <point x="660" y="221"/>
      <point x="676" y="235" type="qcurve"/>
      <point x="742" y="72" type="line"/>
      <point x="700" y="31"/>
      <point x="564" y="-21"/>
      <point x="476" y="-16" type="qcurve"/>
      <point x="377" y="-10"/>
      <point x="267" y="57"/>
      <point x="219" y="169"/>
      <point x="221" y="320"/>
      <point x="234" y="410" type="qcurve"/>
      <point x="316" y="876" type="line"/>
      <point x="166" y="876" type="line"/>
      <point x="205" y="1100" type="line"/>
      <point x="355" y="1100" type="line"/>
      <point x="387" y="1279" type="line"/>
      <point x="718" y="1463" type="line"/>
      <point x="654" y="1100" type="line"/>
      <point x="944" y="1100" type="line"/>
      <point x="878" y="876" type="line"/>
      <point x="619" y="876" type="line"/>
    </contour>
  </outline>
</glyph>
<glyph name="w" format="1">
  <advance width="1500"/>
  <unicode hex="0077"/>
  <outline>
    <contour>
      <point x="1095" y="800" type="line"/>
      <point x="1076" y="272" type="line"/>
      <point x="1230" y="800" type="line"/>
      <point x="1352" y="1094" type="line"/>
      <point x="1653" y="1124" type="line"/>
      <point x="1144" y="0" type="line"/>
      <point x="893" y="0" type="line"/>
      <point x="870" y="300" type="line"/>
      <point x="895" y="820" type="line"/>
      <point x="730" y="300" type="line"/>
      <point x="610" y="0" type="line"/>
      <point x="359" y="0" type="line"/>
      <point x="250" y="1093" type="line"/>
      <point x="552" y="1126" type="line"/>
      <point x="569" y="800" type="line"/>
      <point x="541" y="270" type="line"/>
      <point x="705" y="800" type="line"/>
      <point x="831" y="1100" type="line"/>
      <point x="1078" y="1100" type="line"/>
    </contour>
  </outline>
</glyph>
<glyph name="braceright" format="1">
  <advance width="1200"/>
  <unicode hex="007D"/>
  <outline>
    <contour>
      <point x="454" y="1445" type="line"/>
      <point x="490" y="1461"/>
      <point x="556" y="1487"/>
      <point x="627" y="1506"/>
      <point x="710" y="1517"/>
      <point x="762" y="1517" type="qcurve"/>
      <point x="860" y="1517"/>
      <point x="989" y="1451"/>
      <point x="1060" y="1337"/>
      <point x="1077" y="1185"/>
      <point x="1062" y="1099" type="qcurve"/>
      <point x="1021" y="864" type="line"/>
      <point x="1005" y="776"/>
      <point x="1018" y="670"/>
      <point x="1062" y="660" type="qcurve"/>
      <point x="1196" y="640" type="line"/>
      <point x="1165" y="462" type="line"/>
      <point x="1023" y="442" type="line"/>
      <point x="975" y="432"/>
      <point x="926" y="327"/>
      <point x="910" y="238" type="qcurve"/>
      <point x="868" y="-2" type="line"/>
      <point x="850" y="-102"/>
      <point x="794" y="-263"/>
      <point x="691" y="-372"/>
      <point x="529" y="-426"/>
      <point x="405" y="-420" type="qcurve"/>
      <point x="353" y="-417"/>
      <point x="279" y="-406"/>
      <point x="220" y="-388"/>
      <point x="168" y="-363"/>
      <point x="138" y="-348" type="qcurve"/>
      <point x="267" y="-163" type="line"/>
      <point x="282" y="-173"/>
      <point x="320" y="-194"/>
      <point x="359" y="-208"/>
      <point x="398" y="-213"/>
      <point x="415" y="-208" type="qcurve"/>
      <point x="446" y="-198"/>
      <point x="488" y="-167"/>
      <point x="515" y="-119"/>
      <point x="533" y="-50"/>
      <point x="541" y="-2" type="qcurve"/>
      <point x="583" y="238" type="line"/>
      <point x="596" y="311"/>
      <point x="645" y="418"/>
      <point x="706" y="493"/>
      <point x="772" y="538"/>
      <point x="802" y="550" type="qcurve"/>
      <point x="779" y="570"/>
      <point x="735" y="643"/>
      <point x="702" y="732"/>
      <point x="687" y="825"/>
      <point x="694" y="864" type="qcurve"/>
      <point x="735" y="1099" type="line"/>
      <point x="744" y="1147"/>
      <point x="755" y="1218"/>
      <point x="747" y="1267"/>
      <point x="716" y="1297"/>
      <point x="682" y="1305" type="qcurve"/>
      <point x="665" y="1309"/>
      <point x="623" y="1304"/>
      <point x="580" y="1290"/>
      <point x="536" y="1270"/>
      <point x="518" y="1260" type="qcurve"/>
    </contour>
  </outline>
</glyph>
<glyph name="asciitilde" format="1">
  <advance width="1500"/>
  <unicode hex="007E"/>
  <outline>
    <contour>
      <point x="204" y="441" type="line"/>
      <point x="220" y="519"/>
      <point x="294" y="670"/>
      <point x="414" y="785"/>
      <point x="579" y="847"/>
      <point x="687" y="835" type="qcurve"/>
      <point x="741" y="829"/>
      <point x="820" y="808"/>
      <point x="880" y="782"/>
      <point x="926" y="754"/>
      <point x="970" y="728"/>
      <point x="1016" y="708"/>
      <point x="1046" y="703" type="qcurve"/>
      <point x="1115" y="692"/>
      <point x="1208" y="746"/>
      <point x="1231" y="818" type="qcurve"/>
      <point x="1503" y="802" type="line"/>
      <point x="1488" y="720"/>
      <point x="1417" y="562"/>
      <point x="1300" y="445"/>
      <point x="1135" y="385"/>
      <point x="1028" y="400" type="qcurve"/>
      <point x="953" y="411"/>
      <point x="848" y="454"/>
      <point x="769" y="497"/>
      <point x="704" y="531"/>
      <point x="670" y="532" type="qcurve"/>
      <point x="643" y="533"/>
      <point x="594" y="527"/>
      <point x="551" y="506"/>
      <point x="515" y="464"/>
      <point x="502" y="430" type="qcurve"/>
    </contour>
  </outline>
</glyph>
<glyph name="exclamdown" format="1">
  <advance width="700"/>
  <unicode hex="00A1"/>
  <outline>
    <contour>
      <point x="130" y="-403" type="line"/>
      <point x="316" y="653" type="line"/>
      <point x="622" y="688" type="line"/>
      <point x="430" y="-403" type="line"/>
    </contour>
    <contour>
      <point x="657" y="960" type="qcurve"/>
      <point x="655" y="930"/>
      <point x="623" y="873"/>
      <point x="574" y="831"/>
      <point x="514" y="809"/>
      <point x="484" y="812" type="qcurve"/>
      <point x="424" y="819"/>
      <point x="358" y="899"/>
      <point x="362" y="960" type="qcurve"/>
      <point x="364" y="991"/>
      <point x="396" y="1047"/>
      <point x="445" y="1089"/>
      <point x="505" y="1113"/>
      <point x="535" y="1111" type="qcurve"/>
      <point x="566" y="1109"/>
      <point x="614" y="1083"/>
      <point x="645" y="1043"/>
      <point x="659" y="990"/>
    </contour>
  </outline>
</glyph>
<glyph name="section" format="1">
  <advance width="1000"/>
  <unicode hex="00A7"/>
  <outline>
    <contour>
      <point x="998" y="1249" type="line"/>
      <point x="974" y="1261"/>
      <point x="930" y="1286"/>
      <point x="879" y="1306"/>
      <point x="819" y="1318"/>
      <point x="779" y="1318" type="qcurve"/>
      <point x="738" y="1318"/>
      <point x="672" y="1303"/>
      <point x="625" y="1270"/>
      <point x="599" y="1214"/>
      <point x="599" y="1174" type="qcurve"/>
      <point x="599" y="1132"/>
      <point x="621" y="1072"/>
      <point x="660" y="1024"/>
      <point x="713" y="982"/>
      <point x="745" y="958" type="qcurve"/>
      <point x="795" y="920"/>
      <point x="890" y="839"/>
      <point x="961" y="738"/>
      <point x="1000" y="611"/>
      <point x="994" y="527" type="qcurve"/>
      <point x="991" y="479"/>
      <point x="956" y="389"/>
      <point x="894" y="312"/>
      <point x="807" y="252"/>
      <point x="751" y="234" type="qcurve"/>
      <point x="814" y="176"/>
      <point x="877" y="38"/>
      <point x="874" y="-46" type="qcurve"/>
      <point x="871" y="-130"/>
      <point x="791" y="-266"/>
      <point x="656" y="-360"/>
      <point x="475" y="-406"/>
      <point x="370" y="-400" type="qcurve"/>
      <point x="323" y="-397"/>
      <point x="236" y="-386"/>
      <point x="154" y="-364"/>
      <point x="74" y="-328"/>
      <point x="34" y="-299" type="qcurve"/>
      <point x="170" y="-129" type="line"/>
      <point x="207" y="-152"/>
      <point x="269" y="-180"/>
      <point x="322" y="-195"/>
      <point x="367" y="-200"/>
      <point x="388" y="-200" type="qcurve"/>
      <point x="419" y="-200"/>
      <point x="484" y="-184"/>
      <point x="537" y="-150"/>
      <point x="569" y="-94"/>
      <point x="568" y="-54" type="qcurve"/>
      <point x="566" y="-11"/>
      <point x="543" y="51"/>
      <point x="504" y="100"/>
      <point x="452" y="140"/>
      <point x="422" y="163" type="qcurve"/>
      <point x="371" y="202"/>
      <point x="279" y="281"/>
      <point x="211" y="380"/>
      <point x="172" y="507"/>
      <point x="173" y="593" type="qcurve"/>
      <point x="173" y="644"/>
      <point x="217" y="741"/>
      <point x="286" y="820"/>
      <point x="372" y="875"/>
      <point x="416" y="885" type="qcurve"/>
      <point x="352" y="945"/>
      <point x="290" y="1081"/>
      <point x="293" y="1166" type="qcurve"/>
      <point x="296" y="1247"/>
      <point x="370" y="1382"/>
      <point x="502" y="1476"/>
      <point x="686" y="1523"/>
      <point x="797" y="1517" type="qcurve"/>
      <point x="843" y="1514"/>
      <point x="929" y="1504"/>
      <point x="1011" y="1483"/>
      <point x="1092" y="1447"/>
      <point x="1133" y="1419" type="qcurve"/>
    </contour>
    <contour>
      <point x="569" y="747" type="line"/>
      <point x="555" y="737" type="line"/>
      <point x="534" y="723"/>
      <point x="500" y="696"/>
      <point x="476" y="663"/>
      <point x="463" y="622"/>
      <point x="463" y="595" type="qcurve"/>
      <point x="463" y="559"/>
      <point x="486" y="497"/>
      <point x="521" y="445"/>
      <point x="561" y="403"/>
      <point x="579" y="387" type="qcurve"/>
      <point x="598" y="372" type="line"/>
      <point x="612" y="383" type="line"/>
      <point x="624" y="392"/>
      <point x="655" y="417"/>
      <point x="683" y="451"/>
      <point x="702" y="496"/>
      <point x="704" y="525" type="qcurve"/>
      <point x="706" y="558"/>
      <point x="688" y="616"/>
      <point x="656" y="667"/>
      <point x="613" y="711"/>
      <point x="589" y="731" type="qcurve"/>
    </contour>
  </outline>
</glyph>
<glyph name="registered" format="1">
  <advance width="1100"/>
  <unicode hex="00AE"/>
  <outline>
    <contour>
      <point x="816" y="1517" type="qcurve"/>
      <point x="912" y="1511"/>
      <point x="1061" y="1439"/>
      <point x="1160" y="1316"/>
      <point x="1208" y="1149"/>
      <point x="1203" y="1047" type="qcurve"/>
      <point x="1198" y="948"/>
      <point x="1097" y="770"/>
      <point x="940" y="639"/>
      <point x="747" y="569"/>
      <point x="650" y="577" type="qcurve"/>
      <point x="548" y="586"/>
      <point x="397" y="660"/>
      <point x="299" y="781"/>
      <point x="257" y="947"/>
      <point x="263" y="1047" type="qcurve"/>
      <point x="269" y="1146"/>
      <point x="366" y="1322"/>
      <point x="519" y="1452"/>
      <point x="712" y="1523"/>
    </contour>
    <contour>
      <point x="794" y="1395" type="qcurve"/>
      <point x="717" y="1400"/>
      <point x="573" y="1347"/>
      <point x="461" y="1251"/>
      <point x="389" y="1119"/>
      <point x="384" y="1046" type="qcurve"/>
      <point x="379" y="972"/>
      <point x="411" y="849"/>
      <point x="483" y="759"/>
      <point x="595" y="705"/>
      <point x="670" y="698" type="qcurve"/>
      <point x="742" y="692"/>
      <point x="885" y="744"/>
      <point x="1001" y="842"/>
      <point x="1077" y="973"/>
      <point x="1081" y="1046" type="qcurve"/>
      <point x="1084" y="1122"/>
      <point x="1049" y="1246"/>
      <point x="975" y="1337"/>
      <point x="865" y="1390"/>
    </contour>
    <contour>
      <point x="722" y="1174" type="line"/>
      <point x="704" y="1065" type="line"/>
      <point x="724" y="1065" type="line"/>
      <point x="746" y="1065"/>
      <point x="782" y="1077"/>
      <point x="807" y="1100"/>
      <point x="822" y="1132"/>
      <point x="823" y="1153" type="qcurve"/>
      <point x="824" y="1176"/>
      <point x="812" y="1207"/>
      <point x="791" y="1225"/>
      <point x="766" y="1232"/>
      <point x="754" y="1232" type="qcurve"/>
      <point x="748" y="1232"/>
      <point x="740" y="1232"/>
      <point x="734" y="1232"/>
      <point x="730" y="1232"/>
      <point x="727" y="1231" type="qcurve"/>
    </contour>
    <contour>
      <point x="705" y="987" type="line"/>
      <point x="703" y="991"/>
      <point x="694" y="993"/>
      <point x="691" y="993" type="qcurve"/>
      <point x="659" y="800" type="line"/>
      <point x="551" y="800" type="line"/>
      <point x="622" y="1218" type="line"/>
      <point x="622" y="1291" type="line"/>
      <point x="637" y="1292"/>
      <point x="672" y="1296"/>
      <point x="709" y="1298"/>
      <point x="744" y="1300"/>
      <point x="758" y="1300" type="qcurve"/>
      <point x="798" y="1300"/>
      <point x="863" y="1282"/>
      <point x="909" y="1247"/>
      <point x="932" y="1193"/>
      <point x="929" y="1158" type="qcurve"/>
      <point x="928" y="1133"/>
      <point x="913" y="1093"/>
      <point x="890" y="1062"/>
      <point x="860" y="1038"/>
      <point x="826" y="1020"/>
      <point x="790" y="1008"/>
      <point x="772" y="1004" type="qcurve"/>
      <point x="815" y="993" type="line"/>
      <point x="921" y="800" type="line"/>
      <point x="804" y="800" type="line"/>
    </contour>
  </outline>
</glyph>
<glyph name="macron" format="1">
  <advance width="1100"/>
  <unicode hex="00AF"/>
  <outline>
    <contour>
      <point x="464" y="1500" type="line"/>
      <point x="1164" y="1500" type="line"/>
      <point x="1126" y="1282" type="line"/>
      <point x="426" y="1282" type="line"/>
    </contour>
  </outline>
</glyph>
<glyph name="degree" format="1">
  <advance width="600"/>
  <unicode hex="00B0"/>
  <outline>
    <contour>
      <point x="566" y="1517" type="qcurve"/>
      <point x="625" y="1511"/>
      <point x="721" y="1467"/>
      <point x="788" y="1397"/>
      <point x="820" y="1304"/>
      <point x="814" y="1247" type="qcurve"/>
      <point x="808" y="1192"/>
      <point x="746" y="1088"/>
      <point x="650" y="1010"/>
      <point x="532" y="969"/>
      <point x="471" y="977" type="qcurve"/>
      <point x="342" y="994"/>
      <point x="217" y="1137"/>
      <point x="222" y="1247" type="qcurve"/>
      <point x="224" y="1304"/>
      <point x="286" y="1407"/>
      <point x="384" y="1484"/>
      <point x="505" y="1524"/>
    </contour>
    <contour>
      <point x="540" y="1349" type="qcurve"/>
      <point x="516" y="1352"/>
      <point x="469" y="1336"/>
      <point x="431" y="1307"/>
      <point x="408" y="1268"/>
      <point x="407" y="1246" type="qcurve"/>
      <point x="405" y="1203"/>
      <point x="452" y="1149"/>
      <point x="503" y="1142" type="qcurve"/>
      <point x="526" y="1139"/>
      <point x="571" y="1155"/>
      <point x="608" y="1185"/>
      <point x="632" y="1225"/>
      <point x="634" y="1246" type="qcurve"/>
      <point x="639" y="1290"/>
      <point x="585" y="1344"/>
    </contour>
  </outline>
</glyph>
<glyph name="guillemotright" format="1">
  <advance width="1400"/>
  <unicode hex="00BB"/>
  <outline>
    <contour>
      <point x="886" y="619" type="line"/>
      <point x="860" y="476" type="line"/>
      <point x="218" y="-13" type="line"/>
      <point x="166" y="224" type="line"/>
      <point x="552" y="517" type="line"/>
      <point x="631" y="550" type="line"/>
      <point x="562" y="582" type="line"/>
      <point x="284" y="880" type="line"/>
      <point x="413" y="1106" type="line"/>
    </contour>
    <contour>
      <point x="1386" y="619" type="line"/>
      <point x="1360" y="476" type="line"/>
      <point x="718" y="-13" type="line"/>
      <point x="666" y="224" type="line"/>
      <point x="1052" y="517" type="line"/>
      <point x="1131" y="550" type="line"/>
      <point x="1062" y="582" type="line"/>
      <point x="784" y="880" type="line"/>
      <point x="913" y="1106" type="line"/>
    </contour>
  </outline>
</glyph>
<glyph name="onequarter" format="1">
  <advance width="1500"/>
  <unicode hex="00BC"/>
  <outline>
    <contour>
      <point x="474" y="0" type="line"/>
      <point x="289" y="0" type="line"/>
      <point x="1064" y="1500" type="line"/>
      <point x="1240" y="1500" type="line"/>
    </contour>
    <contour>
      <point x="369" y="1162" type="line"/>
      <point x="438" y="1343" type="line"/>
      <point x="300" y="1208" type="line"/>
      <point x="252" y="1171" type="line"/>
      <point x="190" y="1263" type="line"/>
      <point x="469" y="1484" type="line"/>
      <point x="581" y="1468" type="line"/>
      <point x="467" y="822" type="line"/>
      <point x="588" y="822" type="line"/>
      <point x="571" y="722" type="line"/>
      <point x="170" y="722" type="line"/>
      <point x="187" y="822" type="line"/>
      <point x="309" y="822" type="line"/>
    </contour>
    <contour>
      <point x="1424" y="188" type="line"/>
      <point x="1335" y="188" type="line"/>
      <point x="1309" y="38" type="line"/>
      <point x="1155" y="38" type="line"/>
      <point x="1181" y="188" type="line"/>
      <point x="886" y="188" type="line"/>
      <point x="904" y="288" type="line"/>
      <point x="1242" y="800" type="line"/>
      <point x="1392" y="784" type="line"/>
      <point x="1164" y="419" type="line"/>
      <point x="1054" y="288" type="line"/>
      <point x="1199" y="288" type="line"/>
      <point x="1225" y="437" type="line"/>
      <point x="1377" y="424" type="line"/>
      <point x="1353" y="288" type="line"/>
      <point x="1453" y="288" type="line"/>
    </contour>
  </outline>
</glyph>
<glyph name="threequarters" format="1">
  <advance width="1500"/>
  <unicode hex="00BE"/>
  <outline>
    <contour>
      <point x="474" y="0" type="line"/>
      <point x="289" y="0" type="line"/>
      <point x="1064" y="1500" type="line"/>
      <point x="1240" y="1500" type="line"/>
    </contour>
    <contour>
      <point x="239" y="1191" type="line"/>
      <point x="264" y="1207"/>
      <point x="341" y="1254"/>
      <point x="424" y="1312"/>
      <point x="499" y="1376"/>
      <point x="522" y="1409" type="qcurve"/>
      <point x="385" y="1372" type="line"/>
      <point x="220" y="1372" type="line"/>
      <point x="248" y="1472" type="line"/>
      <point x="662" y="1472" type="line"/>
      <point x="647" y="1385" type="line"/>
      <point x="626" y="1355"/>
      <point x="556" y="1277"/>
      <point x="514" y="1248" type="qcurve"/>
      <point x="428" y="1206" type="line"/>
      <point x="473" y="1208"/>
      <point x="550" y="1181"/>
      <point x="604" y="1129"/>
      <point x="631" y="1054"/>
      <point x="627" y="1008" type="qcurve"/>
      <point x="620" y="931"/>
      <point x="525" y="823"/>
      <point x="379" y="754"/>
      <point x="196" y="722"/>
      <point x="100" y="722" type="qcurve"/>
      <point x="118" y="822" type="line"/>
      <point x="182" y="822"/>
      <point x="305" y="848"/>
      <point x="401" y="895"/>
      <point x="461" y="962"/>
      <point x="462" y="1003" type="qcurve"/>
      <point x="463" y="1032"/>
      <point x="441" y="1072"/>
      <point x="404" y="1096"/>
      <point x="354" y="1107"/>
      <point x="327" y="1107" type="qcurve"/>
      <point x="319" y="1107"/>
      <point x="291" y="1106"/>
      <point x="259" y="1104"/>
      <point x="231" y="1102"/>
      <point x="224" y="1102" type="qcurve"/>
    </contour>
    <contour>
      <point x="1424" y="188" type="line"/>
      <point x="1335" y="188" type="line"/>
      <point x="1309" y="38" type="line"/>
      <point x="1155" y="38" type="line"/>
      <point x="1181" y="188" type="line"/>
      <point x="886" y="188" type="line"/>
      <point x="904" y="288" type="line"/>
      <point x="1242" y="800" type="line"/>
      <point x="1392" y="784" type="line"/>
      <point x="1164" y="419" type="line"/>
      <point x="1054" y="288" type="line"/>
      <point x="1199" y="288" type="line"/>
      <point x="1225" y="437" type="line"/>
      <point x="1377" y="424" type="line"/>
      <point x="1353" y="288" type="line"/>
      <point x="1453" y="288" type="line"/>
    </contour>
  </outline>
</glyph>
<glyph name="Atilde" format="1">
  <advance width="1300"/>
  <unicode hex="00C3"/>
  <outline>
    <contour>
      <point x="20" y="0" type="line"/>
      <point x="644" y="1284" type="line"/>
      <point x="716" y="1494" type="line"/>
      <point x="1071" y="1525" type="line"/>
      <point x="1282" y="0" type="line"/>
      <point x="955" y="0" type="line"/>
      <point x="914" y="427" type="line"/>
      <point x="522" y="427" type="line"/>
      <point x="334" y="0" type="line"/>
    </contour>
    <contour>
      <point x="882" y="1361" type="line"/>
      <point x="764" y="990" type="line"/>
      <point x="619" y="646" type="line"/>
      <point x="893" y="646" type="line"/>
      <point x="869" y="990" type="line"/>
    </contour>
    <contour>
      <point x="523" y="1627" type="line"/>
      <point x="530" y="1669"/>
      <point x="575" y="1766"/>
      <point x="649" y="1844"/>
      <point x="752" y="1891"/>
      <point x="819" y="1884" type="qcurve"/>
      <point x="868" y="1879"/>
      <point x="931" y="1850"/>
      <point x="980" y="1820"/>
      <point x="1025" y="1800"/>
      <point x="1055" y="1804" type="qcurve"/>
      <point x="1097" y="1809"/>
      <point x="1139" y="1857"/>
      <point x="1152" y="1892" type="qcurve"/>
      <point x="1317" y="1882" type="line"/>
      <point x="1306" y="1828"/>
      <point x="1260" y="1730"/>
      <point x="1188" y="1657"/>
      <point x="1089" y="1617"/>
      <point x="1026" y="1620" type="qcurve"/>
      <point x="981" y="1622"/>
      <point x="919" y="1651"/>
      <point x="870" y="1682"/>
      <point x="822" y="1704"/>
      <point x="791" y="1700" type="qcurve"/>
      <point x="756" y="1695"/>
      <point x="717" y="1650"/>
      <point x="704" y="1620" type="qcurve"/>
    </contour>
  </outline>
</glyph>
<glyph name="Aring" format="1">
  <advance width="1300"/>
  <unicode hex="00C5"/>
  <outline>
    <contour>
      <point x="20" y="0" type="line"/>
      <point x="644" y="1284" type="line"/>
      <point x="716" y="1494" type="line"/>
      <point x="1071" y="1525" type="line"/>
      <point x="1282" y="0" type="line"/>
      <point x="955" y="0" type="line"/>
      <point x="914" y="427" type="line"/>
      <point x="522" y="427" type="line"/>
      <point x="334" y="0" type="line"/>
    </contour>
    <contour>
      <point x="882" y="1361" type="line"/>
      <point x="764" y="990" type="line"/>
      <point x="619" y="646" type="line"/>
      <point x="893" y="646" type="line"/>
      <point x="869" y="990" type="line"/>
    </contour>
    <contour>
      <point x="979" y="1927" type="qcurve"/>
      <point x="1041" y="1920"/>
      <point x="1143" y="1874"/>
      <point x="1213" y="1800"/>
      <point x="1247" y="1701"/>
      <point x="1241" y="1641" type="qcurve"/>
      <point x="1235" y="1582"/>
      <point x="1169" y="1472"/>
      <point x="1068" y="1390"/>
      <point x="943" y="1346"/>
      <point x="878" y="1355" type="qcurve"/>
      <point x="741" y="1373"/>
      <point x="609" y="1523"/>
      <point x="614" y="1641" type="qcurve"/>
      <point x="616" y="1701"/>
      <point x="682" y="1811"/>
      <point x="786" y="1892"/>
      <point x="914" y="1934"/>
    </contour>
    <contour>
      <point x="948" y="1737" type="qcurve"/>
      <point x="926" y="1739"/>
      <point x="882" y="1725"/>
      <point x="847" y="1698"/>
      <point x="825" y="1661"/>
      <point x="824" y="1640" type="qcurve"/>
      <point x="823" y="1599"/>
      <point x="867" y="1549"/>
      <point x="915" y="1542" type="qcurve"/>
      <point x="936" y="1539"/>
      <point x="978" y="1554"/>
      <point x="1013" y="1582"/>
      <point x="1035" y="1620"/>
      <point x="1037" y="1640" type="qcurve"/>
      <point x="1041" y="1682"/>
      <point x="992" y="1732"/>
    </contour>
  </outline>
</glyph>
<glyph name="AE" format="1">
  <advance width="1700"/>
  <unicode hex="00C6"/>
  <outline>
    <contour>
      <point x="1703" y="228" type="line"/>
      <point x="1635" y="0" type="line"/>
      <point x="697" y="0" type="line"/>
      <point x="755" y="231" type="line"/>
      <point x="790" y="427" type="line"/>
      <point x="547" y="427" type="line"/>
      <point x="301" y="0" type="line"/>
      <point x="6" y="0" type="line"/>
      <point x="746" y="1280" type="line"/>
      <point x="834" y="1500" type="line"/>
      <point x="1890" y="1500" type="line"/>
      <point x="1850" y="1272" type="line"/>
      <point x="1254" y="1272" type="line"/>
      <point x="1246" y="1133" type="line"/>
      <point x="1208" y="916" type="line"/>
      <point x="1719" y="916" type="line"/>
      <point x="1681" y="703" type="line"/>
      <point x="1170" y="703" type="line"/>
      <point x="1110" y="360" type="line"/>
      <point x="1079" y="228" type="line"/>
    </contour>
    <contour>
      <point x="828" y="645" type="line"/>
      <point x="926" y="1200" type="line"/>
      <point x="830" y="939" type="line"/>
      <point x="673" y="645" type="line"/>
    </contour>
  </outline>
</glyph>
<glyph name="Igrave" format="1">
  <advance width="600"/>
  <unicode hex="00CC"/>
  <outline>
    <contour>
      <point x="126" y="0" type="line"/>
      <point x="348" y="1263" type="line"/>
      <point x="356" y="1494" type="line"/>
      <point x="731" y="1525" type="line"/>
      <point x="463" y="0" type="line"/>
    </contour>
    <contour>
      <point x="686" y="1600" type="line"/>
      <point x="428" y="1600" type="line"/>
      <point x="215" y="1891" type="line"/>
      <point x="568" y="1925" type="line"/>
    </contour>
  </outline>
</glyph>
<glyph name="Icircumflex" format="1">
  <advance width="600"/>
  <unicode hex="00CE"/>
  <outline>
    <contour>
      <point x="126" y="0" type="line"/>
      <point x="348" y="1263" type="line"/>
      <point x="356" y="1494" type="line"/>
      <point x="731" y="1525" type="line"/>
      <point x="463" y="0" type="line"/>
    </contour>
    <contour>
      <point x="887" y="1620" type="line"/>
      <point x="672" y="1620" type="line"/>
      <point x="620" y="1723" type="line"/>
      <point x="612" y="1850" type="line"/>
      <point x="560" y="1723" type="line"/>
      <point x="461" y="1620" type="line"/>
      <point x="231" y="1620" type="line"/>
      <point x="452" y="1895" type="line"/>
      <point x="753" y="1924" type="line"/>
    </contour>
  </outline>
</glyph>
<glyph name="Idieresis" format="1">
  <advance width="600"/>
  <unicode hex="00CF"/>
  <outline>
    <contour>
      <point x="126" y="0" type="line"/>
      <point x="348" y="1263" type="line"/>
      <point x="356" y="1494" type="line"/>
      <point x="731" y="1525" type="line"/>
      <point x="463" y="0" type="line"/>
    </contour>
    <contour>
      <point x="237" y="1634" type="line"/>
      <point x="513" y="1634" type="line"/>
      <point x="560" y="1900" type="line"/>
      <point x="284" y="1900" type="line"/>
    </contour>
    <contour>
      <point x="637" y="1634" type="line"/>
      <point x="913" y="1634" type="line"/>
      <point x="960" y="1900" type="line"/>
      <point x="684" y="1900" type="line"/>
    </contour>
  </outline>
</glyph>
<glyph name="Ntilde" format="1">
  <advance width="1500"/>
  <unicode hex="00D1"/>
  <outline>
    <contour>
      <point x="1577" y="1527" type="line"/>
      <point x="1308" y="0" type="line"/>
      <point x="1007" y="0" type="line"/>
      <point x="712" y="700" type="line"/>
      <point x="624" y="1038" type="line"/>
      <point x="617" y="1037" type="line"/>
      <point x="594" y="691" type="line"/>
      <point x="473" y="0" type="line"/>
      <point x="146" y="0" type="line"/>
      <point x="368" y="1263" type="line"/>
      <point x="376" y="1494" type="line"/>
      <point x="722" y="1524" type="line"/>
      <point x="1021" y="810" type="line"/>
      <point x="1107" y="449" type="line"/>
      <point x="1113" y="450" type="line"/>
      <point x="1129" y="816" type="line"/>
      <point x="1249" y="1493" type="line"/>
    </contour>
    <contour>
      <point x="688" y="1627" type="line"/>
      <point x="695" y="1669"/>
      <point x="740" y="1766"/>
      <point x="814" y="1844"/>
      <point x="917" y="1891"/>
      <point x="984" y="1884" type="qcurve"/>
      <point x="1033" y="1879"/>
      <point x="1096" y="1850"/>
      <point x="1145" y="1820"/>
      <point x="1190" y="1800"/>
      <point x="1220" y="1804" type="qcurve"/>
      <point x="1262" y="1809"/>
      <point x="1304" y="1857"/>
      <point x="1317" y="1892" type="qcurve"/>
      <point x="1482" y="1882" type="line"/>
      <point x="1471" y="1828"/>
      <point x="1425" y="1730"/>
      <point x="1353" y="1657"/>
      <point x="1254" y="1617"/>
      <point x="1191" y="1620" type="qcurve"/>
      <point x="1146" y="1622"/>
      <point x="1084" y="1651"/>
      <point x="1035" y="1682"/>
      <point x="987" y="1704"/>
      <point x="956" y="1700" type="qcurve"/>
      <point x="921" y="1695"/>
      <point x="882" y="1650"/>
      <point x="869" y="1620" type="qcurve"/>
    </contour>
  </outline>
</glyph>
<glyph name="multiply" format="1">
  <advance width="1600"/>
  <unicode hex="00D7"/>
  <outline>
    <contour>
      <point x="490" y="119" type="line"/>
      <point x="330" y="269" type="line"/>
      <point x="760" y="633" type="line"/>
      <point x="458" y="998" type="line"/>
      <point x="672" y="1149" type="line"/>
      <point x="920" y="847" type="line"/>
      <point x="969" y="729" type="line"/>
      <point x="1012" y="847" type="line"/>
      <point x="1365" y="1149" type="line"/>
      <point x="1525" y="998" type="line"/>
      <point x="1096" y="633" type="line"/>
      <point x="1397" y="269" type="line"/>
      <point x="1183" y="119" type="line"/>
      <point x="936" y="419" type="line"/>
      <point x="887" y="538" type="line"/>
      <point x="844" y="419" type="line"/>
    </contour>
  </outline>
</glyph>
<glyph name="Thorn" format="1">
  <advance width="1300"/>
  <unicode hex="00DE"/>
  <outline>
    <contour>
      <point x="384" y="1500" type="line"/>
      <point x="735" y="1500" type="line"/>
      <point x="702" y="1311" type="line"/>
      <point x="816" y="1311" type="line"/>
      <point x="856" y="1305"/>
      <point x="952" y="1285"/>
      <point x="1048" y="1247"/>
      <point x="1136" y="1187"/>
      <point x="1201" y="1095"/>
      <point x="1236" y="968"/>
      <point x="1230" y="882" type="qcurve"/>
      <point x="1223" y="776"/>
      <point x="1151" y="589"/>
      <point x="1004" y="451"/>
      <point x="776" y="375"/>
      <point x="614" y="381" type="qcurve"/>
      <point x="538" y="381" type="line"/>
      <point x="471" y="0" type="line"/>
      <point x="142" y="0" type="line"/>
      <point x="365" y="1267" type="line"/>
    </contour>
    <contour>
      <point x="663" y="1093" type="line"/>
      <point x="577" y="605" type="line"/>
      <point x="681" y="605" type="line"/>
      <point x="741" y="605"/>
      <point x="825" y="640"/>
      <point x="881" y="710"/>
      <point x="913" y="814"/>
      <point x="921" y="882" type="qcurve"/>
      <point x="927" y="933"/>
      <point x="900" y="1011"/>
      <point x="849" y="1065"/>
      <point x="782" y="1093"/>
      <point x="748" y="1093" type="qcurve"/>
    </contour>
  </outline>
</glyph>
<glyph name="germandbls" format="1">
  <advance width="1400"/>
  <unicode hex="00DF"/>
  <outline>
    <contour>
      <point x="466" y="-21" type="line"/>
      <point x="140" y="5" type="line"/>
      <point x="329" y="1073" type="line"/>
      <point x="347" y="1188"/>
      <point x="441" y="1353"/>
      <point x="584" y="1455"/>
      <point x="768" y="1496"/>
      <point x="875" y="1489" type="qcurve"/>
      <point x="959" y="1483"/>
      <point x="1103" y="1437"/>
      <point x="1207" y="1350"/>
      <point x="1261" y="1218"/>
      <point x="1256" y="1127" type="qcurve"/>
      <point x="1253" y="1070"/>
      <point x="1211" y="972"/>
      <point x="1141" y="892"/>
      <point x="1047" y="832"/>
      <point x="992" y="811" type="qcurve"/>
      <point x="1041" y="795"/>
      <point x="1134" y="730"/>
      <point x="1203" y="640"/>
      <point x="1240" y="529"/>
      <point x="1234" y="466" type="qcurve"/>
      <point x="1225" y="374"/>
      <point x="1161" y="232"/>
      <point x="1065" y="126"/>
      <point x="944" y="53"/>
      <point x="809" y="11"/>
      <point x="668" y="-4"/>
      <point x="601" y="0" type="qcurve"/>
      <point x="559" y="224" type="line"/>
      <point x="637" y="215"/>
      <point x="760" y="242"/>
      <point x="847" y="304"/>
      <point x="899" y="398"/>
      <point x="906" y="457" type="qcurve"/>
      <point x="914" y="521"/>
      <point x="877" y="615"/>
      <point x="816" y="671"/>
      <point x="743" y="690"/>
      <point x="715" y="681" type="qcurve"/>
      <point x="659" y="902" type="line"/>
      <point x="719" y="905"/>
      <point x="819" y="931"/>
      <point x="892" y="980"/>
      <point x="934" y="1055"/>
      <point x="935" y="1107" type="qcurve"/>
      <point x="937" y="1179"/>
      <point x="881" y="1265"/>
      <point x="834" y="1276" type="qcurve"/>
      <point x="800" y="1284"/>
      <point x="744" y="1266"/>
      <point x="702" y="1222"/>
      <point x="674" y="1157"/>
      <point x="667" y="1119" type="qcurve"/>
    </contour>
  </outline>
</glyph>
<glyph name="atilde" format="1">
  <advance width="1100"/>
  <unicode hex="00E3"/>
  <outline>
    <contour>
      <point x="839" y="885" type="line"/>
      <point x="819" y="888"/>
      <point x="785" y="892"/>
      <point x="778" y="893" type="qcurve"/>
      <point x="703" y="893"/>
      <point x="588" y="831"/>
      <point x="506" y="727"/>
      <point x="457" y="588"/>
      <point x="449" y="510" type="qcurve"/>
      <point x="443" y="449"/>
      <point x="448" y="340"/>
      <point x="470" y="257"/>
      <point x="511" y="209"/>
      <point x="540" y="209" type="qcurve"/>
      <point x="574" y="209"/>
      <point x="635" y="232"/>
      <point x="688" y="268"/>
      <point x="729" y="310"/>
      <point x="744" y="329" type="qcurve"/>
    </contour>
    <contour>
      <point x="483" y="-16" type="qcurve"/>
      <point x="406" y="-15"/>
      <point x="292" y="32"/>
      <point x="211" y="112"/>
      <point x="162" y="219"/>
      <point x="139" y="342"/>
      <point x="138" y="476"/>
      <point x="147" y="542" type="qcurve"/>
      <point x="156" y="614"/>
      <point x="204" y="756"/>
      <point x="283" y="884"/>
      <point x="392" y="993"/>
      <point x="533" y="1072"/>
      <point x="708" y="1117"/>
      <point x="812" y="1117" type="qcurve"/>
      <point x="873" y="1116"/>
      <point x="935" y="1108" type="qcurve"/>
      <point x="989" y="1101"/>
      <point x="1115" y="1071"/>
      <point x="1173" y="1043" type="qcurve"/>
      <point x="1030" y="209" type="line"/>
      <point x="1016" y="0" type="line"/>
      <point x="694" y="0" type="line"/>
      <point x="722" y="162" type="line"/>
      <point x="567" y="-10" type="line"/>
      <point x="556" y="-12"/>
      <point x="520" y="-17"/>
    </contour>
    <contour>
      <point x="373" y="1247" type="line"/>
      <point x="380" y="1289"/>
      <point x="425" y="1386"/>
      <point x="499" y="1464"/>
      <point x="602" y="1511"/>
      <point x="669" y="1504" type="qcurve"/>
      <point x="718" y="1499"/>
      <point x="781" y="1470"/>
      <point x="830" y="1440"/>
      <point x="875" y="1420"/>
      <point x="905" y="1424" type="qcurve"/>
      <point x="947" y="1429"/>
      <point x="989" y="1477"/>
      <point x="1002" y="1512" type="qcurve"/>
      <point x="1167" y="1502" type="line"/>
      <point x="1156" y="1448"/>
      <point x="1110" y="1350"/>
      <point x="1038" y="1277"/>
      <point x="939" y="1237"/>
      <point x="876" y="1240" type="qcurve"/>
      <point x="831" y="1242"/>
      <point x="769" y="1271"/>
      <point x="720" y="1302"/>
      <point x="672" y="1324"/>
      <point x="641" y="1320" type="qcurve"/>
      <point x="606" y="1315"/>
      <point x="567" y="1270"/>
      <point x="554" y="1240" type="qcurve"/>
    </contour>
  </outline>
</glyph>
<glyph name="ccedilla" format="1">
  <advance width="1042"/>
  <unicode hex="00E7"/>
  <outline>
    <contour>
      <point x="924" y="814" type="line"/>
      <point x="901" y="841"/>
      <point x="853" y="873"/>
      <point x="805" y="891"/>
      <point x="755" y="898"/>
      <point x="731" y="900" type="qcurve"/>
      <point x="674" y="904"/>
      <point x="577" y="849"/>
      <point x="506" y="755"/>
      <point x="463" y="630"/>
      <point x="459" y="563" type="qcurve"/>
      <point x="455" y="496"/>
      <point x="457" y="372"/>
      <point x="487" y="274"/>
      <point x="556" y="209"/>
      <point x="618" y="200" type="qcurve"/>
      <point x="644" y="196"/>
      <point x="712" y="210"/>
      <point x="780" y="236"/>
      <point x="843" y="271"/>
      <point x="865" y="288" type="qcurve"/>
      <point x="943" y="93" type="line"/>
      <point x="907" y="67"/>
      <point x="820" y="23"/>
      <point x="723" y="-7"/>
      <point x="619" y="-22"/>
      <point x="567" y="-17" type="qcurve"/>
      <point x="434" y="-6"/>
      <point x="262" y="94"/>
      <point x="166" y="252"/>
      <point x="136" y="458"/>
      <point x="145" y="575" type="qcurve"/>
      <point x="153" y="684"/>
      <point x="249" y="887"/>
      <point x="411" y="1041"/>
      <point x="634" y="1126"/>
      <point x="771" y="1117" type="qcurve"/>
      <point x="825" y="1113"/>
      <point x="918" y="1095"/>
      <point x="999" y="1060"/>
      <point x="1070" y="1003"/>
      <point x="1101" y="961" type="qcurve"/>
    </contour>
    <contour>
      <point x="701" y="0" type="line"/>
      <point x="723" y="-20"/>
      <point x="739" y="-46" type="qcurve"/>
      <point x="753" y="-69"/>
      <point x="773" y="-131"/>
      <point x="769" y="-171" type="qcurve"/>
      <point x="763" y="-228"/>
      <point x="701" y="-320"/>
      <point x="608" y="-382"/>
      <point x="496" y="-412"/>
      <point x="440" y="-407" type="qcurve"/>
      <point x="381" y="-402"/>
      <point x="270" y="-365"/>
      <point x="227" y="-344" type="qcurve"/>
      <point x="176" y="-319"/>
      <point x="132" y="-290" type="qcurve"/>
      <point x="274" y="-131" type="line"/>
      <point x="303" y="-149"/>
      <point x="332" y="-163" type="qcurve"/>
      <point x="356" y="-175"/>
      <point x="411" y="-197"/>
      <point x="433" y="-200" type="qcurve"/>
      <point x="464" y="-205"/>
      <point x="510" y="-177"/>
      <point x="507" y="-147" type="qcurve"/>
      <point x="505" y="-126"/>
      <point x="487" y="-79"/>
      <point x="466" y="-37"/>
      <point x="445" y="-6"/>
      <point x="439" y="0" type="qcurve"/>
    </contour>
  </outline>
</glyph>
<glyph name="icircumflex" format="1">
  <advance width="600"/>
  <unicode hex="00EE"/>
  <outline>
    <contour>
      <point x="442" y="0" type="line"/>
      <point x="136" y="0" type="line"/>
      <point x="320" y="1049" type="line"/>
      <point x="632" y="1081" type="line"/>
    </contour>
    <contour>
      <point x="855" y="1257" type="line"/>
      <point x="640" y="1257" type="line"/>
      <point x="588" y="1360" type="line"/>
      <point x="580" y="1487" type="line"/>
      <point x="528" y="1360" type="line"/>
      <point x="429" y="1257" type="line"/>
      <point x="199" y="1257" type="line"/>
      <point x="420" y="1532" type="line"/>
      <point x="721" y="1561" type="line"/>
    </contour>
  </outline>
</glyph>
<glyph name="ntilde" format="1">
  <advance width="1200"/>
  <unicode hex="00F1"/>
  <outline>
    <contour>
      <point x="653" y="1126" type="line"/>
      <point x="620" y="937" type="line"/>
      <point x="736" y="1088" type="line"/>
      <point x="770" y="1099"/>
      <point x="840" y="1115"/>
      <point x="875" y="1117" type="qcurve"/>
      <point x="929" y="1121"/>
      <point x="1006" y="1114"/>
      <point x="1066" y="1091"/>
      <point x="1114" y="1052"/>
      <point x="1139" y="1024" type="qcurve"/>
      <point x="1166" y="993"/>
      <point x="1186" y="914"/>
      <point x="1187" y="833"/>
      <point x="1175" y="756"/>
      <point x="1170" y="727" type="qcurve"/>
      <point x="1042" y="0" type="line"/>
      <point x="729" y="0" type="line"/>
      <point x="862" y="757" type="line"/>
      <point x="873" y="821"/>
      <point x="826" y="889"/>
      <point x="787" y="900" type="qcurve"/>
      <point x="771" y="904"/>
      <point x="726" y="899"/>
      <point x="674" y="878"/>
      <point x="621" y="842"/>
      <point x="598" y="816" type="qcurve"/>
      <point x="455" y="0" type="line"/>
      <point x="142" y="0" type="line"/>
      <point x="334" y="1093" type="line"/>
    </contour>
    <contour>
      <point x="448" y="1247" type="line"/>
      <point x="455" y="1289"/>
      <point x="500" y="1386"/>
      <point x="574" y="1464"/>
      <point x="677" y="1511"/>
      <point x="744" y="1504" type="qcurve"/>
      <point x="793" y="1499"/>
      <point x="856" y="1470"/>
      <point x="905" y="1440"/>
      <point x="950" y="1420"/>
      <point x="980" y="1424" type="qcurve"/>
      <point x="1022" y="1429"/>
      <point x="1064" y="1477"/>
      <point x="1077" y="1512" type="qcurve"/>
      <point x="1242" y="1502" type="line"/>
      <point x="1231" y="1448"/>
      <point x="1185" y="1350"/>
      <point x="1113" y="1277"/>
      <point x="1014" y="1237"/>
      <point x="951" y="1240" type="qcurve"/>
      <point x="906" y="1242"/>
      <point x="844" y="1271"/>
      <point x="795" y="1302"/>
      <point x="747" y="1324"/>
      <point x="716" y="1320" type="qcurve"/>
      <point x="681" y="1315"/>
      <point x="642" y="1270"/>
      <point x="629" y="1240" type="qcurve"/>
    </contour>
  </outline>
</glyph>
<glyph name="otilde" format="1">
  <advance width="1200"/>
  <unicode hex="00F5"/>
  <outline>
    <contour>
      <point x="600" y="-17" type="qcurve"/>
      <point x="481" y="-7"/>
      <point x="309" y="80"/>
      <point x="203" y="226"/>
      <point x="162" y="428"/>
      <point x="173" y="553" type="qcurve"/>
      <point x="184" y="676"/>
      <point x="290" y="890"/>
      <point x="457" y="1046"/>
      <point x="676" y="1127"/>
      <point x="799" y="1117" type="qcurve"/>
      <point x="918" y="1107"/>
      <point x="1090" y="1020"/>
      <point x="1197" y="875"/>
      <point x="1239" y="676"/>
      <point x="1228" y="553" type="qcurve"/>
      <point x="1221" y="471"/>
      <point x="1167" y="318"/>
      <point x="1082" y="187"/>
      <point x="969" y="81"/>
      <point x="834" y="9"/>
      <point x="682" y="-24"/>
    </contour>
    <contour>
      <point x="911" y="528" type="qcurve"/>
      <point x="918" y="598"/>
      <point x="917" y="725"/>
      <point x="886" y="824"/>
      <point x="818" y="889"/>
      <point x="757" y="897" type="qcurve"/>
      <point x="706" y="904"/>
      <point x="613" y="851"/>
      <point x="541" y="756"/>
      <point x="494" y="634"/>
      <point x="489" y="571" type="qcurve"/>
      <point x="483" y="500"/>
      <point x="486" y="373"/>
      <point x="517" y="274"/>
      <point x="584" y="210"/>
      <point x="641" y="203" type="qcurve"/>
      <point x="696" y="196"/>
      <point x="789" y="250"/>
      <point x="860" y="344"/>
      <point x="905" y="466"/>
    </contour>
    <contour>
      <point x="418" y="1247" type="line"/>
      <point x="425" y="1289"/>
      <point x="470" y="1386"/>
      <point x="544" y="1464"/>
      <point x="647" y="1511"/>
      <point x="714" y="1504" type="qcurve"/>
      <point x="763" y="1499"/>
      <point x="826" y="1470"/>
      <point x="875" y="1440"/>
      <point x="920" y="1420"/>
      <point x="950" y="1424" type="qcurve"/>
      <point x="992" y="1429"/>
      <point x="1034" y="1477"/>
      <point x="1047" y="1512" type="qcurve"/>
      <point x="1212" y="1502" type="line"/>
      <point x="1201" y="1448"/>
      <point x="1155" y="1350"/>
      <point x="1083" y="1277"/>
      <point x="984" y="1237"/>
      <point x="921" y="1240" type="qcurve"/>
      <point x="876" y="1242"/>
      <point x="814" y="1271"/>
      <point x="765" y="1302"/>
      <point x="717" y="1324"/>
      <point x="686" y="1320" type="qcurve"/>
      <point x="651" y="1315"/>
      <point x="612" y="1270"/>
      <point x="599" y="1240" type="qcurve"/>
    </contour>
  </outline>
</glyph>
<glyph name="divide" format="1">
  <advance width="1100"/>
  <unicode hex="00F7"/>
  <outline>
    <contour>
      <point x="264" y="724" type="line"/>
      <point x="1164" y="724" type="line"/>
      <point x="1164" y="569" type="line"/>
      <point x="264" y="569" type="line"/>
    </contour>
    <contour>
      <point x="641" y="959" type="qcurve"/>
      <point x="643" y="992"/>
      <point x="677" y="1052"/>
      <point x="729" y="1096"/>
      <point x="792" y="1120"/>
      <point x="824" y="1117" type="qcurve"/>
      <point x="889" y="1109"/>
      <point x="958" y="1025"/>
      <point x="954" y="959" type="qcurve"/>
      <point x="952" y="926"/>
      <point x="918" y="867"/>
      <point x="867" y="822"/>
      <point x="803" y="798"/>
      <point x="771" y="800" type="qcurve"/>
      <point x="738" y="802"/>
      <point x="687" y="828"/>
      <point x="654" y="871"/>
      <point x="639" y="927"/>
    </contour>
    <contour>
      <point x="526" y="303" type="qcurve"/>
      <point x="528" y="336"/>
      <point x="562" y="396"/>
      <point x="614" y="440"/>
      <point x="677" y="464"/>
      <point x="709" y="461" type="qcurve"/>
      <point x="774" y="453"/>
      <point x="843" y="369"/>
      <point x="839" y="303" type="qcurve"/>
      <point x="837" y="270"/>
      <point x="803" y="211"/>
      <point x="752" y="166"/>
      <point x="688" y="142"/>
      <point x="656" y="144" type="qcurve"/>
      <point x="623" y="146"/>
      <point x="572" y="172"/>
      <point x="539" y="215"/>
      <point x="524" y="271"/>
    </contour>
  </outline>
</glyph>
<glyph name="udieresis" format="1">
  <advance width="1200"/>
  <unicode hex="00FC"/>
  <outline>
    <contour>
      <point x="921" y="1093" type="line"/>
      <point x="1240" y="1126" type="line"/>
      <point x="1042" y="0" type="line"/>
      <point x="729" y="0" type="line"/>
      <point x="757" y="163" type="line"/>
      <point x="619" y="11" type="line"/>
      <point x="598" y="2"/>
      <point x="529" y="-17"/>
      <point x="476" y="-17" type="qcurve"/>
      <point x="386" y="-17"/>
      <point x="270" y="51"/>
      <point x="208" y="164"/>
      <point x="196" y="308"/>
      <point x="210" y="384" type="qcurve"/>
      <point x="335" y="1093" type="line"/>
      <point x="654" y="1126" type="line"/>
      <point x="523" y="384" type="line"/>
      <point x="515" y="352"/>
      <point x="516" y="292"/>
      <point x="533" y="243"/>
      <point x="568" y="207"/>
      <point x="595" y="200" type="qcurve"/>
      <point x="614" y="195"/>
      <point x="660" y="202"/>
      <point x="709" y="223"/>
      <point x="757" y="256"/>
      <point x="777" y="276" type="qcurve"/>
    </contour>
    <contour>
      <point x="470" y="1234" type="line"/>
      <point x="746" y="1234" type="line"/>
      <point x="793" y="1500" type="line"/>
      <point x="517" y="1500" type="line"/>
    </contour>
    <contour>
      <point x="870" y="1234" type="line"/>
      <point x="1146" y="1234" type="line"/>
      <point x="1193" y="1500" type="line"/>
      <point x="917" y="1500" type="line"/>
    </contour>
  </outline>
</glyph>
<glyph name="thorn" format="1">
  <advance width="1200"/>
  <unicode hex="00FE"/>
  <outline>
    <contour>
      <point x="908" y="528" type="qcurve"/>
      <point x="919" y="592"/>
      <point x="915" y="720"/>
      <point x="879" y="824"/>
      <point x="809" y="892"/>
      <point x="754" y="897" type="qcurve"/>
      <point x="699" y="902"/>
      <point x="607" y="848"/>
      <point x="538" y="754"/>
      <point x="493" y="633"/>
      <point x="486" y="571" type="qcurve"/>
      <point x="478" y="502"/>
      <point x="480" y="376"/>
      <point x="513" y="277"/>
      <point x="581" y="211"/>
      <point x="638" y="203" type="qcurve"/>
      <point x="697" y="194"/>
      <point x="789" y="249"/>
      <point x="855" y="345"/>
      <point x="897" y="468"/>
    </contour>
    <contour>
      <point x="671" y="1527" type="line"/>
      <point x="613" y="1201" type="line"/>
      <point x="501" y="1030" type="line"/>
      <point x="696" y="1109" type="line"/>
      <point x="721" y="1113"/>
      <point x="770" y="1117"/>
      <point x="796" y="1117" type="qcurve"/>
      <point x="910" y="1117"/>
      <point x="1082" y="1033"/>
      <point x="1192" y="883"/>
      <point x="1239" y="676"/>
      <point x="1228" y="553" type="qcurve"/>
      <point x="1221" y="474"/>
      <point x="1169" y="324"/>
      <point x="1086" y="193"/>
      <point x="974" y="85"/>
      <point x="838" y="11"/>
      <point x="682" y="-24"/>
      <point x="597" y="-17" type="qcurve"/>
      <point x="571" y="-15"/>
      <point x="522" y="-13"/>
      <point x="499" y="-9" type="qcurve"/>
      <point x="333" y="75" type="line"/>
      <point x="384" y="-99" type="line"/>
      <point x="334" y="-380" type="line"/>
      <point x="2" y="-380" type="line"/>
      <point x="333" y="1493" type="line"/>
    </contour>
  </outline>
</glyph>
<glyph name="OE" format="1">
  <advance width="2000"/>
  <unicode hex="0152"/>
  <outline>
    <contour>
      <point x="916" y="0" type="line"/>
      <point x="938" y="70" type="line"/>
      <point x="797" y="-17" type="line"/>
      <point x="641" y="-17"/>
      <point x="407" y="96"/>
      <point x="258" y="299"/>
      <point x="196" y="581"/>
      <point x="212" y="750" type="qcurve"/>
      <point x="228" y="917"/>
      <point x="360" y="1206"/>
      <point x="580" y="1416"/>
      <point x="881" y="1528"/>
      <point x="1066" y="1517" type="qcurve"/>
      <point x="1178" y="1430" type="line"/>
      <point x="1180" y="1500" type="line"/>
      <point x="2068" y="1500" type="line"/>
      <point x="2028" y="1272" type="line"/>
      <point x="1434" y="1272" type="line"/>
      <point x="1424" y="1134" type="line"/>
      <point x="1386" y="916" type="line"/>
      <point x="1899" y="916" type="line"/>
      <point x="1861" y="703" type="line"/>
      <point x="1348" y="703" type="line"/>
      <point x="1288" y="360" type="line"/>
      <point x="1258" y="228" type="line"/>
      <point x="1881" y="228" type="line"/>
      <point x="1814" y="0" type="line"/>
    </contour>
    <contour>
      <point x="828" y="221" type="qcurve"/>
      <point x="840" y="220"/>
      <point x="881" y="221"/>
      <point x="926" y="225"/>
      <point x="968" y="231"/>
      <point x="981" y="234" type="qcurve"/>
      <point x="1162" y="1261" type="line"/>
      <point x="1152" y="1265"/>
      <point x="1112" y="1271"/>
      <point x="1065" y="1275"/>
      <point x="1020" y="1278"/>
      <point x="1004" y="1279" type="qcurve"/>
      <point x="904" y="1287"/>
      <point x="746" y="1206"/>
      <point x="633" y="1063"/>
      <point x="564" y="879"/>
      <point x="554" y="783" type="qcurve"/>
      <point x="542" y="677"/>
      <point x="551" y="482"/>
      <point x="609" y="329"/>
      <point x="729" y="231"/>
    </contour>
  </outline>
</glyph>
<glyph name="oe" format="1">
  <advance width="1900"/>
  <unicode hex="0153"/>
  <outline>
    <contour>
      <point x="923" y="571" type="qcurve"/>
      <point x="930" y="635"/>
      <point x="926" y="749"/>
      <point x="894" y="837"/>
      <point x="829" y="892"/>
      <point x="775" y="897" type="qcurve"/>
      <point x="720" y="902"/>
      <point x="627" y="855"/>
      <point x="556" y="766"/>
      <point x="508" y="643"/>
      <point x="498" y="571" type="qcurve"/>
      <point x="488" y="501"/>
      <point x="491" y="374"/>
      <point x="525" y="275"/>
      <point x="595" y="210"/>
      <point x="652" y="203" type="qcurve"/>
      <point x="709" y="195"/>
      <point x="801" y="248"/>
      <point x="870" y="349"/>
      <point x="914" y="490"/>
    </contour>
    <contour>
      <point x="923" y="82" type="line"/>
      <point x="895" y="59"/>
      <point x="837" y="26"/>
      <point x="769" y="3"/>
      <point x="689" y="-12"/>
      <point x="638" y="-16" type="qcurve"/>
      <point x="545" y="-24"/>
      <point x="372" y="44"/>
      <point x="246" y="190"/>
      <point x="182" y="410"/>
      <point x="198" y="553" type="qcurve"/>
      <point x="211" y="675"/>
      <point x="320" y="889"/>
      <point x="489" y="1044"/>
      <point x="711" y="1126"/>
      <point x="837" y="1116" type="qcurve"/>
      <point x="877" y="1113"/>
      <point x="946" y="1098"/>
      <point x="1006" y="1076"/>
      <point x="1062" y="1045"/>
      <point x="1089" y="1026" type="qcurve"/>
      <point x="1144" y="905" type="line"/>
      <point x="1244" y="1025" type="line"/>
      <point x="1269" y="1043"/>
      <point x="1323" y="1078"/>
      <point x="1384" y="1104"/>
      <point x="1454" y="1118"/>
      <point x="1497" y="1116" type="qcurve"/>
      <point x="1724" y="1106"/>
      <point x="1909" y="862"/>
      <point x="1873" y="632" type="qcurve"/>
      <point x="1868" y="605"/>
      <point x="1846" y="517"/>
      <point x="1832" y="466" type="qcurve"/>
      <point x="1168" y="466" type="line"/>
      <point x="1168" y="415"/>
      <point x="1197" y="325"/>
      <point x="1252" y="255"/>
      <point x="1332" y="208"/>
      <point x="1384" y="200" type="qcurve"/>
      <point x="1419" y="195"/>
      <point x="1486" y="204"/>
      <point x="1550" y="230"/>
      <point x="1612" y="268"/>
      <point x="1643" y="292" type="qcurve"/>
      <point x="1772" y="157" type="line"/>
      <point x="1728" y="114"/>
      <point x="1633" y="44"/>
      <point x="1524" y="-3"/>
      <point x="1398" y="-24"/>
      <point x="1322" y="-17" type="qcurve"/>
      <point x="1279" y="-13"/>
      <point x="1201" y="8"/>
      <point x="1136" y="37"/>
      <point x="1089" y="69"/>
      <point x="1078" y="83" type="qcurve"/>
      <point x="1020" y="203" type="line"/>
    </contour>
    <contour>
      <point x="1328" y="671" type="line"/>
      <point x="1611" y="671" type="line"/>
      <point x="1613" y="712"/>
      <point x="1606" y="789"/>
      <point x="1578" y="852"/>
      <point x="1521" y="896"/>
      <point x="1474" y="903" type="qcurve"/>
      <point x="1432" y="909"/>
      <point x="1364" y="887"/>
      <point x="1311" y="843"/>
      <point x="1273" y="785"/>
      <point x="1261" y="756" type="qcurve"/>
      <point x="1152" y="653" type="line"/>
    </contour>
  </outline>
</glyph>
<glyph name="scaron" format="1">
  <advance width="900"/>
  <unicode hex="0161"/>
  <outline>
    <contour>
      <point x="834" y="822" type="line"/>
      <point x="765" y="860"/>
      <point x="657" y="892"/>
      <point x="617" y="900" type="qcurve"/>
      <point x="587" y="906"/>
      <point x="538" y="898"/>
      <point x="502" y="875"/>
      <point x="484" y="842"/>
      <point x="486" y="822" type="qcurve"/>
      <point x="489" y="787"/>
      <point x="553" y="737"/>
      <point x="646" y="689"/>
      <point x="752" y="635"/>
      <point x="844" y="557"/>
      <point x="905" y="445"/>
      <point x="907" y="364" type="qcurve"/>
      <point x="908" y="298"/>
      <point x="866" y="187"/>
      <point x="791" y="98"/>
      <point x="690" y="32"/>
      <point x="573" y="-9"/>
      <point x="447" y="-24"/>
      <point x="386" y="-17" type="qcurve"/>
      <point x="348" y="-13"/>
      <point x="251" y="7"/>
      <point x="151" y="37"/>
      <point x="59" y="74"/>
      <point x="28" y="96" type="qcurve"/>
      <point x="162" y="286" type="line"/>
      <point x="228" y="249"/>
      <point x="363" y="202"/>
      <point x="435" y="200" type="qcurve"/>
      <point x="468" y="199"/>
      <point x="530" y="214"/>
      <point x="577" y="248"/>
      <point x="605" y="300"/>
      <point x="604" y="336" type="qcurve"/>
      <point x="603" y="372"/>
      <point x="565" y="427"/>
      <point x="505" y="474"/>
      <point x="430" y="516"/>
      <point x="352" y="560"/>
      <point x="279" y="611"/>
      <point x="223" y="676"/>
      <point x="192" y="759"/>
      <point x="196" y="813" type="qcurve"/>
      <point x="202" y="900"/>
      <point x="280" y="1022"/>
      <point x="406" y="1096"/>
      <point x="569" y="1124"/>
      <point x="658" y="1117" type="qcurve"/>
      <point x="702" y="1113"/>
      <point x="788" y="1094"/>
      <point x="866" y="1067"/>
      <point x="934" y="1036"/>
      <point x="959" y="1021" type="qcurve"/>
    </contour>
    <contour>
      <point x="825" y="1215" type="line"/>
      <point x="534" y="1244" type="line"/>
      <point x="409" y="1519" type="line"/>
      <point x="639" y="1519" type="line"/>
      <point x="698" y="1426" type="line"/>
      <point x="712" y="1299" type="line"/>
      <point x="768" y="1426" type="line"/>
      <point x="860" y="1519" type="line"/>
      <point x="1065" y="1519" type="line"/>
    </contour>
  </outline>
</glyph>
<glyph name="circumflex" format="1">
  <advance width="1100"/>
  <unicode hex="02C6"/>
  <outline>
    <contour>
      <point x="1030" y="1220" type="line"/>
      <point x="815" y="1220" type="line"/>
      <point x="763" y="1323" type="line"/>
      <point x="755" y="1450" type="line"/>
      <point x="703" y="1323" type="line"/>
      <point x="604" y="1220" type="line"/>
      <point x="374" y="1220" type="line"/>
      <point x="595" y="1495" type="line"/>
      <point x="896" y="1524" type="line"/>
    </contour>
  </outline>
</glyph>
<glyph name="ring" format="1">
  <advance width="1100"/>
  <unicode hex="02DA"/>
  <outline>
    <contour>
      <point x="797" y="1682" type="qcurve"/>
      <point x="859" y="1675"/>
      <point x="961" y="1629"/>
      <point x="1031" y="1555"/>
      <point x="1065" y="1456"/>
      <point x="1059" y="1396" type="qcurve"/>
      <point x="1053" y="1337"/>
      <point x="987" y="1227"/>
      <point x="886" y="1145"/>
      <point x="761" y="1101"/>
      <point x="696" y="1110" type="qcurve"/>
      <point x="559" y="1128"/>
      <point x="427" y="1278"/>
      <point x="432" y="1396" type="qcurve"/>
      <point x="434" y="1456"/>
      <point x="500" y="1566"/>
      <point x="604" y="1647"/>
      <point x="732" y="1689"/>
    </contour>
    <contour>
      <point x="766" y="1492" type="qcurve"/>
      <point x="744" y="1494"/>
      <point x="700" y="1480"/>
      <point x="665" y="1453"/>
      <point x="643" y="1416"/>
      <point x="642" y="1395" type="qcurve"/>
      <point x="641" y="1354"/>
      <point x="685" y="1304"/>
      <point x="733" y="1297" type="qcurve"/>
      <point x="754" y="1294"/>
      <point x="796" y="1309"/>
      <point x="831" y="1337"/>
      <point x="853" y="1375"/>
      <point x="855" y="1395" type="qcurve"/>
      <point x="859" y="1437"/>
      <point x="810" y="1487"/>
    </contour>
  </outline>
</glyph>
<glyph name="ogonek" format="1">
  <advance width="1100"/>
  <unicode hex="02DB"/>
  <outline>
    <contour>
      <point x="600" y="0" type="line"/>
      <point x="594" y="-6"/>
      <point x="573" y="-37"/>
      <point x="552" y="-79"/>
      <point x="534" y="-126"/>
      <point x="532" y="-147" type="qcurve"/>
      <point x="529" y="-177"/>
      <point x="575" y="-205"/>
      <point x="606" y="-200" type="qcurve"/>
      <point x="628" y="-197"/>
      <point x="682" y="-175"/>
      <point x="707" y="-163" type="qcurve"/>
      <point x="735" y="-149"/>
      <point x="765" y="-131" type="qcurve"/>
      <point x="907" y="-290" type="line"/>
      <point x="861" y="-319"/>
      <point x="811" y="-344" type="qcurve"/>
      <point x="767" y="-365"/>
      <point x="658" y="-402"/>
      <point x="599" y="-407" type="qcurve"/>
      <point x="543" y="-412"/>
      <point x="431" y="-382"/>
      <point x="338" y="-320"/>
      <point x="276" y="-228"/>
      <point x="270" y="-171" type="qcurve"/>
      <point x="266" y="-131"/>
      <point x="286" y="-69"/>
      <point x="300" y="-46" type="qcurve"/>
      <point x="316" y="-20"/>
      <point x="338" y="0" type="qcurve"/>
    </contour>
  </outline>
</glyph>
<glyph name="tilde" format="1">
  <advance width="1100"/>
  <unicode hex="02DC"/>
  <outline>
    <contour>
      <point x="348" y="1307" type="line"/>
      <point x="355" y="1349"/>
      <point x="400" y="1446"/>
      <point x="474" y="1524"/>
      <point x="577" y="1571"/>
      <point x="644" y="1564" type="qcurve"/>
      <point x="693" y="1559"/>
      <point x="756" y="1530"/>
      <point x="805" y="1500"/>
      <point x="850" y="1480"/>
      <point x="880" y="1484" type="qcurve"/>
      <point x="922" y="1489"/>
      <point x="964" y="1537"/>
      <point x="977" y="1572" type="qcurve"/>
      <point x="1142" y="1562" type="line"/>
      <point x="1131" y="1508"/>
      <point x="1085" y="1410"/>
      <point x="1013" y="1337"/>
      <point x="914" y="1297"/>
      <point x="851" y="1300" type="qcurve"/>
      <point x="806" y="1302"/>
      <point x="744" y="1331"/>
      <point x="695" y="1362"/>
      <point x="647" y="1384"/>
      <point x="616" y="1380" type="qcurve"/>
      <point x="581" y="1375"/>
      <point x="542" y="1330"/>
      <point x="529" y="1300" type="qcurve"/>
    </contour>
  </outline>
</glyph>
<glyph name="hungarumlaut" format="1">
  <advance width="1100"/>
  <unicode hex="02DD"/>
  <outline>
    <contour>
      <point x="599" y="1496" type="line"/>
      <point x="934" y="1518" type="line"/>
      <point x="581" y="1117" type="line"/>
      <point x="352" y="1117" type="line"/>
    </contour>
    <contour>
      <point x="962" y="1496" type="line"/>
      <point x="1297" y="1518" type="line"/>
      <point x="944" y="1117" type="line"/>
      <point x="715" y="1117" type="line"/>
    </contour>
  </outline>
</glyph>
<glyph name="Deltagreek" format="1">
  <advance width="1500"/>
  <unicode hex="0394"/>
  <outline>
    <contour>
      <point x="1510" y="0" type="line"/>
      <point x="-52" y="0" type="line"/>
      <point x="832" y="1494" type="line"/>
      <point x="1146" y="1528" type="line"/>
    </contour>
    <contour>
      <point x="1077" y="230" type="line"/>
      <point x="1211" y="178" type="line"/>
      <point x="1132" y="330" type="line"/>
      <point x="963" y="1061" type="line"/>
      <point x="950" y="1265" type="line"/>
      <point x="867" y="1061" type="line"/>
      <point x="438" y="330" type="line"/>
      <point x="302" y="178" type="line"/>
      <point x="477" y="230" type="line"/>
    </contour>
  </outline>
</glyph>
<glyph name="Zeta" format="1">
  <advance width="1200"/>
  <unicode hex="0396"/>
  <outline>
    <contour>
      <point x="1160" y="228" type="line"/>
      <point x="1147" y="0" type="line"/>
      <point x="39" y="0" type="line"/>
      <point x="20" y="86" type="line"/>
      <point x="840" y="1187" type="line"/>
      <point x="1039" y="1310" type="line"/>
      <point x="822" y="1272" type="line"/>
      <point x="319" y="1272" type="line"/>
      <point x="332" y="1500" type="line"/>
      <point x="1350" y="1500" type="line"/>
      <point x="1381" y="1441" type="line"/>
      <point x="549" y="314" type="line"/>
      <point x="332" y="190" type="line"/>
      <point x="553" y="228" type="line"/>
    </contour>
  </outline>
</glyph>
<glyph name="Eta" format="1">
  <advance width="1400"/>
  <unicode hex="0397"/>
  <outline>
    <contour>
      <point x="904" y="0" type="line"/>
      <point x="1025" y="688" type="line"/>
      <point x="579" y="688" type="line"/>
      <point x="458" y="0" type="line"/>
      <point x="126" y="0" type="line"/>
      <point x="348" y="1263" type="line"/>
      <point x="358" y="1494" type="line"/>
      <point x="727" y="1526" type="line"/>
      <point x="619" y="916" type="line"/>
      <point x="1065" y="916" type="line"/>
      <point x="1167" y="1496" type="line"/>
      <point x="1504" y="1527" type="line"/>
      <point x="1235" y="0" type="line"/>
    </contour>
  </outline>
</glyph>
<glyph name="Theta" format="1">
  <advance width="1600"/>
  <unicode hex="0398"/>
  <outline>
    <contour>
      <point x="698" y="900" type="line"/>
      <point x="1238" y="900" type="line"/>
      <point x="1176" y="662" type="line"/>
      <point x="636" y="662" type="line"/>
    </contour>
    <contour>
      <point x="797" y="21" type="qcurve"/>
      <point x="644" y="27"/>
      <point x="414" y="142"/>
      <point x="268" y="342"/>
      <point x="210" y="619"/>
      <point x="229" y="788" type="qcurve"/>
      <point x="241" y="899"/>
      <point x="313" y="1103"/>
      <point x="425" y="1279"/>
      <point x="573" y="1420"/>
      <point x="751" y="1517"/>
      <point x="955" y="1563"/>
      <point x="1067" y="1555" type="qcurve"/>
      <point x="1226" y="1544"/>
      <point x="1456" y="1431"/>
      <point x="1598" y="1235"/>
      <point x="1652" y="960"/>
      <point x="1634" y="788" type="qcurve"/>
      <point x="1616" y="619"/>
      <point x="1479" y="332"/>
      <point x="1260" y="125"/>
      <point x="969" y="14"/>
    </contour>
    <contour>
      <point x="1295" y="759" type="qcurve"/>
      <point x="1304" y="868"/>
      <point x="1296" y="1059"/>
      <point x="1238" y="1206"/>
      <point x="1119" y="1298"/>
      <point x="1017" y="1307" type="qcurve"/>
      <point x="923" y="1315"/>
      <point x="767" y="1237"/>
      <point x="652" y="1098"/>
      <point x="580" y="916"/>
      <point x="569" y="821" type="qcurve"/>
      <point x="557" y="715"/>
      <point x="565" y="525"/>
      <point x="624" y="378"/>
      <point x="744" y="282"/>
      <point x="845" y="269" type="qcurve"/>
      <point x="907" y="261"/>
      <point x="1018" y="293"/>
      <point x="1115" y="359"/>
      <point x="1194" y="456"/>
      <point x="1253" y="570"/>
      <point x="1290" y="696"/>
    </contour>
  </outline>
</glyph>
<glyph name="Mu" format="1">
  <advance width="1800"/>
  <unicode hex="039C"/>
  <outline>
    <contour>
      <point x="1062" y="799" type="line"/>
      <point x="1513" y="1495" type="line"/>
      <point x="1869" y="1526" type="line"/>
      <point x="1600" y="0" type="line"/>
      <point x="1282" y="0" type="line"/>
      <point x="1379" y="551" type="line"/>
      <point x="1513" y="1060" type="line"/>
      <point x="1509" y="1061" type="line"/>
      <point x="1260" y="581" type="line"/>
      <point x="949" y="123" type="line"/>
      <point x="766" y="123" type="line"/>
      <point x="630" y="536" type="line"/>
      <point x="553" y="1060" type="line"/>
      <point x="547" y="1059" type="line"/>
      <point x="499" y="498" type="line"/>
      <point x="412" y="0" type="line"/>
      <point x="100" y="0" type="line"/>
      <point x="322" y="1263" type="line"/>
      <point x="333" y="1494" type="line"/>
      <point x="697" y="1524" type="line"/>
      <point x="914" y="801" type="line"/>
      <point x="935" y="498" type="line"/>
    </contour>
  </outline>
</glyph>
<glyph name="Sigma" format="1">
  <advance width="1200"/>
  <unicode hex="03A3"/>
  <outline>
    <contour>
      <point x="1002" y="699" type="line"/>
      <point x="552" y="300" type="line"/>
      <point x="405" y="200" type="line"/>
      <point x="568" y="217" type="line"/>
      <point x="1174" y="217" type="line"/>
      <point x="1136" y="0" type="line"/>
      <point x="24" y="0" type="line"/>
      <point x="85" y="216" type="line"/>
      <point x="624" y="690" type="line"/>
      <point x="845" y="750" type="line"/>
      <point x="645" y="810" type="line"/>
      <point x="273" y="1284" type="line"/>
      <point x="288" y="1500" type="line"/>
      <point x="1400" y="1500" type="line"/>
      <point x="1362" y="1283" type="line"/>
      <point x="756" y="1283" type="line"/>
      <point x="599" y="1300" type="line"/>
      <point x="711" y="1200" type="line"/>
      <point x="1020" y="801" type="line"/>
    </contour>
  </outline>
</glyph>
<glyph name="Tau" format="1">
  <advance width="1200"/>
  <unicode hex="03A4"/>
  <outline>
    <contour>
      <point x="424" y="0" type="line"/>
      <point x="648" y="1272" type="line"/>
      <point x="254" y="1272" type="line"/>
      <point x="294" y="1500" type="line"/>
      <point x="1414" y="1500" type="line"/>
      <point x="1374" y="1272" type="line"/>
      <point x="984" y="1272" type="line"/>
      <point x="760" y="0" type="line"/>
    </contour>
  </outline>
</glyph>
<glyph name="Psi" format="1">
  <advance width="1400"/>
  <unicode hex="03A8"/>
  <outline>
    <contour>
      <point x="1116" y="1527" type="line"/>
      <point x="963" y="662" type="line"/>
      <point x="996" y="669"/>
      <point x="1054" y="696"/>
      <point x="1101" y="740"/>
      <point x="1135" y="804"/>
      <point x="1143" y="849" type="qcurve"/>
      <point x="1258" y="1500" type="line"/>
      <point x="1591" y="1500" type="line"/>
      <point x="1479" y="867" type="line"/>
      <point x="1449" y="729"/>
      <point x="1345" y="562"/>
      <point x="1203" y="468"/>
      <point x="1025" y="430"/>
      <point x="921" y="422" type="qcurve"/>
      <point x="847" y="1" type="line"/>
      <point x="515" y="1" type="line"/>
      <point x="589" y="422" type="line"/>
      <point x="509" y="438"/>
      <point x="360" y="512"/>
      <point x="248" y="633"/>
      <point x="187" y="803"/>
      <point x="195" y="914" type="qcurve"/>
      <point x="256" y="1263" type="line"/>
      <point x="264" y="1494" type="line"/>
      <point x="637" y="1526" type="line"/>
      <point x="525" y="896" type="line"/>
      <point x="517" y="847"/>
      <point x="527" y="774"/>
      <point x="557" y="720"/>
      <point x="604" y="684"/>
      <point x="633" y="673" type="qcurve"/>
      <point x="778" y="1493" type="line"/>
    </contour>
  </outline>
</glyph>
<glyph name="beta" format="1">
  <advance width="1200"/>
  <unicode hex="03B2"/>
  <outline>
    <contour>
      <point x="599" y="-17" type="qcurve"/>
      <point x="564" y="-15"/>
      <point x="497" y="-11"/>
      <point x="468" y="-7" type="qcurve"/>
      <point x="377" y="-527" type="line"/>
      <point x="58" y="-500" type="line"/>
      <point x="341" y="1101" type="line"/>
      <point x="360" y="1215"/>
      <point x="457" y="1382"/>
      <point x="601" y="1487"/>
      <point x="785" y="1528"/>
      <point x="890" y="1517" type="qcurve"/>
      <point x="968" y="1509"/>
      <point x="1104" y="1460"/>
      <point x="1202" y="1373"/>
      <point x="1256" y="1243"/>
      <point x="1252" y="1155" type="qcurve"/>
      <point x="1250" y="1109"/>
      <point x="1218" y="1027"/>
      <point x="1170" y="956"/>
      <point x="1111" y="895"/>
      <point x="1081" y="871" type="qcurve"/>
      <point x="866" y="809" type="line"/>
      <point x="1054" y="784" type="line"/>
      <point x="1089" y="767"/>
      <point x="1144" y="726"/>
      <point x="1163" y="701" type="qcurve"/>
      <point x="1182" y="677"/>
      <point x="1204" y="628"/>
      <point x="1216" y="572"/>
      <point x="1220" y="503"/>
      <point x="1220" y="460" type="qcurve"/>
      <point x="1220" y="409"/>
      <point x="1191" y="296"/>
      <point x="1129" y="186"/>
      <point x="1031" y="87"/>
      <point x="893" y="15"/>
      <point x="713" y="-23"/>
    </contour>
    <contour>
      <point x="498" y="211" type="line"/>
      <point x="520" y="199"/>
      <point x="579" y="184"/>
      <point x="608" y="183" type="qcurve"/>
      <point x="680" y="182"/>
      <point x="790" y="223"/>
      <point x="865" y="296"/>
      <point x="907" y="394"/>
      <point x="911" y="451" type="qcurve"/>
      <point x="920" y="574"/>
      <point x="823" y="700"/>
      <point x="723" y="700" type="qcurve"/>
      <point x="668" y="900" type="line"/>
      <point x="709" y="898"/>
      <point x="807" y="920"/>
      <point x="891" y="976"/>
      <point x="948" y="1067"/>
      <point x="950" y="1135" type="qcurve"/>
      <point x="952" y="1207"/>
      <point x="895" y="1302"/>
      <point x="832" y="1317" type="qcurve"/>
      <point x="803" y="1324"/>
      <point x="749" y="1306"/>
      <point x="703" y="1262"/>
      <point x="670" y="1192"/>
      <point x="663" y="1147" type="qcurve"/>
    </contour>
  </outline>
</glyph>
<glyph name="delta" format="1">
  <advance width="1200"/>
  <unicode hex="03B4"/>
  <outline>
    <contour>
      <point x="612" y="183" type="qcurve"/>
      <point x="655" y="179"/>
      <point x="741" y="224"/>
      <point x="814" y="314"/>
      <point x="866" y="445"/>
      <point x="875" y="528" type="qcurve"/>
      <point x="881" y="582"/>
      <point x="875" y="694"/>
      <point x="843" y="787"/>
      <point x="782" y="851"/>
      <point x="734" y="859" type="qcurve"/>
      <point x="686" y="866"/>
      <point x="595" y="825"/>
      <point x="523" y="738"/>
      <point x="475" y="609"/>
      <point x="469" y="528" type="qcurve"/>
      <point x="464" y="457"/>
      <point x="473" y="334"/>
      <point x="507" y="242"/>
      <point x="567" y="187"/>
    </contour>
    <contour>
      <point x="1263" y="1500" type="line"/>
      <point x="1169" y="1300" type="line"/>
      <point x="756" y="1300" type="line"/>
      <point x="724" y="1300"/>
      <point x="679" y="1279"/>
      <point x="674" y="1253" type="qcurve"/>
      <point x="671" y="1236"/>
      <point x="721" y="1206"/>
      <point x="797" y="1172"/>
      <point x="887" y="1132"/>
      <point x="925" y="1107" type="qcurve"/>
      <point x="1003" y="1055"/>
      <point x="1116" y="938"/>
      <point x="1185" y="797"/>
      <point x="1212" y="630"/>
      <point x="1203" y="528" type="qcurve"/>
      <point x="1196" y="446"/>
      <point x="1139" y="297"/>
      <point x="1049" y="172"/>
      <point x="932" y="72"/>
      <point x="798" y="5"/>
      <point x="653" y="-24"/>
      <point x="581" y="-17" type="qcurve"/>
      <point x="461" y="-5"/>
      <point x="291" y="94"/>
      <point x="185" y="245"/>
      <point x="144" y="436"/>
      <point x="153" y="540" type="qcurve"/>
      <point x="159" y="607"/>
      <point x="205" y="749"/>
      <point x="298" y="878"/>
      <point x="442" y="984"/>
      <point x="547" y="1015" type="qcurve"/>
      <point x="728" y="1015" type="line"/>
      <point x="553" y="1092"/>
      <point x="390" y="1228"/>
      <point x="394" y="1286" type="qcurve"/>
      <point x="399" y="1362"/>
      <point x="478" y="1448"/>
      <point x="599" y="1490"/>
      <point x="750" y="1500"/>
      <point x="828" y="1500" type="qcurve"/>
    </contour>
  </outline>
</glyph>
<glyph name="epsilon" format="1">
  <advance width="1000"/>
  <unicode hex="03B5"/>
  <outline>
    <contour>
      <point x="845" y="665" type="line"/>
      <point x="781" y="466" type="line"/>
      <point x="512" y="466" type="line"/>
      <point x="489" y="466"/>
      <point x="449" y="445"/>
      <point x="416" y="408"/>
      <point x="393" y="357"/>
      <point x="388" y="328" type="qcurve"/>
      <point x="383" y="300"/>
      <point x="399" y="248"/>
      <point x="435" y="208"/>
      <point x="491" y="184"/>
      <point x="527" y="184" type="qcurve"/>
      <point x="569" y="184"/>
      <point x="661" y="210"/>
      <point x="699" y="226" type="qcurve"/>
      <point x="744" y="244"/>
      <point x="787" y="268" type="qcurve"/>
      <point x="902" y="131" type="line"/>
      <point x="858" y="93"/>
      <point x="794" y="61" type="qcurve"/>
      <point x="739" y="34"/>
      <point x="571" y="-13"/>
      <point x="454" y="-17" type="qcurve"/>
      <point x="377" y="-20"/>
      <point x="236" y="22"/>
      <point x="131" y="110"/>
      <point x="71" y="242"/>
      <point x="76" y="329" type="qcurve"/>
      <point x="78" y="365"/>
      <point x="104" y="429"/>
      <point x="145" y="488"/>
      <point x="199" y="539"/>
      <point x="229" y="562" type="qcurve"/>
      <point x="184" y="607"/>
      <point x="153" y="720"/>
      <point x="157" y="792" type="qcurve"/>
      <point x="161" y="884"/>
      <point x="252" y="1011"/>
      <point x="391" y="1089"/>
      <point x="565" y="1121"/>
      <point x="653" y="1117" type="qcurve"/>
      <point x="713" y="1114"/>
      <point x="830" y="1091"/>
      <point x="877" y="1077" type="qcurve"/>
      <point x="932" y="1061"/>
      <point x="981" y="1042" type="qcurve"/>
      <point x="883" y="894" type="line"/>
      <point x="848" y="900"/>
      <point x="810" y="905" type="qcurve"/>
      <point x="778" y="910"/>
      <point x="697" y="917"/>
      <point x="656" y="917" type="qcurve"/>
      <point x="617" y="917"/>
      <point x="551" y="891"/>
      <point x="502" y="851"/>
      <point x="471" y="800"/>
      <point x="467" y="775" type="qcurve"/>
      <point x="463" y="752"/>
      <point x="473" y="712"/>
      <point x="495" y="682"/>
      <point x="527" y="665"/>
      <point x="547" y="665" type="qcurve"/>
    </contour>
  </outline>
</glyph>
<glyph name="kappa" format="1">
  <advance width="1000"/>
  <unicode hex="03BA"/>
  <outline>
    <contour>
      <point x="144" y="0" type="line"/>
      <point x="300" y="890" type="line"/>
      <point x="314" y="1093" type="line"/>
      <point x="626" y="1125" type="line"/>
      <point x="564" y="774" type="line"/>
      <point x="861" y="1095" type="line"/>
      <point x="1189" y="1133" type="line"/>
      <point x="737" y="670" type="line"/>
      <point x="550" y="600" type="line"/>
      <point x="712" y="530" type="line"/>
      <point x="1026" y="0" type="line"/>
      <point x="717" y="0" type="line"/>
      <point x="499" y="405" type="line"/>
      <point x="428" y="0" type="line"/>
    </contour>
  </outline>
</glyph>
<glyph name="mugreek" format="1">
  <advance width="1200"/>
  <unicode hex="03BC"/>
  <outline>
    <contour>
      <point x="704" y="27" type="line"/>
      <point x="655" y="-9"/>
      <point x="557" y="-29"/>
      <point x="467" y="-16"/>
      <point x="386" y="20"/>
      <point x="353" y="40" type="qcurve"/>
      <point x="381" y="-166" type="line"/>
      <point x="322" y="-500" type="line"/>
      <point x="24" y="-500" type="line"/>
      <point x="305" y="1093" type="line"/>
      <point x="609" y="1125" type="line"/>
      <point x="471" y="345" type="line"/>
      <point x="466" y="318"/>
      <point x="481" y="261"/>
      <point x="513" y="215"/>
      <point x="560" y="184"/>
      <point x="587" y="183" type="qcurve"/>
      <point x="629" y="181"/>
      <point x="709" y="208"/>
      <point x="744" y="251" type="qcurve"/>
      <point x="892" y="1093" type="line"/>
      <point x="1196" y="1125" type="line"/>
      <point x="998" y="0" type="line"/>
      <point x="700" y="0" type="line"/>
    </contour>
  </outline>
</glyph>
<glyph name="omicron" format="1">
  <advance width="1200"/>
  <unicode hex="03BF"/>
  <outline>
    <contour>
      <point x="600" y="-17" type="qcurve"/>
      <point x="481" y="-7"/>
      <point x="309" y="80"/>
      <point x="203" y="226"/>
      <point x="162" y="428"/>
      <point x="173" y="553" type="qcurve"/>
      <point x="184" y="676"/>
      <point x="290" y="890"/>
      <point x="457" y="1046"/>
      <point x="676" y="1127"/>
      <point x="799" y="1117" type="qcurve"/>
      <point x="918" y="1107"/>
      <point x="1090" y="1020"/>
      <point x="1197" y="875"/>
      <point x="1239" y="676"/>
      <point x="1228" y="553" type="qcurve"/>
      <point x="1221" y="471"/>
      <point x="1167" y="318"/>
      <point x="1082" y="187"/>
      <point x="969" y="81"/>
      <point x="834" y="9"/>
      <point x="682" y="-24"/>
    </contour>
    <contour>
      <point x="911" y="528" type="qcurve"/>
      <point x="918" y="598"/>
      <point x="917" y="725"/>
      <point x="886" y="824"/>
      <point x="818" y="889"/>
      <point x="757" y="897" type="qcurve"/>
      <point x="706" y="904"/>
      <point x="613" y="851"/>
      <point x="541" y="756"/>
      <point x="494" y="634"/>
      <point x="489" y="571" type="qcurve"/>
      <point x="483" y="500"/>
      <point x="486" y="373"/>
      <point x="517" y="274"/>
      <point x="584" y="210"/>
      <point x="641" y="203" type="qcurve"/>
      <point x="696" y="196"/>
      <point x="789" y="250"/>
      <point x="860" y="344"/>
      <point x="905" y="466"/>
    </contour>
  </outline>
</glyph>
<glyph name="sigma" format="1">
  <advance width="1300"/>
  <unicode hex="03C3"/>
  <outline>
    <contour>
      <point x="151" y="551" type="qcurve"/>
      <point x="161" y="664"/>
      <point x="241" y="869"/>
      <point x="391" y="1025"/>
      <point x="619" y="1117"/>
      <point x="777" y="1117" type="qcurve"/>
      <point x="1398" y="1117" type="line"/>
      <point x="1363" y="917" type="line"/>
      <point x="1190" y="917" type="line"/>
      <point x="1052" y="939" type="line"/>
      <point x="1204" y="800" type="line"/>
      <point x="1211" y="766"/>
      <point x="1218" y="709"/>
      <point x="1218" y="652"/>
      <point x="1211" y="590"/>
      <point x="1206" y="551" type="qcurve"/>
      <point x="1186" y="404"/>
      <point x="1077" y="185"/>
      <point x="913" y="41"/>
      <point x="701" y="-25"/>
      <point x="578" y="-17" type="qcurve"/>
      <point x="444" y="-9"/>
      <point x="270" y="90"/>
      <point x="172" y="245"/>
      <point x="141" y="443"/>
    </contour>
    <contour>
      <point x="445" y="551" type="qcurve"/>
      <point x="444" y="485"/>
      <point x="452" y="360"/>
      <point x="487" y="259"/>
      <point x="554" y="192"/>
      <point x="613" y="183" type="qcurve"/>
      <point x="671" y="174"/>
      <point x="775" y="234"/>
      <point x="856" y="340"/>
      <point x="906" y="480"/>
      <point x="911" y="551" type="qcurve"/>
      <point x="915" y="618"/>
      <point x="907" y="742"/>
      <point x="871" y="841"/>
      <point x="801" y="908"/>
      <point x="742" y="917" type="qcurve"/>
      <point x="678" y="927"/>
      <point x="570" y="864"/>
      <point x="491" y="755"/>
      <point x="446" y="617"/>
    </contour>
  </outline>
</glyph>
<glyph name="tau" format="1">
  <advance width="1100"/>
  <unicode hex="03C4"/>
  <outline>
    <contour>
      <point x="855" y="900" type="line"/>
      <point x="747" y="284" type="line"/>
      <point x="741" y="250"/>
      <point x="741" y="190"/>
      <point x="757" y="125"/>
      <point x="791" y="50"/>
      <point x="819" y="0" type="qcurve"/>
      <point x="517" y="0" type="line"/>
      <point x="486" y="25"/>
      <point x="452" y="90"/>
      <point x="440" y="170"/>
      <point x="447" y="264"/>
      <point x="457" y="320" type="qcurve"/>
      <point x="559" y="900" type="line"/>
      <point x="224" y="900" type="line"/>
      <point x="286" y="1100" type="line"/>
      <point x="1201" y="1100" type="line"/>
      <point x="1139" y="900" type="line"/>
    </contour>
  </outline>
</glyph>
<glyph name="omega" format="1">
  <advance width="1600"/>
  <unicode hex="03C9"/>
  <outline>
    <contour>
      <point x="1043" y="744" type="line"/>
      <point x="997" y="487" type="line"/>
      <point x="987" y="428"/>
      <point x="985" y="323"/>
      <point x="1004" y="242"/>
      <point x="1046" y="189"/>
      <point x="1081" y="183" type="qcurve"/>
      <point x="1118" y="176"/>
      <point x="1177" y="229"/>
      <point x="1225" y="327"/>
      <point x="1260" y="459"/>
      <point x="1273" y="531" type="qcurve"/>
      <point x="1294" y="649"/>
      <point x="1277" y="807"/>
      <point x="1231" y="900"/>
      <point x="1172" y="939"/>
      <point x="1150" y="939" type="qcurve"/>
      <point x="1181" y="1117" type="line"/>
      <point x="1275" y="1117"/>
      <point x="1432" y="1028"/>
      <point x="1541" y="875"/>
      <point x="1593" y="673"/>
      <point x="1582" y="559" type="qcurve"/>
      <point x="1576" y="504"/>
      <point x="1556" y="372"/>
      <point x="1512" y="240"/>
      <point x="1439" y="118"/>
      <point x="1324" y="27"/>
      <point x="1159" y="-23"/>
      <point x="1046" y="-17" type="qcurve"/>
      <point x="946" y="-12"/>
      <point x="818" y="28"/>
      <point x="776" y="66" type="qcurve"/>
      <point x="749" y="48"/>
      <point x="686" y="14"/>
      <point x="612" y="-10"/>
      <point x="528" y="-22"/>
      <point x="479" y="-17" type="qcurve"/>
      <point x="376" y="-8"/>
      <point x="243" y="57"/>
      <point x="166" y="152"/>
      <point x="134" y="268"/>
      <point x="129" y="390"/>
      <point x="141" y="509"/>
      <point x="146" y="559" type="qcurve"/>
      <point x="158" y="681"/>
      <point x="262" y="892"/>
      <point x="422" y="1044"/>
      <point x="628" y="1125"/>
      <point x="742" y="1117" type="qcurve"/>
      <point x="711" y="939" type="line"/>
      <point x="690" y="939"/>
      <point x="617" y="900"/>
      <point x="538" y="807"/>
      <point x="465" y="649"/>
      <point x="444" y="531" type="qcurve"/>
      <point x="431" y="459"/>
      <point x="421" y="336"/>
      <point x="434" y="245"/>
      <point x="475" y="189"/>
      <point x="514" y="183" type="qcurve"/>
      <point x="546" y="178"/>
      <point x="606" y="228"/>
      <point x="656" y="315"/>
      <point x="694" y="428"/>
      <point x="704" y="487" type="qcurve"/>
      <point x="756" y="778" type="line"/>
    </contour>
  </outline>
</glyph>
<glyph name="Upsilon1" format="1">
  <advance width="1300"/>
  <unicode hex="03D2"/>
  <outline>
    <contour>
      <point x="1402" y="1336" type="line"/>
      <point x="1388" y="1334"/>
      <point x="1370" y="1324" type="qcurve"/>
      <point x="1355" y="1315"/>
      <point x="1316" y="1279"/>
      <point x="1293" y="1245" type="qcurve"/>
      <point x="904" y="662" type="line"/>
      <point x="788" y="0" type="line"/>
      <point x="474" y="0" type="line"/>
      <point x="590" y="662" type="line"/>
      <point x="406" y="1245" type="line"/>
      <point x="394" y="1283"/>
      <point x="355" y="1316"/>
      <point x="336" y="1321" type="qcurve"/>
      <point x="314" y="1326"/>
      <point x="290" y="1320" type="qcurve"/>
      <point x="325" y="1516" type="line"/>
      <point x="376" y="1516"/>
      <point x="477" y="1511"/>
      <point x="569" y="1476"/>
      <point x="649" y="1399"/>
      <point x="678" y="1328" type="qcurve"/>
      <point x="745" y="1157" type="line"/>
      <point x="771" y="799" type="line"/>
      <point x="926" y="1157" type="line"/>
      <point x="1052" y="1328" type="line"/>
      <point x="1100" y="1406"/>
      <point x="1195" y="1492"/>
      <point x="1296" y="1530"/>
      <point x="1407" y="1527"/>
      <point x="1471" y="1516" type="qcurve"/>
    </contour>
  </outline>
</glyph>
<glyph name="omega1" format="1">
  <advance width="1600"/>
  <unicode hex="03D6"/>
  <outline>
    <contour>
      <point x="1637" y="900" type="line"/>
      <point x="1462" y="900" type="line"/>
      <point x="1575" y="800" type="line"/>
      <point x="1579" y="762"/>
      <point x="1583" y="648"/>
      <point x="1574" y="513"/>
      <point x="1547" y="366"/>
      <point x="1495" y="227"/>
      <point x="1413" y="104"/>
      <point x="1294" y="16"/>
      <point x="1133" y="-27"/>
      <point x="1028" y="-17" type="qcurve"/>
      <point x="978" y="-13"/>
      <point x="903" y="12"/>
      <point x="845" y="44"/>
      <point x="801" y="82"/>
      <point x="782" y="100" type="qcurve"/>
      <point x="758" y="82"/>
      <point x="700" y="41"/>
      <point x="630" y="6"/>
      <point x="547" y="-17"/>
      <point x="498" y="-17" type="qcurve"/>
      <point x="406" y="-17"/>
      <point x="278" y="37"/>
      <point x="196" y="126"/>
      <point x="153" y="237"/>
      <point x="138" y="352"/>
      <point x="143" y="459"/>
      <point x="150" y="499" type="qcurve"/>
      <point x="160" y="555"/>
      <point x="181" y="645"/>
      <point x="202" y="717"/>
      <point x="225" y="776"/>
      <point x="238" y="800" type="qcurve"/>
      <point x="372" y="900" type="line"/>
      <point x="195" y="900" type="line"/>
      <point x="257" y="1100" type="line"/>
      <point x="1700" y="1100" type="line"/>
    </contour>
    <contour>
      <point x="1040" y="724" type="line"/>
      <point x="998" y="487" type="line"/>
      <point x="988" y="428"/>
      <point x="982" y="327"/>
      <point x="996" y="251"/>
      <point x="1032" y="202"/>
      <point x="1065" y="195" type="qcurve"/>
      <point x="1099" y="187"/>
      <point x="1158" y="235"/>
      <point x="1206" y="324"/>
      <point x="1243" y="445"/>
      <point x="1266" y="575"/>
      <point x="1277" y="705"/>
      <point x="1274" y="813"/>
      <point x="1256" y="889"/>
      <point x="1240" y="900" type="qcurve"/>
      <point x="607" y="900" type="line"/>
      <point x="587" y="883"/>
      <point x="541" y="821"/>
      <point x="499" y="724"/>
      <point x="465" y="589"/>
      <point x="458" y="501" type="qcurve"/>
      <point x="453" y="441"/>
      <point x="450" y="336"/>
      <point x="465" y="255"/>
      <point x="501" y="202"/>
      <point x="535" y="195" type="qcurve"/>
      <point x="568" y="187"/>
      <point x="637" y="238"/>
      <point x="697" y="371"/>
      <point x="742" y="593"/>
      <point x="752" y="758" type="qcurve"/>
    </contour>
  </outline>
</glyph>
<glyph name="hyphentwo" format="1">
  <advance width="900"/>
  <unicode hex="2010"/>
  <outline>
    <contour>
      <point x="234" y="624" type="line"/>
      <point x="861" y="624" type="line"/>
      <point x="821" y="400" type="line"/>
      <point x="194" y="400" type="line"/>
    </contour>
  </outline>
</glyph>
<glyph name="dblverticalbar" format="1">
  <advance width="800"/>
  <unicode hex="2016"/>
  <outline>
    <contour>
      <point x="683" y="1500" type="line"/>
      <point x="419" y="0" type="line"/>
      <point x="200" y="0" type="line"/>
      <point x="464" y="1500" type="line"/>
    </contour>
    <contour>
      <point x="983" y="1500" type="line"/>
      <point x="719" y="0" type="line"/>
      <point x="500" y="0" type="line"/>
      <point x="764" y="1500" type="line"/>
    </contour>
  </outline>
</glyph>
<glyph name="quoteleft" format="1">
  <advance width="700"/>
  <unicode hex="2018"/>
  <outline>
    <contour>
      <point x="437" y="1079" type="qcurve"/>
      <point x="436" y="1044"/>
      <point x="408" y="983"/>
      <point x="359" y="940"/>
      <point x="292" y="919"/>
      <point x="252" y="925" type="qcurve"/>
      <point x="223" y="929"/>
      <point x="173" y="954"/>
      <point x="136" y="994"/>
      <point x="115" y="1047"/>
      <point x="115" y="1079" type="qcurve"/>
      <point x="115" y="1118"/>
      <point x="144" y="1214"/>
      <point x="206" y="1316"/>
      <point x="302" y="1419"/>
      <point x="370" y="1466" type="qcurve"/>
      <point x="462" y="1408" type="line"/>
      <point x="448" y="1390"/>
      <point x="417" y="1344"/>
      <point x="389" y="1293"/>
      <point x="365" y="1241"/>
      <point x="358" y="1217" type="qcurve"/>
      <point x="376" y="1209"/>
      <point x="406" y="1188"/>
      <point x="427" y="1156"/>
      <point x="438" y="1110"/>
    </contour>
  </outline>
</glyph>
<glyph name="quotedblleft" format="1">
  <advance width="1000"/>
  <unicode hex="201C"/>
  <outline>
    <contour>
      <point x="437" y="1079" type="qcurve"/>
      <point x="436" y="1044"/>
      <point x="408" y="983"/>
      <point x="359" y="940"/>
      <point x="292" y="919"/>
      <point x="252" y="925" type="qcurve"/>
      <point x="223" y="929"/>
      <point x="173" y="954"/>
      <point x="136" y="994"/>
      <point x="115" y="1047"/>
      <point x="115" y="1079" type="qcurve"/>
      <point x="115" y="1118"/>
      <point x="144" y="1214"/>
      <point x="206" y="1316"/>
      <point x="302" y="1419"/>
      <point x="370" y="1466" type="qcurve"/>
      <point x="462" y="1408" type="line"/>
      <point x="448" y="1390"/>
      <point x="417" y="1344"/>
      <point x="389" y="1293"/>
      <point x="365" y="1241"/>
      <point x="358" y="1217" type="qcurve"/>
      <point x="376" y="1209"/>
      <point x="406" y="1188"/>
      <point x="427" y="1156"/>
      <point x="438" y="1110"/>
    </contour>
    <contour>
      <point x="837" y="1079" type="qcurve"/>
      <point x="836" y="1044"/>
      <point x="808" y="983"/>
      <point x="759" y="940"/>
      <point x="692" y="919"/>
      <point x="652" y="925" type="qcurve"/>
      <point x="623" y="929"/>
      <point x="573" y="954"/>
      <point x="536" y="994"/>
      <point x="515" y="1047"/>
      <point x="515" y="1079" type="qcurve"/>
      <point x="515" y="1118"/>
      <point x="544" y="1214"/>
      <point x="606" y="1316"/>
      <point x="702" y="1419"/>
      <point x="770" y="1466" type="qcurve"/>
      <point x="862" y="1408" type="line"/>
      <point x="848" y="1390"/>
      <point x="817" y="1344"/>
      <point x="789" y="1293"/>
      <point x="765" y="1241"/>
      <point x="758" y="1217" type="qcurve"/>
      <point x="776" y="1209"/>
      <point x="806" y="1188"/>
      <point x="827" y="1156"/>
      <point x="838" y="1110"/>
    </contour>
  </outline>
</glyph>
<glyph name="quotedblright" format="1">
  <advance width="1000"/>
  <unicode hex="201D"/>
  <outline>
    <contour>
      <point x="163" y="1321" type="qcurve"/>
      <point x="164" y="1356"/>
      <point x="192" y="1417"/>
      <point x="241" y="1460"/>
      <point x="308" y="1481"/>
      <point x="348" y="1475" type="qcurve"/>
      <point x="377" y="1471"/>
      <point x="427" y="1446"/>
      <point x="464" y="1406"/>
      <point x="485" y="1353"/>
      <point x="485" y="1321" type="qcurve"/>
      <point x="485" y="1282"/>
      <point x="456" y="1186"/>
      <point x="394" y="1084"/>
      <point x="298" y="980"/>
      <point x="230" y="934" type="qcurve"/>
      <point x="138" y="992" type="line"/>
      <point x="152" y="1010"/>
      <point x="183" y="1056"/>
      <point x="211" y="1107"/>
      <point x="234" y="1159"/>
      <point x="242" y="1183" type="qcurve"/>
      <point x="224" y="1191"/>
      <point x="194" y="1212"/>
      <point x="173" y="1244"/>
      <point x="162" y="1289"/>
    </contour>
    <contour>
      <point x="563" y="1321" type="qcurve"/>
      <point x="564" y="1356"/>
      <point x="592" y="1417"/>
      <point x="641" y="1460"/>
      <point x="708" y="1481"/>
      <point x="748" y="1475" type="qcurve"/>
      <point x="777" y="1471"/>
      <point x="827" y="1446"/>
      <point x="864" y="1406"/>
      <point x="885" y="1353"/>
      <point x="885" y="1321" type="qcurve"/>
      <point x="885" y="1282"/>
      <point x="856" y="1186"/>
      <point x="794" y="1084"/>
      <point x="698" y="980"/>
      <point x="630" y="934" type="qcurve"/>
      <point x="538" y="992" type="line"/>
      <point x="552" y="1010"/>
      <point x="583" y="1056"/>
      <point x="611" y="1107"/>
      <point x="634" y="1159"/>
      <point x="642" y="1183" type="qcurve"/>
      <point x="624" y="1191"/>
      <point x="594" y="1212"/>
      <point x="573" y="1244"/>
      <point x="562" y="1289"/>
    </contour>
  </outline>
</glyph>
<glyph name="tripleprime" format="1">
  <advance width="1100"/>
  <unicode hex="2034"/>
  <outline>
    <contour>
      <point x="596" y="1230" type="line"/>
      <point x="375" y="885" type="line"/>
      <point x="222" y="885" type="line"/>
      <point x="347" y="1232" type="line"/>
      <point x="398" y="1523" type="line"/>
      <point x="642" y="1490" type="line"/>
    </contour>
    <contour>
      <point x="896" y="1230" type="line"/>
      <point x="675" y="885" type="line"/>
      <point x="522" y="885" type="line"/>
      <point x="647" y="1232" type="line"/>
      <point x="698" y="1523" type="line"/>
      <point x="942" y="1490" type="line"/>
    </contour>
    <contour>
      <point x="1196" y="1230" type="line"/>
      <point x="975" y="885" type="line"/>
      <point x="822" y="885" type="line"/>
      <point x="947" y="1232" type="line"/>
      <point x="998" y="1523" type="line"/>
      <point x="1242" y="1490" type="line"/>
    </contour>
  </outline>
</glyph>
<glyph name="guilsinglleft" format="1">
  <advance width="900"/>
  <unicode hex="2039"/>
  <outline>
    <contour>
      <point x="878" y="1106" type="line"/>
      <point x="927" y="880" type="line"/>
      <point x="543" y="583" type="line"/>
      <point x="461" y="550" type="line"/>
      <point x="531" y="517" type="line"/>
      <point x="813" y="224" type="line"/>
      <point x="677" y="-13" type="line"/>
      <point x="208" y="476" type="line"/>
      <point x="234" y="620" type="line"/>
    </contour>
  </outline>
</glyph>
<glyph name="asterism" format="1">
  <advance width="1100"/>
  <unicode hex="2042"/>
  <outline>
    <contour>
      <point x="751" y="1063" type="line"/>
      <point x="786" y="1002" type="line"/>
      <point x="689" y="927" type="line"/>
      <point x="646" y="1000" type="line"/>
      <point x="635" y="1095" type="line"/>
      <point x="593" y="1000" type="line"/>
      <point x="530" y="928" type="line"/>
      <point x="441" y="990" type="line"/>
      <point x="517" y="1075" type="line"/>
      <point x="606" y="1120" type="line"/>
      <point x="501" y="1120" type="line"/>
      <point x="430" y="1145" type="line"/>
      <point x="471" y="1254" type="line"/>
      <point x="559" y="1229" type="line"/>
      <point x="626" y="1160" type="line"/>
      <point x="610" y="1257" type="line"/>
      <point x="621" y="1323" type="line"/>
      <point x="738" y="1335" type="line"/>
      <point x="724" y="1254" type="line"/>
      <point x="668" y="1158" type="line"/>
      <point x="753" y="1223" type="line"/>
      <point x="830" y="1247" type="line"/>
      <point x="858" y="1141" type="line"/>
      <point x="785" y="1118" type="line"/>
      <point x="673" y="1118" type="line"/>
    </contour>
    <contour>
      <point x="1051" y="463" type="line"/>
      <point x="1086" y="402" type="line"/>
      <point x="989" y="327" type="line"/>
      <point x="946" y="400" type="line"/>
      <point x="935" y="495" type="line"/>
      <point x="893" y="400" type="line"/>
      <point x="830" y="328" type="line"/>
      <point x="741" y="390" type="line"/>
      <point x="817" y="475" type="line"/>
      <point x="906" y="520" type="line"/>
      <point x="801" y="520" type="line"/>
      <point x="730" y="545" type="line"/>
      <point x="771" y="654" type="line"/>
      <point x="859" y="629" type="line"/>
      <point x="926" y="560" type="line"/>
      <point x="910" y="657" type="line"/>
      <point x="921" y="723" type="line"/>
      <point x="1038" y="735" type="line"/>
      <point x="1024" y="654" type="line"/>
      <point x="968" y="558" type="line"/>
      <point x="1053" y="623" type="line"/>
      <point x="1130" y="647" type="line"/>
      <point x="1158" y="541" type="line"/>
      <point x="1085" y="518" type="line"/>
      <point x="973" y="518" type="line"/>
    </contour>
    <contour>
      <point x="451" y="463" type="line"/>
      <point x="486" y="402" type="line"/>
      <point x="389" y="327" type="line"/>
      <point x="346" y="400" type="line"/>
      <point x="335" y="495" type="line"/>
      <point x="293" y="400" type="line"/>
      <point x="230" y="328" type="line"/>
      <point x="141" y="390" type="line"/>
      <point x="217" y="475" type="line"/>
      <point x="306" y="520" type="line"/>
      <point x="201" y="520" type="line"/>
      <point x="130" y="545" type="line"/>
      <point x="171" y="654" type="line"/>
      <point x="259" y="629" type="line"/>
      <point x="326" y="560" type="line"/>
      <point x="310" y="657" type="line"/>
      <point x="321" y="723" type="line"/>
      <point x="438" y="735" type="line"/>
      <point x="424" y="654" type="line"/>
      <point x="368" y="558" type="line"/>
      <point x="453" y="623" type="line"/>
      <point x="530" y="647" type="line"/>
      <point x="558" y="541" type="line"/>
      <point x="485" y="518" type="line"/>
      <point x="373" y="518" type="line"/>
    </contour>
  </outline>
</glyph>
<glyph name="twoasterisksvertical" format="1">
  <advance width="700"/>
  <unicode hex="2051"/>
  <outline>
    <contour>
      <point x="551" y="1063" type="line"/>
      <point x="586" y="1002" type="line"/>
      <point x="489" y="927" type="line"/>
      <point x="446" y="1000" type="line"/>
      <point x="435" y="1095" type="line"/>
      <point x="393" y="1000" type="line"/>
      <point x="330" y="928" type="line"/>
      <point x="241" y="990" type="line"/>
      <point x="317" y="1075" type="line"/>
      <point x="406" y="1120" type="line"/>
      <point x="301" y="1120" type="line"/>
      <point x="230" y="1145" type="line"/>
      <point x="271" y="1254" type="line"/>
      <point x="359" y="1229" type="line"/>
      <point x="426" y="1160" type="line"/>
      <point x="410" y="1257" type="line"/>
      <point x="421" y="1323" type="line"/>
      <point x="538" y="1335" type="line"/>
      <point x="524" y="1254" type="line"/>
      <point x="468" y="1158" type="line"/>
      <point x="553" y="1223" type="line"/>
      <point x="630" y="1247" type="line"/>
      <point x="658" y="1141" type="line"/>
      <point x="585" y="1118" type="line"/>
      <point x="473" y="1118" type="line"/>
    </contour>
    <contour>
      <point x="551" y="463" type="line"/>
      <point x="586" y="402" type="line"/>
      <point x="489" y="327" type="line"/>
      <point x="446" y="400" type="line"/>
      <point x="435" y="495" type="line"/>
      <point x="393" y="400" type="line"/>
      <point x="330" y="328" type="line"/>
      <point x="241" y="390" type="line"/>
      <point x="317" y="475" type="line"/>
      <point x="406" y="520" type="line"/>
      <point x="301" y="520" type="line"/>
      <point x="230" y="545" type="line"/>
      <point x="271" y="654" type="line"/>
      <point x="359" y="629" type="line"/>
      <point x="426" y="560" type="line"/>
      <point x="410" y="657" type="line"/>
      <point x="421" y="723" type="line"/>
      <point x="538" y="735" type="line"/>
      <point x="524" y="654" type="line"/>
      <point x="468" y="558" type="line"/>
      <point x="553" y="623" type="line"/>
      <point x="630" y="647" type="line"/>
      <point x="658" y="541" type="line"/>
      <point x="585" y="518" type="line"/>
      <point x="473" y="518" type="line"/>
    </contour>
  </outline>
</glyph>
<glyph name="zerosuperior" format="1">
  <advance width="800"/>
  <unicode hex="2070"/>
  <outline>
    <contour>
      <point x="296" y="712" type="qcurve"/>
      <point x="227" y="717"/>
      <point x="140" y="789"/>
      <point x="93" y="897"/>
      <point x="82" y="1029"/>
      <point x="90" y="1095" type="qcurve"/>
      <point x="96" y="1140"/>
      <point x="124" y="1235"/>
      <point x="167" y="1323"/>
      <point x="225" y="1399"/>
      <point x="297" y="1454"/>
      <point x="382" y="1482"/>
      <point x="431" y="1478" type="qcurve"/>
      <point x="501" y="1471"/>
      <point x="590" y="1399"/>
      <point x="638" y="1292"/>
      <point x="647" y="1161"/>
      <point x="637" y="1095" type="qcurve"/>
      <point x="627" y="1027"/>
      <point x="575" y="886"/>
      <point x="490" y="773"/>
      <point x="372" y="706"/>
    </contour>
    <contour>
      <point x="261" y="1115" type="qcurve"/>
      <point x="256" y="1075"/>
      <point x="247" y="980"/>
      <point x="254" y="896"/>
      <point x="285" y="837"/>
      <point x="321" y="833" type="qcurve"/>
      <point x="352" y="830"/>
      <point x="402" y="872"/>
      <point x="438" y="943"/>
      <point x="461" y="1032"/>
      <point x="466" y="1074" type="qcurve"/>
      <point x="471" y="1116"/>
      <point x="480" y="1212"/>
      <point x="472" y="1295"/>
      <point x="441" y="1353"/>
      <point x="406" y="1356" type="qcurve"/>
      <point x="374" y="1359"/>
      <point x="325" y="1315"/>
      <point x="289" y="1244"/>
      <point x="266" y="1156"/>
    </contour>
  </outline>
</glyph>
<glyph name="ismallsuperior" format="1">
  <advance width="300"/>
  <unicode hex="2071"/>
  <outline>
    <contour>
      <point x="221" y="720" type="line"/>
      <point x="68" y="720" type="line"/>
      <point x="160" y="1244" type="line"/>
      <point x="316" y="1260" type="line"/>
    </contour>
    <contour>
      <point x="197" y="1470" type="line"/>
      <point x="356" y="1470" type="line"/>
      <point x="335" y="1354" type="line"/>
      <point x="176" y="1354" type="line"/>
    </contour>
  </outline>
</glyph>
<glyph name="foursuperior" format="1">
  <advance width="600"/>
  <unicode hex="2074"/>
  <outline>
    <contour>
      <point x="595" y="870" type="line"/>
      <point x="506" y="870" type="line"/>
      <point x="480" y="720" type="line"/>
      <point x="326" y="720" type="line"/>
      <point x="352" y="870" type="line"/>
      <point x="57" y="870" type="line"/>
      <point x="75" y="970" type="line"/>
      <point x="413" y="1482" type="line"/>
      <point x="563" y="1466" type="line"/>
      <point x="335" y="1101" type="line"/>
      <point x="225" y="970" type="line"/>
      <point x="370" y="970" type="line"/>
      <point x="396" y="1119" type="line"/>
      <point x="548" y="1106" type="line"/>
      <point x="524" y="970" type="line"/>
      <point x="624" y="970" type="line"/>
    </contour>
  </outline>
</glyph>
<glyph name="ninesuperior" format="1">
  <advance width="600"/>
  <unicode hex="2079"/>
  <outline>
    <contour>
      <point x="161" y="819" type="line"/>
      <point x="221" y="819"/>
      <point x="329" y="860"/>
      <point x="414" y="929"/>
      <point x="470" y="1020"/>
      <point x="478" y="1070" type="qcurve"/>
      <point x="375" y="994" type="line"/>
      <point x="367" y="993"/>
      <point x="350" y="991"/>
      <point x="342" y="992" type="qcurve"/>
      <point x="293" y="993"/>
      <point x="212" y="1026"/>
      <point x="155" y="1087"/>
      <point x="127" y="1174"/>
      <point x="131" y="1228" type="qcurve"/>
      <point x="135" y="1284"/>
      <point x="186" y="1380"/>
      <point x="269" y="1448"/>
      <point x="377" y="1482"/>
      <point x="439" y="1478" type="qcurve"/>
      <point x="492" y="1474"/>
      <point x="566" y="1439"/>
      <point x="616" y="1387"/>
      <point x="643" y="1321"/>
      <point x="656" y="1252"/>
      <point x="655" y="1185"/>
      <point x="652" y="1156" type="qcurve"/>
      <point x="642" y="1068"/>
      <point x="565" y="911"/>
      <point x="439" y="791"/>
      <point x="268" y="717"/>
      <point x="164" y="711" type="qcurve"/>
    </contour>
    <contour>
      <point x="366" y="1100" type="qcurve"/>
      <point x="384" y="1097"/>
      <point x="423" y="1110"/>
      <point x="460" y="1137"/>
      <point x="491" y="1172"/>
      <point x="501" y="1192" type="qcurve"/>
      <point x="507" y="1224"/>
      <point x="501" y="1286"/>
      <point x="480" y="1335"/>
      <point x="445" y="1367"/>
      <point x="423" y="1370" type="qcurve"/>
      <point x="398" y="1373"/>
      <point x="350" y="1352"/>
      <point x="313" y="1315"/>
      <point x="291" y="1264"/>
      <point x="291" y="1237" type="qcurve"/>
      <point x="291" y="1211"/>
      <point x="298" y="1164"/>
      <point x="315" y="1128"/>
      <point x="344" y="1104"/>
    </contour>
  </outline>
</glyph>
<glyph name="plussuperior" format="1">
  <advance width="600"/>
  <unicode hex="207A"/>
  <outline>
    <contour>
      <point x="104" y="1070" type="line"/>
      <point x="284" y="1070" type="line"/>
      <point x="322" y="1285" type="line"/>
      <point x="427" y="1285" type="line"/>
      <point x="389" y="1070" type="line"/>
      <point x="569" y="1070" type="line"/>
      <point x="551" y="970" type="line"/>
      <point x="371" y="970" type="line"/>
      <point x="336" y="770" type="line"/>
      <point x="231" y="770" type="line"/>
      <point x="266" y="970" type="line"/>
      <point x="86" y="970" type="line"/>
    </contour>
  </outline>
</glyph>
<glyph name="equalsuperior" format="1">
  <advance width="500"/>
  <unicode hex="207C"/>
  <outline>
    <contour>
      <point x="120" y="1120" type="line"/>
      <point x="520" y="1120" type="line"/>
      <point x="501" y="1010" type="line"/>
      <point x="101" y="1010" type="line"/>
    </contour>
    <contour>
      <point x="85" y="920" type="line"/>
      <point x="485" y="920" type="line"/>
      <point x="465" y="810" type="line"/>
      <point x="65" y="810" type="line"/>
    </contour>
  </outline>
</glyph>
<glyph name="parenrightsuperior" format="1">
  <advance width="500"/>
  <unicode hex="207E"/>
  <outline>
    <contour>
      <point x="368" y="736" type="line"/>
      <point x="358" y="680"/>
      <point x="338" y="593"/>
      <point x="296" y="535"/>
      <point x="225" y="506"/>
      <point x="164" y="507" type="qcurve"/>
      <point x="139" y="507"/>
      <point x="82" y="521"/>
      <point x="63" y="534" type="qcurve"/>
      <point x="123" y="594" type="line"/>
      <point x="133" y="595"/>
      <point x="157" y="595"/>
      <point x="179" y="611"/>
      <point x="199" y="652"/>
      <point x="207" y="694" type="qcurve"/>
      <point x="319" y="1330" type="line"/>
      <point x="325" y="1363"/>
      <point x="317" y="1402"/>
      <point x="299" y="1423"/>
      <point x="276" y="1431"/>
      <point x="267" y="1432" type="qcurve"/>
      <point x="232" y="1489" type="line"/>
      <point x="255" y="1503"/>
      <point x="318" y="1517"/>
      <point x="343" y="1517" type="qcurve"/>
      <point x="399" y="1517"/>
      <point x="456" y="1474"/>
      <point x="478" y="1409"/>
      <point x="473" y="1331"/>
      <point x="467" y="1296" type="qcurve"/>
    </contour>
  </outline>
</glyph>
<glyph name="zeroinferior" format="1">
  <advance width="600"/>
  <unicode hex="2080"/>
  <outline>
    <contour>
      <point x="297" y="-508" type="qcurve"/>
      <point x="228" y="-503"/>
      <point x="141" y="-431"/>
      <point x="94" y="-323"/>
      <point x="83" y="-191"/>
      <point x="91" y="-125" type="qcurve"/>
      <point x="97" y="-80"/>
      <point x="125" y="15"/>
      <point x="168" y="103"/>
      <point x="226" y="179"/>
      <point x="298" y="234"/>
      <point x="383" y="263"/>
      <point x="432" y="258" type="qcurve"/>
      <point x="502" y="251"/>
      <point x="591" y="179"/>
      <point x="639" y="72"/>
      <point x="648" y="-59"/>
      <point x="638" y="-125" type="qcurve"/>
      <point x="628" y="-193"/>
      <point x="576" y="-334"/>
      <point x="491" y="-447"/>
      <point x="373" y="-514"/>
    </contour>
    <contour>
      <point x="262" y="-105" type="qcurve"/>
      <point x="257" y="-145"/>
      <point x="248" y="-240"/>
      <point x="255" y="-324"/>
      <point x="286" y="-383"/>
      <point x="322" y="-387" type="qcurve"/>
      <point x="353" y="-390"/>
      <point x="403" y="-348"/>
      <point x="439" y="-277"/>
      <point x="462" y="-188"/>
      <point x="467" y="-146" type="qcurve"/>
      <point x="472" y="-104"/>
      <point x="481" y="-8"/>
      <point x="473" y="75"/>
      <point x="442" y="133"/>
      <point x="407" y="136" type="qcurve"/>
      <point x="375" y="139"/>
      <point x="326" y="95"/>
      <point x="290" y="24"/>
      <point x="267" y="-64"/>
    </contour>
  </outline>
</glyph>
<glyph name="fourinferior" format="1">
  <advance width="600"/>
  <unicode hex="2084"/>
  <outline>
    <contour>
      <point x="595" y="-350" type="line"/>
      <point x="506" y="-350" type="line"/>
      <point x="480" y="-500" type="line"/>
      <point x="326" y="-500" type="line"/>
      <point x="352" y="-350" type="line"/>
      <point x="57" y="-350" type="line"/>
      <point x="75" y="-250" type="line"/>
      <point x="413" y="262" type="line"/>
      <point x="563" y="246" type="line"/>
      <point x="335" y="-119" type="line"/>
      <point x="225" y="-250" type="line"/>
      <point x="370" y="-250" type="line"/>
      <point x="396" y="-101" type="line"/>
      <point x="548" y="-114" type="line"/>
      <point x="524" y="-250" type="line"/>
      <point x="624" y="-250" type="line"/>
    </contour>
  </outline>
</glyph>
<glyph name="fiveinferior" format="1">
  <advance width="600"/>
  <unicode hex="2085"/>
  <outline>
    <contour>
      <point x="337" y="23" type="line"/>
      <point x="362" y="29"/>
      <point x="396" y="29" type="qcurve"/>
      <point x="445" y="29"/>
      <point x="526" y="-2"/>
      <point x="581" y="-59"/>
      <point x="606" y="-139"/>
      <point x="600" y="-187" type="qcurve"/>
      <point x="591" y="-264"/>
      <point x="492" y="-380"/>
      <point x="344" y="-460"/>
      <point x="163" y="-500"/>
      <point x="71" y="-500" type="qcurve"/>
      <point x="90" y="-387" type="line"/>
      <point x="147" y="-386"/>
      <point x="269" y="-359"/>
      <point x="370" y="-310"/>
      <point x="436" y="-241"/>
      <point x="439" y="-197" type="qcurve"/>
      <point x="442" y="-154"/>
      <point x="404" y="-95"/>
      <point x="362" y="-89" type="qcurve"/>
      <point x="343" y="-86"/>
      <point x="313" y="-90"/>
      <point x="288" y="-100"/>
      <point x="263" y="-114"/>
      <point x="250" y="-121" type="qcurve"/>
      <point x="144" y="-121" type="line"/>
      <point x="209" y="250" type="line"/>
      <point x="636" y="250" type="line"/>
      <point x="618" y="150" type="line"/>
      <point x="360" y="150" type="line"/>
    </contour>
  </outline>
</glyph>
<glyph name="sixinferior" format="1">
  <advance width="600"/>
  <unicode hex="2086"/>
  <outline>
    <contour>
      <point x="609" y="140" type="line"/>
      <point x="598" y="147"/>
      <point x="568" y="149"/>
      <point x="556" y="150" type="qcurve"/>
      <point x="514" y="153"/>
      <point x="429" y="118"/>
      <point x="354" y="51"/>
      <point x="295" y="-44"/>
      <point x="281" y="-100" type="qcurve"/>
      <point x="376" y="-28" type="line"/>
      <point x="390" y="-25"/>
      <point x="417" y="-23"/>
      <point x="428" y="-22" type="qcurve"/>
      <point x="472" y="-19"/>
      <point x="551" y="-43"/>
      <point x="608" y="-96"/>
      <point x="638" y="-180"/>
      <point x="634" y="-238" type="qcurve"/>
      <point x="630" y="-294"/>
      <point x="576" y="-395"/>
      <point x="490" y="-470"/>
      <point x="379" y="-512"/>
      <point x="317" y="-509" type="qcurve"/>
      <point x="263" y="-506"/>
      <point x="188" y="-472"/>
      <point x="139" y="-419"/>
      <point x="111" y="-353"/>
      <point x="100" y="-283"/>
      <point x="101" y="-215"/>
      <point x="104" y="-187" type="qcurve"/>
      <point x="114" y="-98"/>
      <point x="198" y="68"/>
      <point x="327" y="193"/>
      <point x="490" y="264"/>
      <point x="579" y="258" type="qcurve"/>
      <point x="588" y="257"/>
      <point x="621" y="256"/>
      <point x="646" y="249" type="qcurve"/>
    </contour>
    <contour>
      <point x="403" y="-122" type="qcurve"/>
      <point x="368" y="-117"/>
      <point x="291" y="-162"/>
      <point x="263" y="-200" type="qcurve"/>
      <point x="258" y="-226"/>
      <point x="253" y="-262"/>
      <point x="257" y="-283" type="qcurve"/>
      <point x="261" y="-302"/>
      <point x="273" y="-342"/>
      <point x="293" y="-375"/>
      <point x="320" y="-398"/>
      <point x="338" y="-400" type="qcurve"/>
      <point x="365" y="-403"/>
      <point x="412" y="-376"/>
      <point x="448" y="-329"/>
      <point x="469" y="-270"/>
      <point x="471" y="-242" type="qcurve"/>
      <point x="475" y="-191"/>
      <point x="438" y="-127"/>
    </contour>
  </outline>
</glyph>
<glyph name="parenleftinferior" format="1">
  <advance width="400"/>
  <unicode hex="208D"/>
  <outline>
    <contour>
      <point x="181" y="79" type="line"/>
      <point x="191" y="132"/>
      <point x="214" y="217"/>
      <point x="257" y="276"/>
      <point x="327" y="304"/>
      <point x="383" y="300" type="qcurve"/>
      <point x="408" y="298"/>
      <point x="453" y="286"/>
      <point x="484" y="272" type="qcurve"/>
      <point x="429" y="215" type="line"/>
      <point x="418" y="217"/>
      <point x="392" y="216"/>
      <point x="367" y="197"/>
      <point x="347" y="153"/>
      <point x="341" y="113" type="qcurve"/>
      <point x="228" y="-523" type="line"/>
      <point x="222" y="-552"/>
      <point x="228" y="-589"/>
      <point x="244" y="-611"/>
      <point x="266" y="-621"/>
      <point x="277" y="-623" type="qcurve"/>
      <point x="316" y="-683" type="line"/>
      <point x="293" y="-696"/>
      <point x="230" y="-712"/>
      <point x="205" y="-710" type="qcurve"/>
      <point x="151" y="-706"/>
      <point x="94" y="-661"/>
      <point x="72" y="-595"/>
      <point x="75" y="-517"/>
      <point x="82" y="-481" type="qcurve"/>
    </contour>
  </outline>
</glyph>
<glyph name="parenrightinferior" format="1">
  <advance width="400"/>
  <unicode hex="208E"/>
  <outline>
    <contour>
      <point x="368" y="-481" type="line"/>
      <point x="358" y="-537"/>
      <point x="338" y="-624"/>
      <point x="296" y="-682"/>
      <point x="225" y="-711"/>
      <point x="164" y="-710" type="qcurve"/>
      <point x="139" y="-710"/>
      <point x="82" y="-696"/>
      <point x="63" y="-683" type="qcurve"/>
      <point x="123" y="-623" type="line"/>
      <point x="133" y="-622"/>
      <point x="157" y="-622"/>
      <point x="179" y="-606"/>
      <point x="199" y="-565"/>
      <point x="207" y="-523" type="qcurve"/>
      <point x="319" y="113" type="line"/>
      <point x="325" y="146"/>
      <point x="317" y="185"/>
      <point x="299" y="206"/>
      <point x="276" y="214"/>
      <point x="267" y="215" type="qcurve"/>
      <point x="232" y="272" type="line"/>
      <point x="255" y="286"/>
      <point x="318" y="300"/>
      <point x="343" y="300" type="qcurve"/>
      <point x="399" y="300"/>
      <point x="456" y="257"/>
      <point x="478" y="192"/>
      <point x="473" y="114"/>
      <point x="467" y="79" type="qcurve"/>
    </contour>
  </outline>
</glyph>
<glyph name="indianrupee" format="1">
  <advance width="1200"/>
  <unicode hex="20B9"/>
  <outline>
    <contour>
      <point x="414" y="1500" type="line"/>
      <point x="1356" y="1500" type="line"/>
      <point x="1206" y="1292" type="line"/>
      <point x="1118" y="1292" type="line"/>
      <point x="983" y="1340" type="line"/>
      <point x="1058" y="1251" type="line"/>
      <point x="1064" y="1231"/>
      <point x="1060" y="1183"/>
      <point x="1058" y="1169" type="qcurve"/>
      <point x="1299" y="1169" type="line"/>
      <point x="1148" y="959" type="line"/>
      <point x="1056" y="959" type="line"/>
      <point x="948" y="990" type="line"/>
      <point x="997" y="925" type="line"/>
      <point x="938" y="794"/>
      <point x="707" y="641"/>
      <point x="549" y="627" type="qcurve"/>
      <point x="689" y="583" type="line"/>
      <point x="1024" y="0" type="line"/>
      <point x="669" y="0" type="line"/>
      <point x="343" y="573" type="line"/>
      <point x="336" y="583"/>
      <point x="324" y="583" type="qcurve"/>
      <point x="232" y="583" type="line"/>
      <point x="271" y="802" type="line"/>
      <point x="441" y="802" type="line"/>
      <point x="501" y="802"/>
      <point x="587" y="823"/>
      <point x="649" y="864"/>
      <point x="692" y="922"/>
      <point x="709" y="959" type="qcurve"/>
      <point x="261" y="959" type="line"/>
      <point x="356" y="1169" type="line"/>
      <point x="752" y="1169" type="line"/>
      <point x="753" y="1185"/>
      <point x="748" y="1228"/>
      <point x="720" y="1266"/>
      <point x="660" y="1292"/>
      <point x="607" y="1292" type="qcurve"/>
      <point x="319" y="1292" type="line"/>
    </contour>
  </outline>
</glyph>
<glyph name="Ohm" format="1">
  <advance width="1600"/>
  <unicode hex="2126"/>
  <outline>
    <contour>
      <point x="94" y="228" type="line"/>
      <point x="388" y="228" type="line"/>
      <point x="264" y="308" type="line"/>
      <point x="247" y="338"/>
      <point x="220" y="424"/>
      <point x="204" y="540"/>
      <point x="202" y="685"/>
      <point x="211" y="774" type="qcurve"/>
      <point x="229" y="949"/>
      <point x="366" y="1235"/>
      <point x="585" y="1431"/>
      <point x="876" y="1528"/>
      <point x="1047" y="1516" type="qcurve"/>
      <point x="1217" y="1504"/>
      <point x="1456" y="1378"/>
      <point x="1598" y="1179"/>
      <point x="1644" y="920"/>
      <point x="1620" y="774" type="qcurve"/>
      <point x="1606" y="687"/>
      <point x="1555" y="542"/>
      <point x="1496" y="426"/>
      <point x="1435" y="340"/>
      <point x="1410" y="312" type="qcurve"/>
      <point x="1252" y="228" type="line"/>
      <point x="1544" y="228" type="line"/>
      <point x="1504" y="0" type="line"/>
      <point x="845" y="0" type="line"/>
      <point x="887" y="243" type="line"/>
      <point x="967" y="264"/>
      <point x="1100" y="360"/>
      <point x="1201" y="492"/>
      <point x="1267" y="655"/>
      <point x="1279" y="744" type="qcurve"/>
      <point x="1294" y="850"/>
      <point x="1286" y="1038"/>
      <point x="1224" y="1181"/>
      <point x="1100" y="1271"/>
      <point x="999" y="1279" type="qcurve"/>
      <point x="902" y="1287"/>
      <point x="745" y="1212"/>
      <point x="631" y="1078"/>
      <point x="562" y="901"/>
      <point x="553" y="807" type="qcurve"/>
      <point x="543" y="703"/>
      <point x="554" y="530"/>
      <point x="602" y="390"/>
      <point x="689" y="281"/>
      <point x="755" y="241" type="qcurve"/>
      <point x="713" y="0" type="line"/>
      <point x="54" y="0" type="line"/>
    </contour>
  </outline>
</glyph>
<glyph name="angstrom" format="1">
  <advance width="1300"/>
  <unicode hex="212B"/>
  <outline>
    <contour>
      <point x="20" y="0" type="line"/>
      <point x="644" y="1284" type="line"/>
      <point x="716" y="1494" type="line"/>
      <point x="1071" y="1525" type="line"/>
      <point x="1282" y="0" type="line"/>
      <point x="955" y="0" type="line"/>
      <point x="914" y="427" type="line"/>
      <point x="522" y="427" type="line"/>
      <point x="334" y="0" type="line"/>
    </contour>
    <contour>
      <point x="882" y="1361" type="line"/>
      <point x="764" y="990" type="line"/>
      <point x="619" y="646" type="line"/>
      <point x="893" y="646" type="line"/>
      <point x="869" y="990" type="line"/>
    </contour>
    <contour>
      <point x="990" y="1926" type="qcurve"/>
      <point x="1052" y="1919"/>
      <point x="1154" y="1873"/>
      <point x="1224" y="1799"/>
      <point x="1258" y="1700"/>
      <point x="1252" y="1640" type="qcurve"/>
      <point x="1246" y="1581"/>
      <point x="1180" y="1471"/>
      <point x="1079" y="1389"/>
      <point x="954" y="1345"/>
      <point x="889" y="1354" type="qcurve"/>
      <point x="752" y="1372"/>
      <point x="620" y="1522"/>
      <point x="625" y="1640" type="qcurve"/>
      <point x="627" y="1700"/>
      <point x="693" y="1810"/>
      <point x="797" y="1891"/>
      <point x="925" y="1933"/>
    </contour>
    <contour>
      <point x="959" y="1736" type="qcurve"/>
      <point x="937" y="1738"/>
      <point x="893" y="1724"/>
      <point x="858" y="1697"/>
      <point x="836" y="1660"/>
      <point x="835" y="1639" type="qcurve"/>
      <point x="834" y="1598"/>
      <point x="878" y="1548"/>
      <point x="926" y="1541" type="qcurve"/>
      <point x="947" y="1538"/>
      <point x="989" y="1553"/>
      <point x="1024" y="1581"/>
      <point x="1046" y="1619"/>
      <point x="1048" y="1639" type="qcurve"/>
      <point x="1052" y="1681"/>
      <point x="1003" y="1731"/>
    </contour>
  </outline>
</glyph>
<glyph name="scriptsmallo" format="1">
  <advance width="1100"/>
  <unicode hex="2134"/>
  <outline>
    <contour>
      <point x="367" y="-17" type="qcurve"/>
      <point x="297" y="-17"/>
      <point x="189" y="27"/>
      <point x="116" y="106"/>
      <point x="78" y="217"/>
      <point x="78" y="284" type="qcurve"/>
      <point x="78" y="358"/>
      <point x="114" y="505"/>
      <point x="182" y="638"/>
      <point x="279" y="753"/>
      <point x="401" y="837"/>
      <point x="545" y="885"/>
      <point x="626" y="885" type="qcurve"/>
      <point x="695" y="885"/>
      <point x="804" y="843"/>
      <point x="879" y="765"/>
      <point x="918" y="656"/>
      <point x="918" y="590" type="qcurve"/>
      <point x="918" y="516"/>
      <point x="881" y="369"/>
      <point x="813" y="235"/>
      <point x="715" y="118"/>
      <point x="592" y="32"/>
      <point x="448" y="-17"/>
    </contour>
    <contour>
      <point x="748" y="558" type="qcurve"/>
      <point x="748" y="597"/>
      <point x="733" y="666"/>
      <point x="697" y="717"/>
      <point x="638" y="746"/>
      <point x="593" y="746" type="qcurve"/>
      <point x="539" y="746"/>
      <point x="446" y="708"/>
      <point x="369" y="643"/>
      <point x="309" y="556"/>
      <point x="268" y="459"/>
      <point x="246" y="357"/>
      <point x="246" y="310" type="qcurve"/>
      <point x="246" y="270"/>
      <point x="261" y="202"/>
      <point x="297" y="152"/>
      <point x="357" y="123"/>
      <point x="401" y="123" type="qcurve"/>
      <point x="482" y="123"/>
      <point x="610" y="201"/>
      <point x="700" y="326"/>
      <point x="748" y="481"/>
    </contour>
  </outline>
</glyph>
<glyph name="onethirds" format="1">
  <advance width="1500"/>
  <unicode hex="2153"/>
  <outline>
    <contour>
      <point x="474" y="0" type="line"/>
      <point x="289" y="0" type="line"/>
      <point x="1064" y="1500" type="line"/>
      <point x="1240" y="1500" type="line"/>
    </contour>
    <contour>
      <point x="369" y="1162" type="line"/>
      <point x="438" y="1343" type="line"/>
      <point x="300" y="1208" type="line"/>
      <point x="252" y="1171" type="line"/>
      <point x="190" y="1263" type="line"/>
      <point x="469" y="1484" type="line"/>
      <point x="581" y="1468" type="line"/>
      <point x="467" y="822" type="line"/>
      <point x="588" y="822" type="line"/>
      <point x="571" y="722" type="line"/>
      <point x="170" y="722" type="line"/>
      <point x="187" y="822" type="line"/>
      <point x="309" y="822" type="line"/>
    </contour>
    <contour>
      <point x="1048" y="507" type="line"/>
      <point x="1073" y="523"/>
      <point x="1150" y="570"/>
      <point x="1233" y="628"/>
      <point x="1308" y="692"/>
      <point x="1331" y="725" type="qcurve"/>
      <point x="1194" y="688" type="line"/>
      <point x="1029" y="688" type="line"/>
      <point x="1057" y="788" type="line"/>
      <point x="1471" y="788" type="line"/>
      <point x="1456" y="701" type="line"/>
      <point x="1435" y="671"/>
      <point x="1365" y="593"/>
      <point x="1323" y="564" type="qcurve"/>
      <point x="1237" y="522" type="line"/>
      <point x="1282" y="524"/>
      <point x="1359" y="497"/>
      <point x="1413" y="445"/>
      <point x="1440" y="370"/>
      <point x="1436" y="324" type="qcurve"/>
      <point x="1429" y="247"/>
      <point x="1334" y="139"/>
      <point x="1188" y="70"/>
      <point x="1005" y="38"/>
      <point x="909" y="38" type="qcurve"/>
      <point x="927" y="138" type="line"/>
      <point x="991" y="138"/>
      <point x="1114" y="164"/>
      <point x="1210" y="211"/>
      <point x="1270" y="278"/>
      <point x="1271" y="319" type="qcurve"/>
      <point x="1272" y="348"/>
      <point x="1250" y="388"/>
      <point x="1213" y="412"/>
      <point x="1163" y="423"/>
      <point x="1136" y="423" type="qcurve"/>
      <point x="1128" y="423"/>
      <point x="1100" y="422"/>
      <point x="1068" y="420"/>
      <point x="1040" y="418"/>
      <point x="1033" y="418" type="qcurve"/>
    </contour>
  </outline>
</glyph>
<glyph name="onefifth" format="1">
  <advance width="1500"/>
  <unicode hex="2155"/>
  <outline>
    <contour>
      <point x="473" y="0" type="line"/>
      <point x="288" y="0" type="line"/>
      <point x="1063" y="1500" type="line"/>
      <point x="1239" y="1500" type="line"/>
    </contour>
    <contour>
      <point x="367" y="1162" type="line"/>
      <point x="436" y="1343" type="line"/>
      <point x="298" y="1208" type="line"/>
      <point x="250" y="1171" type="line"/>
      <point x="188" y="1263" type="line"/>
      <point x="467" y="1484" type="line"/>
      <point x="579" y="1468" type="line"/>
      <point x="465" y="822" type="line"/>
      <point x="586" y="822" type="line"/>
      <point x="569" y="722" type="line"/>
      <point x="168" y="722" type="line"/>
      <point x="185" y="822" type="line"/>
      <point x="307" y="822" type="line"/>
    </contour>
    <contour>
      <point x="1164" y="561" type="line"/>
      <point x="1189" y="567"/>
      <point x="1223" y="567" type="qcurve"/>
      <point x="1272" y="567"/>
      <point x="1353" y="536"/>
      <point x="1408" y="479"/>
      <point x="1433" y="399"/>
      <point x="1427" y="351" type="qcurve"/>
      <point x="1418" y="274"/>
      <point x="1319" y="158"/>
      <point x="1171" y="78"/>
      <point x="990" y="38"/>
      <point x="898" y="38" type="qcurve"/>
      <point x="917" y="151" type="line"/>
      <point x="974" y="152"/>
      <point x="1096" y="179"/>
      <point x="1197" y="228"/>
      <point x="1263" y="297"/>
      <point x="1266" y="341" type="qcurve"/>
      <point x="1269" y="384"/>
      <point x="1231" y="443"/>
      <point x="1189" y="449" type="qcurve"/>
      <point x="1170" y="452"/>
      <point x="1140" y="448"/>
      <point x="1115" y="438"/>
      <point x="1090" y="424"/>
      <point x="1077" y="417" type="qcurve"/>
      <point x="971" y="417" type="line"/>
      <point x="1036" y="788" type="line"/>
      <point x="1463" y="788" type="line"/>
      <point x="1445" y="688" type="line"/>
      <point x="1187" y="688" type="line"/>
    </contour>
  </outline>
</glyph>
<glyph name="twofifths" format="1">
  <advance width="1500"/>
  <unicode hex="2156"/>
  <outline>
    <contour>
      <point x="474" y="0" type="line"/>
      <point x="289" y="0" type="line"/>
      <point x="1064" y="1500" type="line"/>
      <point x="1240" y="1500" type="line"/>
    </contour>
    <contour>
      <point x="80" y="722" type="line"/>
      <point x="97" y="817" type="line"/>
      <point x="127" y="854"/>
      <point x="208" y="940"/>
      <point x="290" y="1021"/>
      <point x="362" y="1090"/>
      <point x="384" y="1109" type="qcurve"/>
      <point x="426" y="1147"/>
      <point x="473" y="1194"/>
      <point x="497" y="1227"/>
      <point x="506" y="1253"/>
      <point x="511" y="1270" type="qcurve"/>
      <point x="515" y="1285"/>
      <point x="510" y="1320"/>
      <point x="491" y="1349"/>
      <point x="460" y="1370"/>
      <point x="440" y="1372" type="qcurve"/>
      <point x="399" y="1376"/>
      <point x="324" y="1321"/>
      <point x="295" y="1270" type="qcurve"/>
      <point x="186" y="1313" type="line"/>
      <point x="226" y="1401"/>
      <point x="370" y="1485"/>
      <point x="467" y="1480" type="qcurve"/>
      <point x="524" y="1477"/>
      <point x="602" y="1437"/>
      <point x="649" y="1377"/>
      <point x="666" y="1302"/>
      <point x="662" y="1265" type="qcurve"/>
      <point x="657" y="1229"/>
      <point x="619" y="1164"/>
      <point x="568" y="1105"/>
      <point x="512" y="1054"/>
      <point x="490" y="1032" type="qcurve"/>
      <point x="460" y="1002"/>
      <point x="395" y="940"/>
      <point x="336" y="884"/>
      <point x="288" y="837"/>
      <point x="275" y="822" type="qcurve"/>
      <point x="596" y="822" type="line"/>
      <point x="579" y="722" type="line"/>
    </contour>
    <contour>
      <point x="1165" y="561" type="line"/>
      <point x="1190" y="567"/>
      <point x="1224" y="567" type="qcurve"/>
      <point x="1273" y="567"/>
      <point x="1354" y="536"/>
      <point x="1409" y="479"/>
      <point x="1434" y="399"/>
      <point x="1428" y="351" type="qcurve"/>
      <point x="1419" y="274"/>
      <point x="1320" y="158"/>
      <point x="1172" y="78"/>
      <point x="991" y="38"/>
      <point x="899" y="38" type="qcurve"/>
      <point x="918" y="151" type="line"/>
      <point x="975" y="152"/>
      <point x="1097" y="179"/>
      <point x="1198" y="228"/>
      <point x="1264" y="297"/>
      <point x="1267" y="341" type="qcurve"/>
      <point x="1270" y="384"/>
      <point x="1232" y="443"/>
      <point x="1190" y="449" type="qcurve"/>
      <point x="1171" y="452"/>
      <point x="1141" y="448"/>
      <point x="1116" y="438"/>
      <point x="1091" y="424"/>
      <point x="1078" y="417" type="qcurve"/>
      <point x="972" y="417" type="line"/>
      <point x="1037" y="788" type="line"/>
      <point x="1464" y="788" type="line"/>
      <point x="1446" y="688" type="line"/>
      <point x="1188" y="688" type="line"/>
    </contour>
  </outline>
</glyph>
<glyph name="threefifths" format="1">
  <advance width="1500"/>
  <unicode hex="2157"/>
  <outline>
    <contour>
      <point x="474" y="0" type="line"/>
      <point x="289" y="0" type="line"/>
      <point x="1064" y="1500" type="line"/>
      <point x="1240" y="1500" type="line"/>
    </contour>
    <contour>
      <point x="1165" y="561" type="line"/>
      <point x="1190" y="567"/>
      <point x="1224" y="567" type="qcurve"/>
      <point x="1273" y="567"/>
      <point x="1354" y="536"/>
      <point x="1409" y="479"/>
      <point x="1434" y="399"/>
      <point x="1428" y="351" type="qcurve"/>
      <point x="1419" y="274"/>
      <point x="1320" y="158"/>
      <point x="1172" y="78"/>
      <point x="991" y="38"/>
      <point x="899" y="38" type="qcurve"/>
      <point x="918" y="151" type="line"/>
      <point x="975" y="152"/>
      <point x="1097" y="179"/>
      <point x="1198" y="228"/>
      <point x="1264" y="297"/>
      <point x="1267" y="341" type="qcurve"/>
      <point x="1270" y="384"/>
      <point x="1232" y="443"/>
      <point x="1190" y="449" type="qcurve"/>
      <point x="1171" y="452"/>
      <point x="1141" y="448"/>
      <point x="1116" y="438"/>
      <point x="1091" y="424"/>
      <point x="1078" y="417" type="qcurve"/>
      <point x="972" y="417" type="line"/>
      <point x="1037" y="788" type="line"/>
      <point x="1464" y="788" type="line"/>
      <point x="1446" y="688" type="line"/>
      <point x="1188" y="688" type="line"/>
    </contour>
    <contour>
      <point x="239" y="1191" type="line"/>
      <point x="264" y="1207"/>
      <point x="341" y="1254"/>
      <point x="424" y="1312"/>
      <point x="499" y="1376"/>
      <point x="522" y="1409" type="qcurve"/>
      <point x="385" y="1372" type="line"/>
      <point x="220" y="1372" type="line"/>
      <point x="248" y="1472" type="line"/>
      <point x="662" y="1472" type="line"/>
      <point x="647" y="1385" type="line"/>
      <point x="626" y="1355"/>
      <point x="556" y="1277"/>
      <point x="514" y="1248" type="qcurve"/>
      <point x="428" y="1206" type="line"/>
      <point x="473" y="1208"/>
      <point x="550" y="1181"/>
      <point x="604" y="1129"/>
      <point x="631" y="1054"/>
      <point x="627" y="1008" type="qcurve"/>
      <point x="620" y="931"/>
      <point x="525" y="823"/>
      <point x="379" y="754"/>
      <point x="196" y="722"/>
      <point x="100" y="722" type="qcurve"/>
      <point x="118" y="822" type="line"/>
      <point x="182" y="822"/>
      <point x="305" y="848"/>
      <point x="401" y="895"/>
      <point x="461" y="962"/>
      <point x="462" y="1003" type="qcurve"/>
      <point x="463" y="1032"/>
      <point x="441" y="1072"/>
      <point x="404" y="1096"/>
      <point x="354" y="1107"/>
      <point x="327" y="1107" type="qcurve"/>
      <point x="319" y="1107"/>
      <point x="291" y="1106"/>
      <point x="259" y="1104"/>
      <point x="231" y="1102"/>
      <point x="224" y="1102" type="qcurve"/>
    </contour>
  </outline>
</glyph>
<glyph name="threeeighths" format="1">
  <advance width="1500"/>
  <unicode hex="215C"/>
  <outline>
    <contour>
      <point x="474" y="0" type="line"/>
      <point x="289" y="0" type="line"/>
      <point x="1064" y="1500" type="line"/>
      <point x="1240" y="1500" type="line"/>
    </contour>
    <contour>
      <point x="239" y="1191" type="line"/>
      <point x="264" y="1207"/>
      <point x="341" y="1254"/>
      <point x="424" y="1312"/>
      <point x="499" y="1376"/>
      <point x="522" y="1409" type="qcurve"/>
      <point x="385" y="1372" type="line"/>
      <point x="220" y="1372" type="line"/>
      <point x="248" y="1472" type="line"/>
      <point x="662" y="1472" type="line"/>
      <point x="647" y="1385" type="line"/>
      <point x="626" y="1355"/>
      <point x="556" y="1277"/>
      <point x="514" y="1248" type="qcurve"/>
      <point x="428" y="1206" type="line"/>
      <point x="473" y="1208"/>
      <point x="550" y="1181"/>
      <point x="604" y="1129"/>
      <point x="631" y="1054"/>
      <point x="627" y="1008" type="qcurve"/>
      <point x="620" y="931"/>
      <point x="525" y="823"/>
      <point x="379" y="754"/>
      <point x="196" y="722"/>
      <point x="100" y="722" type="qcurve"/>
      <point x="118" y="822" type="line"/>
      <point x="182" y="822"/>
      <point x="305" y="848"/>
      <point x="401" y="895"/>
      <point x="461" y="962"/>
      <point x="462" y="1003" type="qcurve"/>
      <point x="463" y="1032"/>
      <point x="441" y="1072"/>
      <point x="404" y="1096"/>
      <point x="354" y="1107"/>
      <point x="327" y="1107" type="qcurve"/>
      <point x="319" y="1107"/>
      <point x="291" y="1106"/>
      <point x="259" y="1104"/>
      <point x="231" y="1102"/>
      <point x="224" y="1102" type="qcurve"/>
    </contour>
    <contour>
      <point x="1270" y="796" type="qcurve"/>
      <point x="1371" y="788"/>
      <point x="1476" y="695"/>
      <point x="1469" y="605" type="qcurve"/>
      <point x="1467" y="580"/>
      <point x="1441" y="534"/>
      <point x="1402" y="496"/>
      <point x="1355" y="467"/>
      <point x="1331" y="460" type="qcurve"/>
      <point x="1352" y="452"/>
      <point x="1399" y="411"/>
      <point x="1436" y="355"/>
      <point x="1457" y="287"/>
      <point x="1453" y="251" type="qcurve"/>
      <point x="1447" y="190"/>
      <point x="1387" y="103"/>
      <point x="1298" y="48"/>
      <point x="1191" y="26"/>
      <point x="1138" y="29" type="qcurve"/>
      <point x="1087" y="32"/>
      <point x="1001" y="62"/>
      <point x="941" y="118"/>
      <point x="910" y="201"/>
      <point x="915" y="258" type="qcurve"/>
      <point x="920" y="330"/>
      <point x="1017" y="432"/>
      <point x="1095" y="462" type="qcurve"/>
      <point x="1077" y="477"/>
      <point x="1045" y="507"/>
      <point x="1022" y="541"/>
      <point x="1010" y="579"/>
      <point x="1012" y="600" type="qcurve"/>
      <point x="1016" y="652"/>
      <point x="1068" y="728"/>
      <point x="1142" y="777"/>
      <point x="1229" y="799"/>
    </contour>
    <contour>
      <point x="1297" y="249" type="qcurve"/>
      <point x="1298" y="276"/>
      <point x="1282" y="320"/>
      <point x="1253" y="355"/>
      <point x="1216" y="382"/>
      <point x="1195" y="393" type="qcurve"/>
      <point x="1170" y="384"/>
      <point x="1125" y="357"/>
      <point x="1090" y="321"/>
      <point x="1069" y="275"/>
      <point x="1069" y="248" type="qcurve"/>
      <point x="1068" y="199"/>
      <point x="1119" y="143"/>
      <point x="1158" y="138" type="qcurve"/>
      <point x="1181" y="135"/>
      <point x="1230" y="148"/>
      <point x="1270" y="178"/>
      <point x="1296" y="222"/>
    </contour>
    <contour>
      <point x="1168" y="616" type="qcurve"/>
      <point x="1167" y="599"/>
      <point x="1180" y="569"/>
      <point x="1200" y="545"/>
      <point x="1224" y="526"/>
      <point x="1235" y="520" type="qcurve"/>
      <point x="1274" y="539"/>
      <point x="1318" y="584"/>
      <point x="1317" y="614" type="qcurve"/>
      <point x="1316" y="650"/>
      <point x="1285" y="683"/>
      <point x="1260" y="688" type="qcurve"/>
      <point x="1243" y="691"/>
      <point x="1210" y="681"/>
      <point x="1184" y="660"/>
      <point x="1168" y="631"/>
    </contour>
  </outline>
</glyph>
<glyph name="fractionnumeratorone" format="1">
  <advance width="1500"/>
  <unicode hex="215F"/>
  <outline>
    <contour>
      <point x="474" y="0" type="line"/>
      <point x="289" y="0" type="line"/>
      <point x="1064" y="1500" type="line"/>
      <point x="1240" y="1500" type="line"/>
    </contour>
    <contour>
      <point x="367" y="1162" type="line"/>
      <point x="436" y="1343" type="line"/>
      <point x="298" y="1208" type="line"/>
      <point x="250" y="1171" type="line"/>
      <point x="188" y="1263" type="line"/>
      <point x="467" y="1484" type="line"/>
      <point x="579" y="1468" type="line"/>
      <point x="465" y="822" type="line"/>
      <point x="586" y="822" type="line"/>
      <point x="569" y="722" type="line"/>
      <point x="168" y="722" type="line"/>
      <point x="185" y="822" type="line"/>
      <point x="307" y="822" type="line"/>
    </contour>
  </outline>
</glyph>
<glyph name="Sixroman" format="1">
  <advance width="1900"/>
  <unicode hex="2165"/>
  <outline>
    <contour>
      <point x="1545" y="1500" type="line"/>
      <point x="906" y="204" type="line"/>
      <point x="837" y="-25" type="line"/>
      <point x="472" y="5" type="line"/>
      <point x="258" y="1492" type="line"/>
      <point x="576" y="1526" type="line"/>
      <point x="683" y="700" type="line"/>
      <point x="699" y="260" type="line"/>
      <point x="846" y="700" type="line"/>
      <point x="1235" y="1500" type="line"/>
    </contour>
    <contour>
      <point x="1415" y="0" type="line"/>
      <point x="1637" y="1263" type="line"/>
      <point x="1645" y="1494" type="line"/>
      <point x="2020" y="1525" type="line"/>
      <point x="1752" y="0" type="line"/>
    </contour>
  </outline>
</glyph>
<glyph name="oneroman" format="1">
  <advance width="600"/>
  <unicode hex="2170"/>
  <outline>
    <contour>
      <point x="400" y="0" type="line"/>
      <point x="100" y="0" type="line"/>
      <point x="296" y="1114" type="line"/>
      <point x="602" y="1147" type="line"/>
    </contour>
  </outline>
</glyph>
<glyph name="tworoman" format="1">
  <advance width="1100"/>
  <unicode hex="2171"/>
  <outline>
    <contour>
      <point x="400" y="0" type="line"/>
      <point x="100" y="0" type="line"/>
      <point x="296" y="1114" type="line"/>
      <point x="602" y="1147" type="line"/>
    </contour>
    <contour>
      <point x="900" y="0" type="line"/>
      <point x="600" y="0" type="line"/>
      <point x="796" y="1114" type="line"/>
      <point x="1102" y="1147" type="line"/>
    </contour>
  </outline>
</glyph>
<glyph name="fiveroman" format="1">
  <advance width="1100"/>
  <unicode hex="2174"/>
  <outline>
    <contour>
      <point x="585" y="700" type="line"/>
      <point x="588" y="300" type="line"/>
      <point x="731" y="700" type="line"/>
      <point x="929" y="1093" type="line"/>
      <point x="1243" y="1129" type="line"/>
      <point x="664" y="-24" type="line"/>
      <point x="372" y="5" type="line"/>
      <point x="212" y="1093" type="line"/>
      <point x="523" y="1125" type="line"/>
    </contour>
  </outline>
</glyph>
<glyph name="sixroman" format="1">
  <advance width="1500"/>
  <unicode hex="2175"/>
  <outline>
    <contour>
      <point x="585" y="700" type="line"/>
      <point x="588" y="300" type="line"/>
      <point x="731" y="700" type="line"/>
      <point x="929" y="1093" type="line"/>
      <point x="1243" y="1129" type="line"/>
      <point x="664" y="-24" type="line"/>
      <point x="372" y="5" type="line"/>
      <point x="212" y="1093" type="line"/>
      <point x="523" y="1125" type="line"/>
    </contour>
    <contour>
      <point x="1400" y="0" type="line"/>
      <point x="1100" y="0" type="line"/>
      <point x="1296" y="1114" type="line"/>
      <point x="1602" y="1147" type="line"/>
    </contour>
  </outline>
</glyph>
<glyph name="elevenroman" format="1">
  <advance width="1600"/>
  <unicode hex="217A"/>
  <outline>
    <contour>
      <point x="644" y="272" type="line"/>
      <point x="614" y="474" type="line"/>
      <point x="510" y="272" type="line"/>
      <point x="295" y="0" type="line"/>
      <point x="-34" y="0" type="line"/>
      <point x="480" y="585" type="line"/>
      <point x="213" y="1093" type="line"/>
      <point x="550" y="1120" type="line"/>
      <point x="652" y="900" type="line"/>
      <point x="679" y="699" type="line"/>
      <point x="774" y="900" type="line"/>
      <point x="948" y="1096" type="line"/>
      <point x="1299" y="1124" type="line"/>
      <point x="823" y="581" type="line"/>
      <point x="1129" y="0" type="line"/>
      <point x="778" y="0" type="line"/>
    </contour>
    <contour>
      <point x="1500" y="0" type="line"/>
      <point x="1200" y="0" type="line"/>
      <point x="1396" y="1114" type="line"/>
      <point x="1702" y="1147" type="line"/>
    </contour>
  </outline>
</glyph>
<glyph name="arrowboth" format="1">
  <advance width="1800"/>
  <unicode hex="2194"/>
  <outline>
    <contour>
      <point x="547" y="500" type="line"/>
      <point x="443" y="512" type="line"/>
      <point x="500" y="437" type="line"/>
      <point x="500" y="200" type="line"/>
      <point x="199" y="500" type="line"/>
      <point x="80" y="600" type="line"/>
      <point x="200" y="700" type="line"/>
      <point x="500" y="1000" type="line"/>
      <point x="500" y="765" type="line"/>
      <point x="443" y="690" type="line"/>
      <point x="547" y="700" type="line"/>
      <point x="1233" y="700" type="line"/>
      <point x="1337" y="690" type="line"/>
      <point x="1280" y="765" type="line"/>
      <point x="1280" y="1000" type="line"/>
      <point x="1580" y="700" type="line"/>
      <point x="1700" y="600" type="line"/>
      <point x="1581" y="500" type="line"/>
      <point x="1280" y="200" type="line"/>
      <point x="1280" y="437" type="line"/>
      <point x="1337" y="512" type="line"/>
      <point x="1233" y="500" type="line"/>
    </contour>
  </outline>
</glyph>
<glyph name="rightwardsarrowwithhook" format="1">
  <advance width="1400"/>
  <unicode hex="21AA"/>
  <outline>
    <contour>
      <point x="400" y="400" type="line"/>
      <point x="344" y="400"/>
      <point x="236" y="437"/>
      <point x="152" y="512"/>
      <point x="100" y="625"/>
      <point x="100" y="700" type="qcurve"/>
      <point x="100" y="775"/>
      <point x="152" y="887"/>
      <point x="236" y="962"/>
      <point x="344" y="1000"/>
      <point x="400" y="1000" type="qcurve"/>
      <point x="400" y="800" type="line"/>
      <point x="373" y="800"/>
      <point x="326" y="784"/>
      <point x="290" y="757"/>
      <point x="270" y="721"/>
      <point x="270" y="700" type="qcurve"/>
      <point x="270" y="679"/>
      <point x="290" y="642"/>
      <point x="326" y="615"/>
      <point x="373" y="600"/>
      <point x="400" y="600" type="qcurve"/>
      <point x="853" y="600" type="line"/>
      <point x="957" y="590" type="line"/>
      <point x="900" y="665" type="line"/>
      <point x="900" y="900" type="line"/>
      <point x="1200" y="600" type="line"/>
      <point x="1320" y="500" type="line"/>
      <point x="1201" y="400" type="line"/>
      <point x="900" y="100" type="line"/>
      <point x="900" y="337" type="line"/>
      <point x="957" y="412" type="line"/>
      <point x="853" y="400" type="line"/>
    </contour>
  </outline>
</glyph>
<glyph name="downwardsarrowwithtiprightwards" format="1">
  <advance width="1100"/>
  <unicode hex="21B3"/>
  <outline>
    <contour>
      <point x="259" y="500" type="line"/>
      <point x="553" y="500" type="line"/>
      <point x="657" y="490" type="line"/>
      <point x="600" y="565" type="line"/>
      <point x="600" y="800" type="line"/>
      <point x="900" y="500" type="line"/>
      <point x="1020" y="400" type="line"/>
      <point x="901" y="300" type="line"/>
      <point x="600" y="0" type="line"/>
      <point x="600" y="237" type="line"/>
      <point x="657" y="312" type="line"/>
      <point x="553" y="300" type="line"/>
      <point x="100" y="300" type="line"/>
      <point x="100" y="1300" type="line"/>
      <point x="259" y="1300" type="line"/>
    </contour>
  </outline>
</glyph>
